999
dxfrw 0.6.3
  0
SECTION
  2
HEADER
  9
$ACADVER
  1
AC1021
  9
$DWGCODEPAGE
  3
ANSI_1252
  9
$INSBASE
 10
0
 20
0
 30
0
  9
$EXTMIN
 10
-479
 20
-604
 30
0
  9
$EXTMAX
 10
952
 20
85
 30
0
  9
$LIMMIN
 10
0
 20
0
  9
$LIMMAX
 10
420
 20
297
  9
$ORTHOMODE
 70
    0
  9
$REGENMODE
 70
    1
  9
$FILLMODE
 70
    1
  9
$QTEXTMODE
 70
    0
  9
$MIRRTEXT
 70
    0
  9
$LTSCALE
 40
1
  9
$ATTMODE
 70
    0
  9
$TEXTSIZE
 40
2.5
  9
$TRACEWID
 40
15.68
  9
$TEXTSTYLE
  7
STANDARD
  9
$CLAYER
  8
X
  9
$CELTYPE
  6
BYLAYER
  9
$CECOLOR
 62
  256
  9
$CELTSCALE
 40
1
  9
$DISPSILH
 70
    0
  9
$DIMSCALE
 40
2.5
  9
$DIMASZ
 40
2.5
  9
$DIMEXO
 40
0.625
  9
$DIMDLI
 40
3.75
  9
$DIMRND
 40
0
  9
$DIMDLE
 40
0
  9
$DIMEXE
 40
1.25
  9
$DIMTP
 40
0
  9
$DIMTM
 40
0
  9
$DIMTXT
 40
2.5
  9
$DIMCEN
 40
2.5
  9
$DIMTSZ
 40
0
  9
$DIMTOL
 70
    0
  9
$DIMLIM
 70
    0
  9
$DIMTIH
 70
    0
  9
$DIMTOH
 70
    0
  9
$DIMSE1
 70
    0
  9
$DIMSE2
 70
    0
  9
$DIMTAD
 70
    1
  9
$DIMZIN
 70
    8
  9
$DIMBLK
  1

  9
$DIMASO
 70
    1
  9
$DIMSHO
 70
    1
  9
$DIMPOST
  1

  9
$DIMAPOST
  1

  9
$DIMALT
 70
    0
  9
$DIMALTD
 70
    3
  9
$DIMALTF
 40
0.03937
  9
$DIMLFAC
 40
1
  9
$DIMTOFL
 70
    1
  9
$DIMTVP
 40
0
  9
$DIMTIX
 70
    0
  9
$DIMSOXD
 70
    0
  9
$DIMSAH
 70
    0
  9
$DIMBLK1
  1

  9
$DIMBLK2
  1

  9
$DIMSTYLE
  2
STANDARD
  9
$DIMCLRD
 70
    0
  9
$DIMCLRE
 70
    0
  9
$DIMCLRT
 70
    0
  9
$DIMTFAC
 40
1
  9
$DIMGAP
 40
0.625
  9
$DIMJUST
 70
    0
  9
$DIMSD1
 70
    0
  9
$DIMSD2
 70
    0
  9
$DIMTOLJ
 70
    0
  9
$DIMTZIN
 70
    8
  9
$DIMALTZ
 70
    0
  9
$DIMALTTZ
 70
    0
  9
$DIMUPT
 70
    0
  9
$DIMDEC
 70
    2
  9
$DIMTDEC
 70
    2
  9
$DIMALTU
 70
    2
  9
$DIMALTTD
 70
    3
  9
$DIMTXSTY
  7
STANDARD
  9
$DIMAUNIT
 70
    0
  9
$DIMADEC
 70
    0
  9
$DIMALTRND
 40
0
  9
$DIMAZIN
 70
    0
  9
$DIMDSEP
 70
   44
  9
$DIMATFIT
 70
    3
  9
$DIMFRAC
 70
    0
  9
$DIMLDRBLK
  1
STANDARD
  9
$DIMLUNIT
 70
    2
  9
$DIMLWD
 70
   -2
  9
$DIMLWE
 70
   -2
  9
$DIMTMOVE
 70
    0
  9
$DIMFXL
 40
1
  9
$DIMFXLON
 70
    0
  9
$DIMJOGANG
 40
0.7854
  9
$DIMTFILL
 70
    0
  9
$DIMTFILLCLR
 70
    0
  9
$DIMARCSYM
 70
    0
  9
$DIMLTYPE
  6

  9
$DIMLTEX1
  6

  9
$DIMLTEX2
  6

  9
$LUNITS
 70
    2
  9
$LUPREC
 70
    4
  9
$SKETCHINC
 40
1
  9
$FILLETRAD
 40
0
  9
$AUNITS
 70
    0
  9
$AUPREC
 70
    2
  9
$MENU
  1
.
  9
$ELEVATION
 40
0
  9
$PELEVATION
 40
0
  9
$THICKNESS
 40
0
  9
$LIMCHECK
 70
    0
  9
$CHAMFERA
 40
0
  9
$CHAMFERB
 40
0
  9
$CHAMFERC
 40
0
  9
$CHAMFERD
 40
0
  9
$SKPOLY
 70
    0
  9
$USRTIMER
 70
    1
  9
$ANGBASE
 50
0
  9
$ANGDIR
 70
    0
  9
$PDMODE
 70
   34
  9
$PDSIZE
 40
0
  9
$PLINEWID
 40
0
  9
$SPLFRAME
 70
    0
  9
$SPLINETYPE
 70
    2
  9
$SPLINESEGS
 70
    8
  9
$HANDSEED
  5
20000
  9
$SURFTAB1
 70
    6
  9
$SURFTAB2
 70
    6
  9
$SURFTYPE
 70
    6
  9
$SURFU
 70
    6
  9
$SURFV
 70
    6
  9
$UCSBASE
  2

  9
$UCSNAME
  2

  9
$UCSORG
 10
0
 20
0
 30
0
  9
$UCSXDIR
 10
1
 20
0
 30
0
  9
$UCSYDIR
 10
0
 20
1
 30
0
  9
$UCSORTHOREF
  2

  9
$UCSORTHOVIEW
 70
    0
  9
$UCSORGTOP
 10
0
 20
0
 30
0
  9
$UCSORGBOTTOM
 10
0
 20
0
 30
0
  9
$UCSORGLEFT
 10
0
 20
0
 30
0
  9
$UCSORGRIGHT
 10
0
 20
0
 30
0
  9
$UCSORGFRONT
 10
0
 20
0
 30
0
  9
$UCSORGBACK
 10
0
 20
0
 30
0
  9
$PUCSBASE
  2

  9
$PUCSNAME
  2

  9
$PUCSORG
 10
0
 20
0
 30
0
  9
$PUCSXDIR
 10
1
 20
0
 30
0
  9
$PUCSYDIR
 10
0
 20
1
 30
0
  9
$PUCSORTHOREF
  2

  9
$PUCSORTHOVIEW
 70
    0
  9
$PUCSORGTOP
 10
0
 20
0
 30
0
  9
$PUCSORGBOTTOM
 10
0
 20
0
 30
0
  9
$PUCSORGLEFT
 10
0
 20
0
 30
0
  9
$PUCSORGRIGHT
 10
0
 20
0
 30
0
  9
$PUCSORGFRONT
 10
0
 20
0
 30
0
  9
$PUCSORGBACK
 10
0
 20
0
 30
0
  9
$USERI1
 70
    0
  9
$USERI2
 70
    0
  9
$USERI3
 70
    0
  9
$USERI4
 70
    0
  9
$USERI5
 70
    0
  9
$USERR1
 40
0
  9
$USERR2
 40
0
  9
$USERR3
 40
0
  9
$USERR4
 40
0
  9
$USERR5
 40
0
  9
$WORLDVIEW
 70
    1
  9
$SHADEDGE
 70
    3
  9
$SHADEDIF
 70
   70
  9
$TILEMODE
 70
    1
  9
$MAXACTVP
 70
   64
  9
$PINSBASE
 10
0
 20
0
 30
0
  9
$PLIMCHECK
 70
    0
  9
$PEXTMIN
 10
0
 20
0
 30
0
  9
$PEXTMAX
 10
0
 20
0
 30
0
  9
$GRIDMODE
 70
    1
  9
$SNAPSTYLE
 70
    0
  9
$PLIMMIN
 10
0
 20
0
  9
$PLIMMAX
 10
297
 20
210
  9
$UNITMODE
 70
    0
  9
$VISRETAIN
 70
    1
  9
$PLINEGEN
 70
    0
  9
$PSLTSCALE
 70
    1
  9
$TREEDEPTH
 70
 3020
  9
$CMLSTYLE
  2
Standard
  9
$CMLJUST
 70
    0
  9
$CMLSCALE
 40
20
  9
$PROXYGRAPHICS
 70
    1
  9
$MEASUREMENT
 70
    1
  9
$CELWEIGHT
370
   -1
  9
$ENDCAPS
280
    0
  9
$JOINSTYLE
280
    0
  9
$LWDISPLAY
290
    0
  9
$INSUNITS
 70
    4
  9
$HYPERLINKBASE
  1

  9
$STYLESHEET
  1

  9
$XEDIT
290
    1
  9
$CEPSNTYPE
380
    0
  9
$PSTYLEMODE
290
    1
  9
$EXTNAMES
290
    1
  9
$PSVPSCALE
 40
1
  9
$OLESTARTUP
290
    0
  9
$SORTENTS
280
  127
  9
$INDEXCTL
280
    0
  9
$HIDETEXT
280
    1
  9
$XCLIPFRAME
290
    0
  9
$HALOGAP
280
    0
  9
$OBSCOLOR
 70
  257
  9
$OBSLTYPE
280
    0
  9
$INTERSECTIONDISPLAY
280
    0
  9
$INTERSECTIONCOLOR
 70
  257
  9
$DIMASSOC
280
    1
  9
$PROJECTNAME
  1

  9
$CAMERADISPLAY
290
    0
  9
$LENSLENGTH
 40
50
  9
$CAMERAHEIGHT
 40
0
  9
$STEPSPERSEC
 40
2
  9
$STEPSIZE
 40
50
  9
$3DDWFPREC
 40
2
  9
$PSOLWIDTH
 40
5
  9
$PSOLHEIGHT
 40
80
  9
$LOFTANG1
 40
1.570796326794897
  9
$LOFTANG2
 40
1.570796326794897
  9
$LOFTMAG1
 40
0
  9
$LOFTMAG2
 40
0
  9
$LOFTPARAM
 70
    7
  9
$LOFTNORMALS
280
    1
  9
$LATITUDE
 40
1
  9
$LONGITUDE
 40
1
  9
$NORTHDIRECTION
 40
0
  9
$TIMEZONE
 70
-8000
  9
$LIGHTGLYPHDISPLAY
280
    1
  9
$TILEMODELIGHTSYNCH
280
    1
  9
$SOLIDHIST
280
    1
  9
$SHOWHIST
280
    1
  9
$DWFFRAME
280
    2
  9
$DGNFRAME
280
    0
  9
$REALWORLDSCALE
290
    1
  9
$INTERFERECOLOR
 62
    1
  9
$CSHADOW
280
    0
  9
$SHADOWPLANELOCATION
 40
0
  0
ENDSEC
  0
SECTION
  2
CLASSES
  0
ENDSEC
  0
SECTION
  2
TABLES
  0
TABLE
  2
VPORT
  5
8
330
0
100
AcDbSymbolTable
 70
    1
  0
VPORT
  5
31
330
2
100
AcDbSymbolTableRecord
100
AcDbViewportTableRecord
  2
*ACTIVE
 70
    0
 10
0
 20
0
 11
1
 21
1
 12
444.9107552061477
 22
369.7391934227907
 13
0
 23
0
 14
10
 24
10
 15
10
 25
10
 16
0
 26
0
 36
1
 17
0
 27
0
 37
0
 40
1435.25237730549
 41
1.669914738124239
 42
50
 43
0
 44
0
 50
0
 51
0
 71
    0
 72
  100
 73
    1
 74
    3
 75
    0
 76
    1
 77
    0
 78
    0
281
    0
 65
    1
110
0
120
0
130
0
111
1
121
0
131
0
112
0
122
1
132
0
 79
    0
146
0
348
10020
 60
    7
 61
    5
292
1
282
    1
141
0
142
0
 63
  250
421
3358443
  0
ENDTAB
  0
TABLE
  2
LTYPE
  5
5
330
0
100
AcDbSymbolTable
 70
    4
  0
LTYPE
  5
14
330
5
100
AcDbSymbolTableRecord
100
AcDbLinetypeTableRecord
  2
ByBlock
 70
    0
  3

 72
   65
 73
    0
 40
0
  0
LTYPE
  5
15
330
5
100
AcDbSymbolTableRecord
100
AcDbLinetypeTableRecord
  2
ByLayer
 70
    0
  3

 72
   65
 73
    0
 40
0
  0
LTYPE
  5
16
330
5
100
AcDbSymbolTableRecord
100
AcDbLinetypeTableRecord
  2
Continuous
 70
    0
  3
Solid line
 72
   65
 73
    0
 40
0
  0
LTYPE
  5
32
330
5
100
AcDbSymbolTableRecord
100
AcDbLinetypeTableRecord
  2
DOT
 70
    0
  3
Dot . . . . . . . . . . . . . . . . . . . . . .
 72
   65
 73
    2
 40
6.35
 49
0
 74
    0
 49
-6.35
 74
    0
  0
LTYPE
  5
33
330
5
100
AcDbSymbolTableRecord
100
AcDbLinetypeTableRecord
  2
DOTTINY
 70
    0
  3
Dot (.15x) .....................................
 72
   65
 73
    2
 40
0.9525
 49
0
 74
    0
 49
-0.9525
 74
    0
  0
LTYPE
  5
34
330
5
100
AcDbSymbolTableRecord
100
AcDbLinetypeTableRecord
  2
DOT2
 70
    0
  3
Dot (.5x) .....................................
 72
   65
 73
    2
 40
3.175
 49
0
 74
    0
 49
-3.175
 74
    0
  0
LTYPE
  5
35
330
5
100
AcDbSymbolTableRecord
100
AcDbLinetypeTableRecord
  2
DOTX2
 70
    0
  3
Dot (2x) .  .  .  .  .  .  .  .  .  .  .  .  .
 72
   65
 73
    2
 40
12.7
 49
0
 74
    0
 49
-12.7
 74
    0
  0
LTYPE
  5
36
330
5
100
AcDbSymbolTableRecord
100
AcDbLinetypeTableRecord
  2
DASHED
 70
    0
  3
Dashed _ _ _ _ _ _ _ _ _ _ _ _ _ _ _ _ _
 72
   65
 73
    2
 40
19.05
 49
12.7
 74
    0
 49
-6.35
 74
    0
  0
LTYPE
  5
37
330
5
100
AcDbSymbolTableRecord
100
AcDbLinetypeTableRecord
  2
DASHEDTINY
 70
    0
  3
Dashed (.15x) _ _ _ _ _ _ _ _ _ _ _ _ _ _ _ _ _
 72
   65
 73
    2
 40
2.8575
 49
1.905
 74
    0
 49
-0.9525
 74
    0
  0
LTYPE
  5
38
330
5
100
AcDbSymbolTableRecord
100
AcDbLinetypeTableRecord
  2
DASHED2
 70
    0
  3
Dashed (.5x) _ _ _ _ _ _ _ _ _ _ _ _ _ _ _ _ _
 72
   65
 73
    2
 40
9.524999999999999
 49
6.35
 74
    0
 49
-3.175
 74
    0
  0
LTYPE
  5
39
330
5
100
AcDbSymbolTableRecord
100
AcDbLinetypeTableRecord
  2
DASHEDX2
 70
    0
  3
Dashed (2x) ____  ____  ____  ____  ____  ___
 72
   65
 73
    2
 40
38.09999999999999
 49
25.4
 74
    0
 49
-12.7
 74
    0
  0
LTYPE
  5
3A
330
5
100
AcDbSymbolTableRecord
100
AcDbLinetypeTableRecord
  2
DASHDOT
 70
    0
  3
Dash dot __ . __ . __ . __ . __ . __ . __ . __
 72
   65
 73
    4
 40
25.4
 49
12.7
 74
    0
 49
-6.35
 74
    0
 49
0
 74
    0
 49
-6.35
 74
    0
  0
LTYPE
  5
3B
330
5
100
AcDbSymbolTableRecord
100
AcDbLinetypeTableRecord
  2
DASHDOTTINY
 70
    0
  3
Dash dot (.15x) _._._._._._._._._._._._._._._.
 72
   65
 73
    4
 40
3.81
 49
1.905
 74
    0
 49
-0.9525
 74
    0
 49
0
 74
    0
 49
-0.9525
 74
    0
  0
LTYPE
  5
3C
330
5
100
AcDbSymbolTableRecord
100
AcDbLinetypeTableRecord
  2
DASHDOT2
 70
    0
  3
Dash dot (.5x) _._._._._._._._._._._._._._._.
 72
   65
 73
    4
 40
12.7
 49
6.35
 74
    0
 49
-3.175
 74
    0
 49
0
 74
    0
 49
-3.175
 74
    0
  0
LTYPE
  5
3D
330
5
100
AcDbSymbolTableRecord
100
AcDbLinetypeTableRecord
  2
DASHDOTX2
 70
    0
  3
Dash dot (2x) ____  .  ____  .  ____  .  ___
 72
   65
 73
    4
 40
50.8
 49
25.4
 74
    0
 49
-12.7
 74
    0
 49
0
 74
    0
 49
-12.7
 74
    0
  0
LTYPE
  5
3E
330
5
100
AcDbSymbolTableRecord
100
AcDbLinetypeTableRecord
  2
DIVIDE
 70
    0
  3
Divide ____ . . ____ . . ____ . . ____ . . ____
 72
   65
 73
    6
 40
31.75
 49
12.7
 74
    0
 49
-6.35
 74
    0
 49
0
 74
    0
 49
-6.35
 74
    0
 49
0
 74
    0
 49
-6.35
 74
    0
  0
LTYPE
  5
3F
330
5
100
AcDbSymbolTableRecord
100
AcDbLinetypeTableRecord
  2
DIVIDETINY
 70
    0
  3
Divide (.15x) __..__..__..__..__..__..__..__.._
 72
   65
 73
    6
 40
4.7625
 49
1.905
 74
    0
 49
-0.9525
 74
    0
 49
0
 74
    0
 49
-0.9525
 74
    0
 49
0
 74
    0
 49
-0.9525
 74
    0
  0
LTYPE
  5
40
330
5
100
AcDbSymbolTableRecord
100
AcDbLinetypeTableRecord
  2
DIVIDE2
 70
    0
  3
Divide (.5x) __..__..__..__..__..__..__..__.._
 72
   65
 73
    6
 40
15.875
 49
6.35
 74
    0
 49
-3.175
 74
    0
 49
0
 74
    0
 49
-3.175
 74
    0
 49
0
 74
    0
 49
-3.175
 74
    0
  0
LTYPE
  5
41
330
5
100
AcDbSymbolTableRecord
100
AcDbLinetypeTableRecord
  2
DIVIDEX2
 70
    0
  3
Divide (2x) ________  .  .  ________  .  .  _
 72
   65
 73
    6
 40
63.5
 49
25.4
 74
    0
 49
-12.7
 74
    0
 49
0
 74
    0
 49
-12.7
 74
    0
 49
0
 74
    0
 49
-12.7
 74
    0
  0
LTYPE
  5
42
330
5
100
AcDbSymbolTableRecord
100
AcDbLinetypeTableRecord
  2
BORDER
 70
    0
  3
Border __ __ . __ __ . __ __ . __ __ . __ __ .
 72
   65
 73
    6
 40
44.45
 49
12.7
 74
    0
 49
-6.35
 74
    0
 49
12.7
 74
    0
 49
-6.35
 74
    0
 49
0
 74
    0
 49
-6.35
 74
    0
  0
LTYPE
  5
43
330
5
100
AcDbSymbolTableRecord
100
AcDbLinetypeTableRecord
  2
BORDERTINY
 70
    0
  3
Border (.15x) __.__.__.__.__.__.__.__.__.__.__.
 72
   65
 73
    6
 40
6.6675
 49
1.905
 74
    0
 49
-0.9525
 74
    0
 49
1.905
 74
    0
 49
-0.9525
 74
    0
 49
0
 74
    0
 49
-0.9525
 74
    0
  0
LTYPE
  5
44
330
5
100
AcDbSymbolTableRecord
100
AcDbLinetypeTableRecord
  2
BORDER2
 70
    0
  3
Border (.5x) __.__.__.__.__.__.__.__.__.__.__.
 72
   65
 73
    6
 40
22.225
 49
6.35
 74
    0
 49
-3.175
 74
    0
 49
6.35
 74
    0
 49
-3.175
 74
    0
 49
0
 74
    0
 49
-3.175
 74
    0
  0
LTYPE
  5
45
330
5
100
AcDbSymbolTableRecord
100
AcDbLinetypeTableRecord
  2
BORDERX2
 70
    0
  3
Border (2x) ____  ____  .  ____  ____  .  ___
 72
   65
 73
    6
 40
88.89999999999999
 49
25.4
 74
    0
 49
-12.7
 74
    0
 49
25.4
 74
    0
 49
-12.7
 74
    0
 49
0
 74
    0
 49
-12.7
 74
    0
  0
LTYPE
  5
46
330
5
100
AcDbSymbolTableRecord
100
AcDbLinetypeTableRecord
  2
CENTER
 70
    0
  3
Center ____ _ ____ _ ____ _ ____ _ ____ _ ____
 72
   65
 73
    4
 40
50.8
 49
31.75
 74
    0
 49
-6.35
 74
    0
 49
6.35
 74
    0
 49
-6.35
 74
    0
  0
LTYPE
  5
47
330
5
100
AcDbSymbolTableRecord
100
AcDbLinetypeTableRecord
  2
CENTERTINY
 70
    0
  3
Center (.15x) ___ _ ___ _ ___ _ ___ _ ___ _ ___
 72
   65
 73
    4
 40
7.619999999999999
 49
4.7625
 74
    0
 49
-0.9525
 74
    0
 49
0.9525
 74
    0
 49
-0.9525
 74
    0
  0
LTYPE
  5
48
330
5
100
AcDbSymbolTableRecord
100
AcDbLinetypeTableRecord
  2
CENTER2
 70
    0
  3
Center (.5x) ___ _ ___ _ ___ _ ___ _ ___ _ ___
 72
   65
 73
    4
 40
28.575
 49
19.05
 74
    0
 49
-3.175
 74
    0
 49
3.175
 74
    0
 49
-3.175
 74
    0
  0
LTYPE
  5
49
330
5
100
AcDbSymbolTableRecord
100
AcDbLinetypeTableRecord
  2
CENTERX2
 70
    0
  3
Center (2x) ________  __  ________  __  _____
 72
   65
 73
    4
 40
101.6
 49
63.5
 74
    0
 49
-12.7
 74
    0
 49
12.7
 74
    0
 49
-12.7
 74
    0
  0
ENDTAB
  0
TABLE
  2
LAYER
  5
2
330
0
100
AcDbSymbolTable
 70
    1
  0
LAYER
  5
10
330
2
100
AcDbSymbolTableRecord
100
AcDbLayerTableRecord
  2
0
 70
    5
 62
    7
  6
CONTINUOUS
370
    0
390
F
  0
LAYER
  5
4A
330
2
100
AcDbSymbolTableRecord
100
AcDbLayerTableRecord
  2
20x40 profile
 70
    4
 62
    7
  6
CONTINUOUS
370
    0
390
F
  0
LAYER
  5
4B
330
2
100
AcDbSymbolTableRecord
100
AcDbLayerTableRecord
  2
Flange bearing
 70
    4
 62
    7
  6
CONTINUOUS
370
    0
390
F
  0
LAYER
  5
4C
330
2
100
AcDbSymbolTableRecord
100
AcDbLayerTableRecord
  2
Horizontal plate
 70
    4
 62
    7
  6
CONTINUOUS
370
    0
390
F
  0
LAYER
  5
4D
330
2
100
AcDbSymbolTableRecord
100
AcDbLayerTableRecord
  2
Horizontal plate with stepper
 70
    4
 62
    7
  6
CONTINUOUS
370
    0
390
F
  0
LAYER
  5
4E
330
2
100
AcDbSymbolTableRecord
100
AcDbLayerTableRecord
  2
Linear bearings
 70
    4
 62
    7
  6
CONTINUOUS
370
    0
390
F
  0
LAYER
  5
4F
330
2
100
AcDbSymbolTableRecord
100
AcDbLayerTableRecord
  2
Motor
 70
    0
 62
    7
  6
CONTINUOUS
370
    0
390
F
  0
LAYER
  5
50
330
2
100
AcDbSymbolTableRecord
100
AcDbLayerTableRecord
  2
Nut
 70
    4
 62
    7
  6
CONTINUOUS
370
    0
390
F
  0
LAYER
  5
51
330
2
100
AcDbSymbolTableRecord
100
AcDbLayerTableRecord
  2
Pulleys
 70
    4
 62
    7
  6
CONTINUOUS
370
    0
390
F
  0
LAYER
  5
52
330
2
100
AcDbSymbolTableRecord
100
AcDbLayerTableRecord
  2
Shaft holders
 70
    4
 62
    7
  6
CONTINUOUS
370
    0
390
F
  0
LAYER
  5
53
330
2
100
AcDbSymbolTableRecord
100
AcDbLayerTableRecord
  2
Spacers
 70
    5
 62
    7
  6
CONTINUOUS
370
    0
390
F
  0
LAYER
  5
54
330
2
100
AcDbSymbolTableRecord
100
AcDbLayerTableRecord
  2
Vertical plate
 70
    4
 62
    7
  6
CONTINUOUS
370
    0
390
F
  0
LAYER
  5
55
330
2
100
AcDbSymbolTableRecord
100
AcDbLayerTableRecord
  2
X
 70
    0
 62
    7
  6
CONTINUOUS
370
    0
390
F
  0
ENDTAB
  0
TABLE
  2
STYLE
  5
3
330
0
100
AcDbSymbolTable
 70
    3
  0
STYLE
  5
56
330
2
100
AcDbSymbolTableRecord
100
AcDbTextStyleTableRecord
  2
standard
 70
    0
 40
0
 41
1
 50
0
 71
    0
 42
1
  3
standard
  4

  0
ENDTAB
  0
TABLE
  2
VIEW
  5
6
330
0
100
AcDbSymbolTable
 70
    0
  0
ENDTAB
  0
TABLE
  2
UCS
  5
7
330
0
100
AcDbSymbolTable
 70
    0
  0
ENDTAB
  0
TABLE
  2
APPID
  5
9
330
0
100
AcDbSymbolTable
 70
    1
  0
APPID
  5
12
330
9
100
AcDbSymbolTableRecord
100
AcDbRegAppTableRecord
  2
ACAD
 70
    0
  0
APPID
  5
57
330
9
100
AcDbSymbolTableRecord
100
AcDbRegAppTableRecord
  2
LibreCad
 70
    0
  0
ENDTAB
  0
TABLE
  2
DIMSTYLE
  5
A
330
0
100
AcDbSymbolTable
 70
    1
100
AcDbDimStyleTable
 71
    1
  0
DIMSTYLE
105
58
330
A
100
AcDbSymbolTableRecord
100
AcDbDimStyleTableRecord
  2
Standard
 70
    0
 40
2.5
 41
2.5
 42
0.625
 43
0.38
 44
1.25
 45
0
 46
0
 47
0
 48
0
 49
1
140
2.5
141
0.09
142
0
143
25.4
144
1
145
0
146
1
147
0.625
148
0
 71
    0
 72
    0
 73
    0
 74
    1
 75
    0
 76
    0
 77
    0
 78
    8
 79
    0
170
    0
171
    2
172
    0
173
    0
174
    0
175
    0
176
    0
177
    0
178
    0
179
    0
271
    2
272
    4
273
    2
274
    2
275
    0
276
    0
277
    2
278
   44
279
    0
280
    0
281
    0
282
    0
283
    1
284
    0
285
    0
286
    0
288
    0
289
    3
340
STANDARD
341

371
   -2
372
   -2
  0
ENDTAB
  0
TABLE
  2
BLOCK_RECORD
  5
1
330
0
100
AcDbSymbolTable
 70
    2
  0
BLOCK_RECORD
  5
1F
330
1
100
AcDbSymbolTableRecord
100
AcDbBlockTableRecord
  2
*Model_Space
 70
    0
280
    1
281
    0
  0
BLOCK_RECORD
  5
1E
330
1
100
AcDbSymbolTableRecord
100
AcDbBlockTableRecord
  2
*Paper_Space
 70
    0
280
    1
281
    0
  0
BLOCK_RECORD
  5
59
330
1
100
AcDbSymbolTableRecord
100
AcDbBlockTableRecord
  2
*D2
 70
    0
280
    1
281
    0
  0
BLOCK_RECORD
  5
5C
330
1
100
AcDbSymbolTableRecord
100
AcDbBlockTableRecord
  2
*D1
 70
    0
280
    1
281
    0
  0
ENDTAB
  0
ENDSEC
  0
SECTION
  2
BLOCKS
  0
BLOCK
  5
20
330
1F
100
AcDbEntity
  8
0
100
AcDbBlockBegin
  2
*Model_Space
 70
    0
 10
0
 20
0
 30
0
  3
*Model_Space
  1

  0
ENDBLK
  5
21
330
1F
100
AcDbEntity
  8
0
100
AcDbBlockEnd
  0
BLOCK
  5
1C
330
1B
100
AcDbEntity
  8
0
100
AcDbBlockBegin
  2
*Paper_Space
 70
    0
 10
0
 20
0
 30
0
  3
*Paper_Space
  1

  0
ENDBLK
  5
1D
330
1F
100
AcDbEntity
  8
0
100
AcDbBlockEnd
  0
BLOCK
  5
5A
330
59
100
AcDbEntity
  8
0
100
AcDbBlockBegin
  2
*D2
 70
    1
 10
0
 20
0
  3
*D2
  1

  0
LINE
  5
5F
100
AcDbEntity
  8
X
  6
CONTINUOUS
 62
    7
370
    0
100
AcDbLine
 10
360
 20
-300
 11
390
 21
-270
  0
LINE
  5
60
100
AcDbEntity
  8
X
  6
CONTINUOUS
 62
    7
370
    0
100
AcDbLine
 10
390
 20
-270
 11
394
 21
-260
  0
SOLID
  5
61
100
AcDbEntity
  8
X
  6
CONTINUOUS
 62
    7
370
    0
100
AcDbTrace
 10
360
 20
-300
 30
0
 11
363.6835231213782
 21
-294.8446883565463
 31
0
 12
365.1553116434537
 22
-296.3164768786218
 32
0
 13
365.1553116434537
 23
-296.3164768786218
 33
0
  0
ENDBLK
  5
5B
330
59
100
AcDbEntity
  8
0
100
AcDbBlockEnd
  0
BLOCK
  5
5D
330
5C
100
AcDbEntity
  8
0
100
AcDbBlockBegin
  2
*D1
 70
    1
 10
0
 20
0
  3
*D1
  1

  0
LINE
  5
62
100
AcDbEntity
  8
X
  6
CONTINUOUS
 62
    7
370
    0
100
AcDbLine
 10
370
 20
-210
 11
390
 21
-220
  0
LINE
  5
63
100
AcDbEntity
  8
X
  6
CONTINUOUS
 62
    7
370
    0
100
AcDbLine
 10
390
 20
-220
 11
394
 21
-239
  0
SOLID
  5
64
100
AcDbEntity
  8
X
  6
CONTINUOUS
 62
    7
370
    0
100
AcDbTrace
 10
370
 20
-210
 30
0
 11
376.0555903401346
 21
-211.8642441791044
 31
0
 12
375.1247495473643
 22
-213.725925764645
 32
0
 13
375.1247495473643
 23
-213.725925764645
 33
0
  0
ENDBLK
  5
5E
330
5C
100
AcDbEntity
  8
0
100
AcDbBlockEnd
  0
ENDSEC
  0
SECTION
  2
ENTITIES
  0
LINE
  5
65
100
AcDbEntity
  8
Spacers
  6
ByLayer
 62
  256
370
   -1
100
AcDbLine
 10
36.5
 20
-1.5
 11
43.5
 21
-1.5
  0
LINE
  5
66
100
AcDbEntity
  8
Spacers
  6
ByLayer
 62
  256
370
   -1
100
AcDbLine
 10
56.5
 20
-1.5
 11
63.5
 21
-1.500000000000001
  0
CIRCLE
  5
67
100
AcDbEntity
  8
Flange bearing
  6
ByLayer
 62
  256
370
   -1
100
AcDbCircle
 10
50
 20
5
 40
17
  0
LINE
  5
68
100
AcDbEntity
  8
Flange bearing
  6
ByLayer
 62
  256
370
   -1
100
AcDbLine
 10
20
 20
8
 11
20
 21
2
  0
LINE
  5
69
100
AcDbEntity
  8
Flange bearing
  6
ByLayer
 62
  256
370
   -1
100
AcDbLine
 10
80
 20
8
 11
80
 21
2
  0
LINE
  5
6A
100
AcDbEntity
  8
Flange bearing
  6
ByLayer
 62
  256
370
   -1
100
AcDbLine
 10
40.74376870761756
 20
20.43768707617563
 11
20
 21
8
  0
LINE
  5
6B
100
AcDbEntity
  8
Flange bearing
  6
ByLayer
 62
  256
370
   -1
100
AcDbLine
 10
59.25623129238244
 20
20.43768707617563
 11
80
 21
8
  0
LINE
  5
6C
100
AcDbEntity
  8
Flange bearing
  6
ByLayer
 62
  256
370
   -1
100
AcDbLine
 10
40.74376870761756
 20
-10.43768707617564
 11
20
 21
2
  0
LINE
  5
6D
100
AcDbEntity
  8
Flange bearing
  6
ByLayer
 62
  256
370
   -1
100
AcDbLine
 10
59.25623129238244
 20
-10.43768707617564
 11
80
 21
2
  0
ARC
  5
6E
100
AcDbEntity
  8
Flange bearing
  6
ByLayer
 62
  256
370
   -1
100
AcDbCircle
 10
50
 20
5
 40
18
100
AcDbArc
 50
59.05366018301763
 51
120.9463398169824
  0
ARC
  5
6F
100
AcDbEntity
  8
Flange bearing
  6
ByLayer
 62
  256
370
   -1
100
AcDbCircle
 10
50
 20
5
 40
18
100
AcDbArc
 50
239.0536601830176
 51
300.9463398169824
  0
CIRCLE
  5
70
100
AcDbEntity
  8
Flange bearing
  6
ByLayer
 62
  256
370
   -1
100
AcDbCircle
 10
50
 20
5
 40
5
  0
CIRCLE
  5
71
100
AcDbEntity
  8
Flange bearing
  6
ByLayer
 62
  256
370
   -1
100
AcDbCircle
 10
27.5
 20
5
 40
3.5
  0
CIRCLE
  5
72
100
AcDbEntity
  8
Flange bearing
  6
ByLayer
 62
  256
370
   -1
100
AcDbCircle
 10
72.5
 20
5
 40
3.5
  0
CIRCLE
  5
73
100
AcDbEntity
  8
Horizontal plate
  6
ByLayer
 62
  256
370
   -1
100
AcDbCircle
 10
27.5
 20
5
 40
3.5
  0
CIRCLE
  5
74
100
AcDbEntity
  8
Horizontal plate
  6
ByLayer
 62
  256
370
   -1
100
AcDbCircle
 10
72.5
 20
5
 40
3.5
  0
LINE
  5
75
100
AcDbEntity
  8
Spacers
  6
ByLayer
 62
  256
370
   -1
100
AcDbLine
 10
36.5
 20
-16.5
 11
36.5
 21
-1.5
  0
LINE
  5
76
100
AcDbEntity
  8
Spacers
  6
ByLayer
 62
  256
370
   -1
100
AcDbLine
 10
43.5
 20
-1.5
 11
43.5
 21
-16.5
  0
LINE
  5
77
100
AcDbEntity
  8
Spacers
  6
ByLayer
 62
  256
370
   -1
100
AcDbLine
 10
56.5
 20
-16.5
 11
56.5
 21
-1.5
  0
LINE
  5
78
100
AcDbEntity
  8
Spacers
  6
ByLayer
 62
  256
370
   -1
100
AcDbLine
 10
63.5
 20
-1.5
 11
63.5
 21
-16.5
  0
CIRCLE
  5
79
100
AcDbEntity
  8
Nut
  6
ByLayer
 62
  256
370
   -1
100
AcDbCircle
 10
50
 20
5
 40
5
  0
LINE
  5
7A
100
AcDbEntity
  8
Nut
  6
ByLayer
 62
  256
370
   -1
100
AcDbLine
 10
32
 20
11.5
 11
68
 21
11.5
  0
LINE
  5
7B
100
AcDbEntity
  8
Nut
  6
ByLayer
 62
  256
370
   -1
100
AcDbLine
 10
68
 20
11.5
 11
68
 21
-1.5
  0
LINE
  5
7C
100
AcDbEntity
  8
Nut
  6
ByLayer
 62
  256
370
   -1
100
AcDbLine
 10
32
 20
-1.5
 11
32
 21
11.5
  0
LINE
  5
7D
100
AcDbEntity
  8
Nut
  6
ByLayer
 62
  256
370
   -1
100
AcDbLine
 10
68
 20
-1.500000000000001
 11
32
 21
-1.499999999999999
  0
CIRCLE
  5
7E
100
AcDbEntity
  8
Horizontal plate with stepper
  6
ByLayer
 62
  256
370
   -1
100
AcDbCircle
 10
27.5
 20
-220
 40
3.5
  0
CIRCLE
  5
7F
100
AcDbEntity
  8
Horizontal plate with stepper
  6
ByLayer
 62
  256
370
   -1
100
AcDbCircle
 10
72.5
 20
-220
 40
3.5
  0
CIRCLE
  5
80
100
AcDbEntity
  8
Horizontal plate with stepper
  6
ByLayer
 62
  256
370
   -1
100
AcDbCircle
 10
50
 20
-220
 40
17.2
  0
LINE
  5
81
100
AcDbEntity
  8
Vertical plate
  6
ByLayer
 62
  256
370
   -1
100
AcDbLine
 10
-26
 20
-190
 11
-26
 21
-30
  0
CIRCLE
  5
82
100
AcDbEntity
  8
Vertical plate
  6
ByLayer
 62
  256
370
   -1
100
AcDbCircle
 10
8
 20
-57.5
 40
2.600000000000001
  0
CIRCLE
  5
83
100
AcDbEntity
  8
Vertical plate
  6
ByLayer
 62
  256
370
   -1
100
AcDbCircle
 10
8
 20
-78.5
 40
2.601922366251546
  0
CIRCLE
  5
84
100
AcDbEntity
  8
Vertical plate
  6
ByLayer
 62
  256
370
   -1
100
AcDbCircle
 10
-20
 20
-57.5
 40
2.600000000000001
  0
CIRCLE
  5
85
100
AcDbEntity
  8
Vertical plate
  6
ByLayer
 62
  256
370
   -1
100
AcDbCircle
 10
-20
 20
-78.5
 40
2.600000000000009
  0
CIRCLE
  5
86
100
AcDbEntity
  8
Vertical plate
  6
ByLayer
 62
  256
370
   -1
100
AcDbCircle
 10
8
 20
-99.5
 40
2.600000000000001
  0
CIRCLE
  5
87
100
AcDbEntity
  8
Vertical plate
  6
ByLayer
 62
  256
370
   -1
100
AcDbCircle
 10
8
 20
-120.5
 40
2.601922366251546
  0
CIRCLE
  5
88
100
AcDbEntity
  8
Vertical plate
  6
ByLayer
 62
  256
370
   -1
100
AcDbCircle
 10
-20
 20
-99.5
 40
2.600000000000001
  0
CIRCLE
  5
89
100
AcDbEntity
  8
Vertical plate
  6
ByLayer
 62
  256
370
   -1
100
AcDbCircle
 10
-20
 20
-120.5
 40
2.600000000000009
  0
CIRCLE
  5
8A
100
AcDbEntity
  8
Vertical plate
  6
ByLayer
 62
  256
370
   -1
100
AcDbCircle
 10
8
 20
-162.5
 40
2.600000000000001
  0
CIRCLE
  5
8B
100
AcDbEntity
  8
Vertical plate
  6
ByLayer
 62
  256
370
   -1
100
AcDbCircle
 10
8
 20
-141.5
 40
2.601922366251546
  0
CIRCLE
  5
8C
100
AcDbEntity
  8
Vertical plate
  6
ByLayer
 62
  256
370
   -1
100
AcDbCircle
 10
-20
 20
-162.5
 40
2.600000000000001
  0
CIRCLE
  5
8D
100
AcDbEntity
  8
Vertical plate
  6
ByLayer
 62
  256
370
   -1
100
AcDbCircle
 10
-20
 20
-141.5
 40
2.600000000000009
  0
CIRCLE
  5
8E
100
AcDbEntity
  8
Vertical plate
  6
ByLayer
 62
  256
370
   -1
100
AcDbCircle
 10
8
 20
-183.5
 40
2.601922366251546
  0
CIRCLE
  5
8F
100
AcDbEntity
  8
Vertical plate
  6
ByLayer
 62
  256
370
   -1
100
AcDbCircle
 10
-20
 20
-183.5
 40
2.600000000000009
  0
CIRCLE
  5
90
100
AcDbEntity
  8
Vertical plate
  6
ByLayer
 62
  256
370
   -1
100
AcDbCircle
 10
8
 20
-36.5
 40
2.600000000000001
  0
CIRCLE
  5
91
100
AcDbEntity
  8
Vertical plate
  6
ByLayer
 62
  256
370
   -1
100
AcDbCircle
 10
-20
 20
-36.5
 40
2.600000000000001
  0
LINE
  5
92
100
AcDbEntity
  8
Vertical plate
  6
ByLayer
 62
  256
370
   -1
100
AcDbLine
 10
126
 20
-30
 11
126
 21
-190
  0
CIRCLE
  5
93
100
AcDbEntity
  8
Vertical plate
  6
ByLayer
 62
  256
370
   -1
100
AcDbCircle
 10
92
 20
-57.5
 40
2.600000000000001
  0
CIRCLE
  5
94
100
AcDbEntity
  8
Vertical plate
  6
ByLayer
 62
  256
370
   -1
100
AcDbCircle
 10
92
 20
-78.5
 40
2.601922366251546
  0
CIRCLE
  5
95
100
AcDbEntity
  8
Vertical plate
  6
ByLayer
 62
  256
370
   -1
100
AcDbCircle
 10
120
 20
-57.5
 40
2.600000000000001
  0
CIRCLE
  5
96
100
AcDbEntity
  8
Vertical plate
  6
ByLayer
 62
  256
370
   -1
100
AcDbCircle
 10
120
 20
-78.5
 40
2.600000000000009
  0
CIRCLE
  5
97
100
AcDbEntity
  8
Vertical plate
  6
ByLayer
 62
  256
370
   -1
100
AcDbCircle
 10
92
 20
-99.5
 40
2.600000000000001
  0
CIRCLE
  5
98
100
AcDbEntity
  8
Vertical plate
  6
ByLayer
 62
  256
370
   -1
100
AcDbCircle
 10
92
 20
-120.5
 40
2.601922366251546
  0
CIRCLE
  5
99
100
AcDbEntity
  8
Vertical plate
  6
ByLayer
 62
  256
370
   -1
100
AcDbCircle
 10
120
 20
-99.5
 40
2.600000000000001
  0
CIRCLE
  5
9A
100
AcDbEntity
  8
Vertical plate
  6
ByLayer
 62
  256
370
   -1
100
AcDbCircle
 10
120
 20
-120.5
 40
2.600000000000009
  0
CIRCLE
  5
9B
100
AcDbEntity
  8
Vertical plate
  6
ByLayer
 62
  256
370
   -1
100
AcDbCircle
 10
92
 20
-162.5
 40
2.600000000000001
  0
CIRCLE
  5
9C
100
AcDbEntity
  8
Vertical plate
  6
ByLayer
 62
  256
370
   -1
100
AcDbCircle
 10
92
 20
-141.5
 40
2.601922366251546
  0
CIRCLE
  5
9D
100
AcDbEntity
  8
Vertical plate
  6
ByLayer
 62
  256
370
   -1
100
AcDbCircle
 10
120
 20
-162.5
 40
2.600000000000001
  0
CIRCLE
  5
9E
100
AcDbEntity
  8
Vertical plate
  6
ByLayer
 62
  256
370
   -1
100
AcDbCircle
 10
120
 20
-141.5
 40
2.600000000000009
  0
CIRCLE
  5
9F
100
AcDbEntity
  8
Vertical plate
  6
ByLayer
 62
  256
370
   -1
100
AcDbCircle
 10
92
 20
-183.5
 40
2.601922366251546
  0
CIRCLE
  5
A0
100
AcDbEntity
  8
Vertical plate
  6
ByLayer
 62
  256
370
   -1
100
AcDbCircle
 10
120
 20
-183.5
 40
2.600000000000009
  0
CIRCLE
  5
A1
100
AcDbEntity
  8
Vertical plate
  6
ByLayer
 62
  256
370
   -1
100
AcDbCircle
 10
92
 20
-36.5
 40
2.600000000000001
  0
CIRCLE
  5
A2
100
AcDbEntity
  8
Vertical plate
  6
ByLayer
 62
  256
370
   -1
100
AcDbCircle
 10
120
 20
-36.5
 40
2.600000000000001
  0
LINE
  5
A3
100
AcDbEntity
  8
Horizontal plate
  6
ByLayer
 62
  256
370
   -1
100
AcDbLine
 10
-29
 20
-15
 11
129
 21
-15
  0
LINE
  5
A4
100
AcDbEntity
  8
Horizontal plate with stepper
  6
ByLayer
 62
  256
370
   -1
100
AcDbLine
 10
-29
 20
-200
 11
129
 21
-200
  0
LINE
  5
A5
100
AcDbEntity
  8
Vertical plate
  6
ByLayer
 62
  256
370
   -1
100
AcDbLine
 10
126
 20
-190
 11
-26
 21
-190
  0
LINE
  5
A6
100
AcDbEntity
  8
Vertical plate
  6
ByLayer
 62
  256
370
   -1
100
AcDbLine
 10
-26
 20
-30
 11
126
 21
-30
  0
CIRCLE
  5
A7
100
AcDbEntity
  8
Linear bearings
  6
ByLayer
 62
  256
370
   -1
100
AcDbCircle
 10
-6
 20
-3.499999999999998
 40
5
  0
LINE
  5
A8
100
AcDbEntity
  8
Linear bearings
  6
ByLayer
 62
  256
370
   -1
100
AcDbLine
 10
1
 20
9.5
 11
-13
 21
9.5
  0
LINE
  5
A9
100
AcDbEntity
  8
Linear bearings
  6
ByLayer
 62
  256
370
   -1
100
AcDbLine
 10
-26
 20
-16.5
 11
14
 21
-16.5
  0
LINE
  5
AA
100
AcDbEntity
  8
Linear bearings
  6
ByLayer
 62
  256
370
   -1
100
AcDbLine
 10
-26
 20
4.5
 11
-17
 21
4.5
  0
LINE
  5
AB
100
AcDbEntity
  8
Linear bearings
  6
ByLayer
 62
  256
370
   -1
100
AcDbLine
 10
-17
 20
4.5
 11
-13
 21
9.5
  0
LINE
  5
AC
100
AcDbEntity
  8
Linear bearings
  6
ByLayer
 62
  256
370
   -1
100
AcDbLine
 10
14
 20
4.5
 11
5
 21
4.5
  0
LINE
  5
AD
100
AcDbEntity
  8
Linear bearings
  6
ByLayer
 62
  256
370
   -1
100
AcDbLine
 10
5
 20
4.5
 11
1
 21
9.5
  0
LINE
  5
AE
100
AcDbEntity
  8
Linear bearings
  6
ByLayer
 62
  256
370
   -1
100
AcDbLine
 10
-26
 20
4.5
 11
-26
 21
-16.5
  0
LINE
  5
AF
100
AcDbEntity
  8
Linear bearings
  6
ByLayer
 62
  256
370
   -1
100
AcDbLine
 10
14
 20
-16.5
 11
14
 21
4.5
  0
CIRCLE
  5
B0
100
AcDbEntity
  8
Linear bearings
  6
ByLayer
 62
  256
370
   -1
100
AcDbCircle
 10
106
 20
-3.500000000000004
 40
5
  0
LINE
  5
B1
100
AcDbEntity
  8
Linear bearings
  6
ByLayer
 62
  256
370
   -1
100
AcDbLine
 10
113
 20
9.499999999999996
 11
99
 21
9.499999999999996
  0
LINE
  5
B2
100
AcDbEntity
  8
Linear bearings
  6
ByLayer
 62
  256
370
   -1
100
AcDbLine
 10
86
 20
-16.5
 11
126
 21
-16.5
  0
LINE
  5
B3
100
AcDbEntity
  8
Linear bearings
  6
ByLayer
 62
  256
370
   -1
100
AcDbLine
 10
86
 20
4.499999999999996
 11
95
 21
4.499999999999996
  0
LINE
  5
B4
100
AcDbEntity
  8
Linear bearings
  6
ByLayer
 62
  256
370
   -1
100
AcDbLine
 10
95
 20
4.499999999999996
 11
99
 21
9.499999999999996
  0
LINE
  5
B5
100
AcDbEntity
  8
Linear bearings
  6
ByLayer
 62
  256
370
   -1
100
AcDbLine
 10
126
 20
4.499999999999996
 11
117
 21
4.499999999999996
  0
LINE
  5
B6
100
AcDbEntity
  8
Linear bearings
  6
ByLayer
 62
  256
370
   -1
100
AcDbLine
 10
117
 20
4.499999999999996
 11
113
 21
9.499999999999996
  0
LINE
  5
B7
100
AcDbEntity
  8
Linear bearings
  6
ByLayer
 62
  256
370
   -1
100
AcDbLine
 10
86
 20
4.499999999999996
 11
86
 21
-16.5
  0
LINE
  5
B8
100
AcDbEntity
  8
Linear bearings
  6
ByLayer
 62
  256
370
   -1
100
AcDbLine
 10
126
 20
-16.5
 11
126
 21
4.499999999999996
  0
CIRCLE
  5
B9
100
AcDbEntity
  8
Horizontal plate
  6
ByLayer
 62
  256
370
   -1
100
AcDbCircle
 10
-22
 20
-3.499999999999998
 40
2.25
  0
CIRCLE
  5
BA
100
AcDbEntity
  8
Horizontal plate
  6
ByLayer
 62
  256
370
   -1
100
AcDbCircle
 10
10
 20
-3.499999999999998
 40
2.25
  0
CIRCLE
  5
BB
100
AcDbEntity
  8
Horizontal plate
  6
ByLayer
 62
  256
370
   -1
100
AcDbCircle
 10
90
 20
-3.500000000000004
 40
2.25
  0
CIRCLE
  5
BC
100
AcDbEntity
  8
Horizontal plate
  6
ByLayer
 62
  256
370
   -1
100
AcDbCircle
 10
122
 20
-3.500000000000004
 40
2.25
  0
LINE
  5
BD
100
AcDbEntity
  8
Spacers
  6
ByLayer
 62
  256
370
   -1
100
AcDbLine
 10
36.5
 20
-16.5
 11
43.5
 21
-16.5
  0
LINE
  5
BE
100
AcDbEntity
  8
Spacers
  6
ByLayer
 62
  256
370
   -1
100
AcDbLine
 10
56.5
 20
-16.5
 11
63.5
 21
-16.5
  0
CIRCLE
  5
BF
100
AcDbEntity
  8
Shaft holders
  6
ByLayer
 62
  256
370
   -1
100
AcDbCircle
 10
-22
 20
-3.499999999999998
 40
2.25
  0
CIRCLE
  5
C0
100
AcDbEntity
  8
Shaft holders
  6
ByLayer
 62
  256
370
   -1
100
AcDbCircle
 10
10
 20
-3.499999999999998
 40
2.25
  0
CIRCLE
  5
C1
100
AcDbEntity
  8
Shaft holders
  6
ByLayer
 62
  256
370
   -1
100
AcDbCircle
 10
90
 20
-3.500000000000004
 40
2.25
  0
CIRCLE
  5
C2
100
AcDbEntity
  8
Shaft holders
  6
ByLayer
 62
  256
370
   -1
100
AcDbCircle
 10
122
 20
-3.500000000000004
 40
2.25
  0
CIRCLE
  5
C3
100
AcDbEntity
  8
Shaft holders
  6
ByLayer
 62
  256
370
   -1
100
AcDbCircle
 10
-6
 20
-3.499999999999998
 40
5
  0
LINE
  5
C4
100
AcDbEntity
  8
Shaft holders
  6
ByLayer
 62
  256
370
   -1
100
AcDbLine
 10
-8
 20
-13.5
 11
-4
 21
-13.5
  0
LINE
  5
C5
100
AcDbEntity
  8
Shaft holders
  6
ByLayer
 62
  256
370
   -1
100
AcDbLine
 10
11.59832392451931
 20
-8.237653494327041
 11
-4
 21
-13.5
  0
ARC
  5
C6
100
AcDbEntity
  8
Shaft holders
  6
ByLayer
 62
  256
370
   -1
100
AcDbCircle
 10
10
 20
-3.500000000000001
 40
5
100
AcDbArc
 50
288.6426537138178
 51
76.59478108919835
  0
LINE
  5
C7
100
AcDbEntity
  8
Shaft holders
  6
ByLayer
 62
  256
370
   -1
100
AcDbLine
 10
-1
 20
10.5
 11
-1
 21
4.26167013691045
  0
LINE
  5
C8
100
AcDbEntity
  8
Shaft holders
  6
ByLayer
 62
  256
370
   -1
100
AcDbLine
 10
11.15918254970554
 20
1.363773824558273
 11
-1
 21
4.26167013691045
  0
LINE
  5
C9
100
AcDbEntity
  8
Shaft holders
  6
ByLayer
 62
  256
370
   -1
100
AcDbLine
 10
-23.59832392451931
 20
-8.237653494327038
 11
-8
 21
-13.5
  0
ARC
  5
CA
100
AcDbEntity
  8
Shaft holders
  6
ByLayer
 62
  256
370
   -1
100
AcDbCircle
 10
-22
 20
-3.499999999999998
 40
5
100
AcDbArc
 50
103.4052189108016
 51
251.3573462861822
  0
LINE
  5
CB
100
AcDbEntity
  8
Shaft holders
  6
ByLayer
 62
  256
370
   -1
100
AcDbLine
 10
-11
 20
10.5
 11
-11
 21
4.261670136910451
  0
LINE
  5
CC
100
AcDbEntity
  8
Shaft holders
  6
ByLayer
 62
  256
370
   -1
100
AcDbLine
 10
-23.15918254970552
 20
1.363773824558276
 11
-11
 21
4.261670136910451
  0
LINE
  5
CD
100
AcDbEntity
  8
Shaft holders
  6
ByLayer
 62
  256
370
   -1
100
AcDbLine
 10
-11
 20
10.5
 11
-1
 21
10.5
  0
CIRCLE
  5
CE
100
AcDbEntity
  8
Shaft holders
  6
ByLayer
 62
  256
370
   -1
100
AcDbCircle
 10
106
 20
-3.500000000000004
 40
5
  0
LINE
  5
CF
100
AcDbEntity
  8
Shaft holders
  6
ByLayer
 62
  256
370
   -1
100
AcDbLine
 10
104
 20
-13.5
 11
108
 21
-13.5
  0
LINE
  5
D0
100
AcDbEntity
  8
Shaft holders
  6
ByLayer
 62
  256
370
   -1
100
AcDbLine
 10
123.5983239245193
 20
-8.237653494327041
 11
108
 21
-13.5
  0
ARC
  5
D1
100
AcDbEntity
  8
Shaft holders
  6
ByLayer
 62
  256
370
   -1
100
AcDbCircle
 10
122
 20
-3.500000000000004
 40
5
100
AcDbArc
 50
288.6426537138178
 51
76.59478108919835
  0
LINE
  5
D2
100
AcDbEntity
  8
Shaft holders
  6
ByLayer
 62
  256
370
   -1
100
AcDbLine
 10
101
 20
10.5
 11
111
 21
10.5
  0
LINE
  5
D3
100
AcDbEntity
  8
Shaft holders
  6
ByLayer
 62
  256
370
   -1
100
AcDbLine
 10
111
 20
10.5
 11
111
 21
4.261670136910451
  0
LINE
  5
D4
100
AcDbEntity
  8
Shaft holders
  6
ByLayer
 62
  256
370
   -1
100
AcDbLine
 10
123.1591825497055
 20
1.363773824558269
 11
111
 21
4.261670136910451
  0
LINE
  5
D5
100
AcDbEntity
  8
Shaft holders
  6
ByLayer
 62
  256
370
   -1
100
AcDbLine
 10
88.40167607548068
 20
-8.237653494327038
 11
104
 21
-13.5
  0
ARC
  5
D6
100
AcDbEntity
  8
Shaft holders
  6
ByLayer
 62
  256
370
   -1
100
AcDbCircle
 10
90
 20
-3.500000000000001
 40
5
100
AcDbArc
 50
103.4052189108016
 51
251.3573462861822
  0
LINE
  5
D7
100
AcDbEntity
  8
Shaft holders
  6
ByLayer
 62
  256
370
   -1
100
AcDbLine
 10
101
 20
10.5
 11
101
 21
4.261670136910451
  0
LINE
  5
D8
100
AcDbEntity
  8
Shaft holders
  6
ByLayer
 62
  256
370
   -1
100
AcDbLine
 10
88.84081745029445
 20
1.363773824558272
 11
101
 21
4.261670136910451
  0
CIRCLE
  5
D9
100
AcDbEntity
  8
Vertical plate
  6
ByLayer
 62
  256
370
   -1
100
AcDbCircle
 10
40
 20
-88.75
 40
2.75
  0
CIRCLE
  5
DA
100
AcDbEntity
  8
Vertical plate
  6
ByLayer
 62
  256
370
   -1
100
AcDbCircle
 10
60
 20
-88.75
 40
2.75
  0
CIRCLE
  5
DB
100
AcDbEntity
  8
Vertical plate
  6
ByLayer
 62
  256
370
   -1
100
AcDbCircle
 10
40
 20
-109.75
 40
2.75
  0
CIRCLE
  5
DC
100
AcDbEntity
  8
Vertical plate
  6
ByLayer
 62
  256
370
   -1
100
AcDbCircle
 10
60
 20
-109.75
 40
2.75
  0
CIRCLE
  5
DD
100
AcDbEntity
  8
Vertical plate
  6
ByLayer
 62
  256
370
   -1
100
AcDbCircle
 10
36
 20
-57.5
 40
2.600000000000001
  0
CIRCLE
  5
DE
100
AcDbEntity
  8
Vertical plate
  6
ByLayer
 62
  256
370
   -1
100
AcDbCircle
 10
36
 20
-78.5
 40
2.601922366251546
  0
CIRCLE
  5
DF
100
AcDbEntity
  8
Vertical plate
  6
ByLayer
 62
  256
370
   -1
100
AcDbCircle
 10
36
 20
-120.5
 40
2.601922366251546
  0
CIRCLE
  5
E0
100
AcDbEntity
  8
Vertical plate
  6
ByLayer
 62
  256
370
   -1
100
AcDbCircle
 10
36
 20
-162.5
 40
2.600000000000001
  0
CIRCLE
  5
E1
100
AcDbEntity
  8
Vertical plate
  6
ByLayer
 62
  256
370
   -1
100
AcDbCircle
 10
36
 20
-141.5
 40
2.601922366251546
  0
CIRCLE
  5
E2
100
AcDbEntity
  8
Vertical plate
  6
ByLayer
 62
  256
370
   -1
100
AcDbCircle
 10
36
 20
-183.5
 40
2.601922366251546
  0
CIRCLE
  5
E3
100
AcDbEntity
  8
Vertical plate
  6
ByLayer
 62
  256
370
   -1
100
AcDbCircle
 10
36
 20
-36.5
 40
2.600000000000001
  0
CIRCLE
  5
E4
100
AcDbEntity
  8
Vertical plate
  6
ByLayer
 62
  256
370
   -1
100
AcDbCircle
 10
64
 20
-57.5
 40
2.600000000000001
  0
CIRCLE
  5
E5
100
AcDbEntity
  8
Vertical plate
  6
ByLayer
 62
  256
370
   -1
100
AcDbCircle
 10
64
 20
-78.5
 40
2.601922366251546
  0
CIRCLE
  5
E6
100
AcDbEntity
  8
Vertical plate
  6
ByLayer
 62
  256
370
   -1
100
AcDbCircle
 10
64
 20
-120.5
 40
2.601922366251546
  0
CIRCLE
  5
E7
100
AcDbEntity
  8
Vertical plate
  6
ByLayer
 62
  256
370
   -1
100
AcDbCircle
 10
64
 20
-162.5
 40
2.600000000000001
  0
CIRCLE
  5
E8
100
AcDbEntity
  8
Vertical plate
  6
ByLayer
 62
  256
370
   -1
100
AcDbCircle
 10
64
 20
-141.5
 40
2.601922366251546
  0
CIRCLE
  5
E9
100
AcDbEntity
  8
Vertical plate
  6
ByLayer
 62
  256
370
   -1
100
AcDbCircle
 10
64
 20
-183.5
 40
2.601922366251546
  0
CIRCLE
  5
EA
100
AcDbEntity
  8
Vertical plate
  6
ByLayer
 62
  256
370
   -1
100
AcDbCircle
 10
64
 20
-36.5
 40
2.600000000000001
  0
CIRCLE
  5
EB
100
AcDbEntity
  8
Horizontal plate with stepper
  6
ByLayer
 62
  256
370
   -1
100
AcDbCircle
 10
-22
 20
-211.5
 40
2.25
  0
CIRCLE
  5
EC
100
AcDbEntity
  8
Horizontal plate with stepper
  6
ByLayer
 62
  256
370
   -1
100
AcDbCircle
 10
10
 20
-211.5
 40
2.25
  0
CIRCLE
  5
ED
100
AcDbEntity
  8
Horizontal plate with stepper
  6
ByLayer
 62
  256
370
   -1
100
AcDbCircle
 10
90
 20
-211.5
 40
2.25
  0
CIRCLE
  5
EE
100
AcDbEntity
  8
Horizontal plate with stepper
  6
ByLayer
 62
  256
370
   -1
100
AcDbCircle
 10
122
 20
-211.5
 40
2.25
  0
LINE
  5
EF
100
AcDbEntity
  8
Linear bearings
  6
ByLayer
 62
  256
370
   -1
100
AcDbLine
 10
-26
 20
-50.5
 11
-26
 21
-85.5
  0
LINE
  5
F0
100
AcDbEntity
  8
Linear bearings
  6
ByLayer
 62
  256
370
   -1
100
AcDbLine
 10
-26
 20
-85.5
 11
14
 21
-85.5
  0
LINE
  5
F1
100
AcDbEntity
  8
Linear bearings
  6
ByLayer
 62
  256
370
   -1
100
AcDbLine
 10
14
 20
-85.5
 11
14
 21
-50.5
  0
LINE
  5
F2
100
AcDbEntity
  8
Linear bearings
  6
ByLayer
 62
  256
370
   -1
100
AcDbLine
 10
14
 20
-50.5
 11
-26
 21
-50.5
  0
CIRCLE
  5
F3
100
AcDbEntity
  8
Linear bearings
  6
ByLayer
 62
  256
370
   -1
100
AcDbCircle
 10
8
 20
-57.5
 40
2.600000000000001
  0
CIRCLE
  5
F4
100
AcDbEntity
  8
Linear bearings
  6
ByLayer
 62
  256
370
   -1
100
AcDbCircle
 10
8
 20
-78.5
 40
2.601922366251546
  0
CIRCLE
  5
F5
100
AcDbEntity
  8
Linear bearings
  6
ByLayer
 62
  256
370
   -1
100
AcDbCircle
 10
-20
 20
-57.5
 40
2.600000000000001
  0
CIRCLE
  5
F6
100
AcDbEntity
  8
Linear bearings
  6
ByLayer
 62
  256
370
   -1
100
AcDbCircle
 10
-20
 20
-78.5
 40
2.600000000000009
  0
LINE
  5
F7
100
AcDbEntity
  8
Linear bearings
  6
ByLayer
 62
  256
370
   -1
100
AcDbLine
 10
126
 20
-50.5
 11
126
 21
-85.5
  0
LINE
  5
F8
100
AcDbEntity
  8
Linear bearings
  6
ByLayer
 62
  256
370
   -1
100
AcDbLine
 10
126
 20
-85.5
 11
86
 21
-85.5
  0
LINE
  5
F9
100
AcDbEntity
  8
Linear bearings
  6
ByLayer
 62
  256
370
   -1
100
AcDbLine
 10
86
 20
-85.5
 11
86
 21
-50.5
  0
LINE
  5
FA
100
AcDbEntity
  8
Linear bearings
  6
ByLayer
 62
  256
370
   -1
100
AcDbLine
 10
86
 20
-50.5
 11
126
 21
-50.5
  0
CIRCLE
  5
FB
100
AcDbEntity
  8
Linear bearings
  6
ByLayer
 62
  256
370
   -1
100
AcDbCircle
 10
92
 20
-57.5
 40
2.600000000000001
  0
CIRCLE
  5
FC
100
AcDbEntity
  8
Linear bearings
  6
ByLayer
 62
  256
370
   -1
100
AcDbCircle
 10
92
 20
-78.5
 40
2.601922366251546
  0
CIRCLE
  5
FD
100
AcDbEntity
  8
Linear bearings
  6
ByLayer
 62
  256
370
   -1
100
AcDbCircle
 10
120
 20
-57.5
 40
2.600000000000001
  0
CIRCLE
  5
FE
100
AcDbEntity
  8
Linear bearings
  6
ByLayer
 62
  256
370
   -1
100
AcDbCircle
 10
120
 20
-78.5
 40
2.600000000000009
  0
LINE
  5
FF
100
AcDbEntity
  8
Linear bearings
  6
ByLayer
 62
  256
370
   -1
100
AcDbLine
 10
-26
 20
-169.5
 11
-26
 21
-134.5
  0
LINE
  5
100
100
AcDbEntity
  8
Linear bearings
  6
ByLayer
 62
  256
370
   -1
100
AcDbLine
 10
-26
 20
-134.5
 11
14
 21
-134.5
  0
LINE
  5
101
100
AcDbEntity
  8
Linear bearings
  6
ByLayer
 62
  256
370
   -1
100
AcDbLine
 10
14
 20
-134.5
 11
14
 21
-169.5
  0
LINE
  5
102
100
AcDbEntity
  8
Linear bearings
  6
ByLayer
 62
  256
370
   -1
100
AcDbLine
 10
14
 20
-169.5
 11
-26
 21
-169.5
  0
CIRCLE
  5
103
100
AcDbEntity
  8
Linear bearings
  6
ByLayer
 62
  256
370
   -1
100
AcDbCircle
 10
8
 20
-162.5
 40
2.600000000000001
  0
CIRCLE
  5
104
100
AcDbEntity
  8
Linear bearings
  6
ByLayer
 62
  256
370
   -1
100
AcDbCircle
 10
8
 20
-141.5
 40
2.601922366251546
  0
CIRCLE
  5
105
100
AcDbEntity
  8
Linear bearings
  6
ByLayer
 62
  256
370
   -1
100
AcDbCircle
 10
-20
 20
-162.5
 40
2.600000000000001
  0
CIRCLE
  5
106
100
AcDbEntity
  8
Linear bearings
  6
ByLayer
 62
  256
370
   -1
100
AcDbCircle
 10
-20
 20
-141.5
 40
2.600000000000009
  0
LINE
  5
107
100
AcDbEntity
  8
Linear bearings
  6
ByLayer
 62
  256
370
   -1
100
AcDbLine
 10
126
 20
-169.5
 11
126
 21
-134.5
  0
LINE
  5
108
100
AcDbEntity
  8
Linear bearings
  6
ByLayer
 62
  256
370
   -1
100
AcDbLine
 10
126
 20
-134.5
 11
86
 21
-134.5
  0
LINE
  5
109
100
AcDbEntity
  8
Linear bearings
  6
ByLayer
 62
  256
370
   -1
100
AcDbLine
 10
86
 20
-134.5
 11
86
 21
-169.5
  0
LINE
  5
10A
100
AcDbEntity
  8
Linear bearings
  6
ByLayer
 62
  256
370
   -1
100
AcDbLine
 10
86
 20
-169.5
 11
126
 21
-169.5
  0
CIRCLE
  5
10B
100
AcDbEntity
  8
Linear bearings
  6
ByLayer
 62
  256
370
   -1
100
AcDbCircle
 10
92
 20
-162.5
 40
2.600000000000001
  0
CIRCLE
  5
10C
100
AcDbEntity
  8
Linear bearings
  6
ByLayer
 62
  256
370
   -1
100
AcDbCircle
 10
92
 20
-141.5
 40
2.601922366251546
  0
CIRCLE
  5
10D
100
AcDbEntity
  8
Linear bearings
  6
ByLayer
 62
  256
370
   -1
100
AcDbCircle
 10
120
 20
-162.5
 40
2.600000000000001
  0
CIRCLE
  5
10E
100
AcDbEntity
  8
Linear bearings
  6
ByLayer
 62
  256
370
   -1
100
AcDbCircle
 10
120
 20
-141.5
 40
2.600000000000009
  0
LINE
  5
10F
100
AcDbEntity
  8
Horizontal plate
  6
ByLayer
 62
  256
370
   -1
100
AcDbLine
 10
-29
 20
15
 11
-29
 21
-15
  0
LINE
  5
110
100
AcDbEntity
  8
Horizontal plate
  6
ByLayer
 62
  256
370
   -1
100
AcDbLine
 10
129
 20
-15
 11
129
 21
15
  0
LINE
  5
111
100
AcDbEntity
  8
Horizontal plate with stepper
  6
ByLayer
 62
  256
370
   -1
100
AcDbLine
 10
-29
 20
-230
 11
-29
 21
-200
  0
LINE
  5
112
100
AcDbEntity
  8
Horizontal plate with stepper
  6
ByLayer
 62
  256
370
   -1
100
AcDbLine
 10
129
 20
-200
 11
129
 21
-230
  0
ARC
  5
113
100
AcDbEntity
  8
Nut
  6
ByLayer
 62
  256
370
   -1
100
AcDbCircle
 10
36
 20
-85.5
 40
4
100
AcDbArc
 50
90.00000000000006
 51
180
  0
ARC
  5
114
100
AcDbEntity
  8
Nut
  6
ByLayer
 62
  256
370
   -1
100
AcDbCircle
 10
64
 20
-85.5
 40
4
100
AcDbArc
 50
360
 51
89.99999999999994
  0
ARC
  5
115
100
AcDbEntity
  8
Nut
  6
ByLayer
 62
  256
370
   -1
100
AcDbCircle
 10
36
 20
-108.5
 40
4
100
AcDbArc
 50
180
 51
269.9999999999999
  0
ARC
  5
116
100
AcDbEntity
  8
Nut
  6
ByLayer
 62
  256
370
   -1
100
AcDbCircle
 10
64
 20
-108.5
 40
4
100
AcDbArc
 50
270.0000000000001
 51
0
  0
LINE
  5
117
100
AcDbEntity
  8
Nut
  6
ByLayer
 62
  256
370
   -1
100
AcDbLine
 10
32
 20
-108.5
 11
32
 21
-85.5
  0
LINE
  5
118
100
AcDbEntity
  8
Nut
  6
ByLayer
 62
  256
370
   -1
100
AcDbLine
 10
64
 20
-112.5
 11
36
 21
-112.5
  0
LINE
  5
119
100
AcDbEntity
  8
Nut
  6
ByLayer
 62
  256
370
   -1
100
AcDbLine
 10
36
 20
-81.5
 11
64
 21
-81.5
  0
LINE
  5
11A
100
AcDbEntity
  8
Nut
  6
ByLayer
 62
  256
370
   -1
100
AcDbLine
 10
68
 20
-85.5
 11
68
 21
-108.5
  0
CIRCLE
  5
11B
100
AcDbEntity
  8
Nut
  6
ByLayer
 62
  256
370
   -1
100
AcDbCircle
 10
40
 20
-88.75
 40
2.75
  0
CIRCLE
  5
11C
100
AcDbEntity
  8
Nut
  6
ByLayer
 62
  256
370
   -1
100
AcDbCircle
 10
60
 20
-88.75
 40
2.75
  0
LINE
  5
11D
100
AcDbEntity
  8
Horizontal plate with stepper
  6
ByLayer
 62
  256
370
   -1
100
AcDbLine
 10
78.5
 20
-255.765306122449
 11
129
 21
-230
  0
LINE
  5
11E
100
AcDbEntity
  8
Horizontal plate with stepper
  6
ByLayer
 62
  256
370
   -1
100
AcDbLine
 10
21.5
 20
-255.765306122449
 11
-29
 21
-230
  0
LINE
  5
11F
100
AcDbEntity
  8
20x40 profile
  6
ByLayer
 62
  256
370
   -1
100
AcDbLine
 10
30
 20
25
 11
30
 21
45
  0
LINE
  5
120
100
AcDbEntity
  8
20x40 profile
  6
ByLayer
 62
  256
370
   -1
100
AcDbLine
 10
30
 20
45
 11
70
 21
45
  0
LINE
  5
121
100
AcDbEntity
  8
20x40 profile
  6
ByLayer
 62
  256
370
   -1
100
AcDbLine
 10
70
 20
45
 11
70
 21
25
  0
LINE
  5
122
100
AcDbEntity
  8
20x40 profile
  6
ByLayer
 62
  256
370
   -1
100
AcDbLine
 10
70
 20
25
 11
30
 21
25
  0
LINE
  5
123
100
AcDbEntity
  8
Horizontal plate
  6
ByLayer
 62
  256
370
   -1
100
AcDbLine
 10
29.8
 20
45
 11
-29
 21
15
  0
LINE
  5
124
100
AcDbEntity
  8
Horizontal plate
  6
ByLayer
 62
  256
370
   -1
100
AcDbLine
 10
70.2
 20
45
 11
129
 21
15
  0
CIRCLE
  5
125
100
AcDbEntity
  8
Horizontal plate
  6
ByLayer
 62
  256
370
   -1
100
AcDbCircle
 10
40
 20
35
 40
2.599999999999994
  0
CIRCLE
  5
126
100
AcDbEntity
  8
Horizontal plate
  6
ByLayer
 62
  256
370
   -1
100
AcDbCircle
 10
60
 20
35
 40
2.600000000000001
  0
LINE
  5
127
100
AcDbEntity
  8
Horizontal plate
  6
ByLayer
 62
  256
370
   -1
100
AcDbLine
 10
70.19999999999999
 20
45.00000000000001
 11
29.8
 21
45
  0
CIRCLE
  5
128
100
AcDbEntity
  8
Horizontal plate with stepper
  6
ByLayer
 62
  256
370
   -1
100
AcDbCircle
 10
40
 20
-250
 40
2.599999999999994
  0
CIRCLE
  5
129
100
AcDbEntity
  8
Horizontal plate with stepper
  6
ByLayer
 62
  256
370
   -1
100
AcDbCircle
 10
60
 20
-250
 40
2.600000000000001
  0
ARC
  5
12A
100
AcDbEntity
  8
Horizontal plate with stepper
  6
ByLayer
 62
  256
370
   -1
100
AcDbCircle
 10
50
 20
-288.5
 40
19.2
100
AcDbArc
 50
0
 51
180
  0
ARC
  5
12B
100
AcDbEntity
  8
Horizontal plate with stepper
  6
ByLayer
 62
  256
370
   -1
100
AcDbCircle
 10
50
 20
-300.5
 40
19.2
100
AcDbArc
 50
179.9999847484208
 51
1.216513345417657e-05
  0
LINE
  5
12C
100
AcDbEntity
  8
Horizontal plate with stepper
  6
ByLayer
 62
  256
370
   -1
100
AcDbLine
 10
30.8
 20
-300.4999948891468
 11
30.8
 21
-288.5
  0
LINE
  5
12D
100
AcDbEntity
  8
Horizontal plate with stepper
  6
ByLayer
 62
  256
370
   -1
100
AcDbLine
 10
69.2
 20
-288.5
 11
69.2
 21
-300.4999959234246
  0
LINE
  5
12E
100
AcDbEntity
  8
Horizontal plate with stepper
  6
ByLayer
 62
  256
370
   -1
100
AcDbLine
 10
23.83000000000006
 20
-264.9299999999999
 11
23.83000000000006
 21
-276.9299999999999
  0
LINE
  5
12F
100
AcDbEntity
  8
Horizontal plate with stepper
  6
ByLayer
 62
  256
370
   -1
100
AcDbLine
 10
29.03000000000007
 20
-276.9299999999999
 11
29.03000000000007
 21
-264.9299999999999
  0
ARC
  5
130
100
AcDbEntity
  8
Horizontal plate with stepper
  6
ByLayer
 62
  256
370
   -1
100
AcDbCircle
 10
26.43000000000006
 20
-264.9299999999999
 40
2.6
100
AcDbArc
 50
0
 51
179.9999426026704
  0
ARC
  5
131
100
AcDbEntity
  8
Horizontal plate with stepper
  6
ByLayer
 62
  256
370
   -1
100
AcDbCircle
 10
26.43000000000006
 20
-276.9299999999999
 40
2.6
100
AcDbArc
 50
180
 51
359.9999999999987
  0
LINE
  5
132
100
AcDbEntity
  8
Horizontal plate with stepper
  6
ByLayer
 62
  256
370
   -1
100
AcDbLine
 10
78.5
 20
-329
 11
21.5
 21
-329
  0
LINE
  5
133
100
AcDbEntity
  8
Horizontal plate with stepper
  6
ByLayer
 62
  256
370
   -1
100
AcDbLine
 10
70.90000000000012
 20
-265
 11
70.90000000000012
 21
-277
  0
LINE
  5
134
100
AcDbEntity
  8
Horizontal plate with stepper
  6
ByLayer
 62
  256
370
   -1
100
AcDbLine
 10
76.10000000000011
 20
-277
 11
76.10000000000011
 21
-265
  0
ARC
  5
135
100
AcDbEntity
  8
Horizontal plate with stepper
  6
ByLayer
 62
  256
370
   -1
100
AcDbCircle
 10
73.50000000000011
 20
-265
 40
2.6
100
AcDbArc
 50
0
 51
179.9999426026704
  0
ARC
  5
136
100
AcDbEntity
  8
Horizontal plate with stepper
  6
ByLayer
 62
  256
370
   -1
100
AcDbCircle
 10
73.50000000000011
 20
-277
 40
2.6
100
AcDbArc
 50
180
 51
359.9999999999987
  0
LINE
  5
137
100
AcDbEntity
  8
Horizontal plate with stepper
  6
ByLayer
 62
  256
370
   -1
100
AcDbLine
 10
23.9
 20
-312
 11
23.9
 21
-324
  0
LINE
  5
138
100
AcDbEntity
  8
Horizontal plate with stepper
  6
ByLayer
 62
  256
370
   -1
100
AcDbLine
 10
29.1
 20
-324
 11
29.1
 21
-312
  0
ARC
  5
139
100
AcDbEntity
  8
Horizontal plate with stepper
  6
ByLayer
 62
  256
370
   -1
100
AcDbCircle
 10
26.5
 20
-312
 40
2.6
100
AcDbArc
 50
0
 51
179.9999426026704
  0
ARC
  5
13A
100
AcDbEntity
  8
Horizontal plate with stepper
  6
ByLayer
 62
  256
370
   -1
100
AcDbCircle
 10
26.5
 20
-324
 40
2.6
100
AcDbArc
 50
180
 51
359.9999999999987
  0
LINE
  5
13B
100
AcDbEntity
  8
Horizontal plate with stepper
  6
ByLayer
 62
  256
370
   -1
100
AcDbLine
 10
70.97000000000006
 20
-312.0700000000001
 11
70.97000000000006
 21
-324.0700000000001
  0
LINE
  5
13C
100
AcDbEntity
  8
Horizontal plate with stepper
  6
ByLayer
 62
  256
370
   -1
100
AcDbLine
 10
76.17000000000004
 20
-324.0700000000001
 11
76.17000000000004
 21
-312.0700000000001
  0
ARC
  5
13D
100
AcDbEntity
  8
Horizontal plate with stepper
  6
ByLayer
 62
  256
370
   -1
100
AcDbCircle
 10
73.57000000000005
 20
-312.0700000000001
 40
2.6
100
AcDbArc
 50
0
 51
179.9999426026704
  0
ARC
  5
13E
100
AcDbEntity
  8
Horizontal plate with stepper
  6
ByLayer
 62
  256
370
   -1
100
AcDbCircle
 10
73.57000000000005
 20
-324.0700000000001
 40
2.6
100
AcDbArc
 50
180
 51
359.9999999999987
  0
LINE
  5
13F
100
AcDbEntity
  8
Horizontal plate with stepper
  6
ByLayer
 62
  256
370
   -1
100
AcDbLine
 10
21.5
 20
-255.765306122449
 11
21.5
 21
-329
  0
LINE
  5
140
100
AcDbEntity
  8
Horizontal plate with stepper
  6
ByLayer
 62
  256
370
   -1
100
AcDbLine
 10
78.5
 20
-329
 11
78.5
 21
-255.7653061224489
  0
LINE
  5
141
100
AcDbEntity
  8
20x40 profile
  6
ByLayer
 62
  256
370
   -1
100
AcDbLine
 10
30
 20
-260
 11
30
 21
-240
  0
LINE
  5
142
100
AcDbEntity
  8
20x40 profile
  6
ByLayer
 62
  256
370
   -1
100
AcDbLine
 10
30
 20
-240
 11
70
 21
-240
  0
LINE
  5
143
100
AcDbEntity
  8
20x40 profile
  6
ByLayer
 62
  256
370
   -1
100
AcDbLine
 10
70
 20
-240
 11
70
 21
-260
  0
LINE
  5
144
100
AcDbEntity
  8
20x40 profile
  6
ByLayer
 62
  256
370
   -1
100
AcDbLine
 10
70
 20
-260
 11
30
 21
-260
  0
LINE
  5
145
100
AcDbEntity
  8
Pulleys
  6
ByLayer
 62
  256
370
   -1
100
AcDbLine
 10
37.51606046820297
 20
-220.6334459459459
 11
41.26124232774208
 21
-294.4434121621622
  0
LINE
  5
146
100
AcDbEntity
  8
Pulleys
  6
ByLayer
 62
  256
370
   -1
100
AcDbLine
 10
62.48393953179703
 20
-220.6334459459459
 11
58.73875767225792
 21
-294.4434121621622
  0
ARC
  5
147
100
AcDbEntity
  8
Pulleys
  6
ByLayer
 62
  256
370
   -1
100
AcDbCircle
 10
50
 20
-294
 40
8.75
100
AcDbArc
 50
180
 51
0
  0
ARC
  5
148
100
AcDbEntity
  8
Pulleys
  6
ByLayer
 62
  256
370
   -1
100
AcDbCircle
 10
50
 20
-220
 40
12.5
100
AcDbArc
 50
357.0952535108543
 51
182.9047464891458
  0
LINE
  5
149
100
AcDbEntity
  8
Motor
  6
ByLayer
 62
  256
370
   -1
100
AcDbLine
 10
200
 20
-40
 11
260
 21
-40
  0
LINE
  5
14A
100
AcDbEntity
  8
Motor
  6
ByLayer
 62
  256
370
   -1
100
AcDbLine
 10
260
 20
-40
 11
260
 21
-150
  0
LINE
  5
14B
100
AcDbEntity
  8
Motor
  6
ByLayer
 62
  256
370
   -1
100
AcDbLine
 10
260
 20
-150
 11
200
 21
-150
  0
LINE
  5
14C
100
AcDbEntity
  8
Motor
  6
ByLayer
 62
  256
370
   -1
100
AcDbLine
 10
200
 20
-150
 11
200
 21
-40
  0
LINE
  5
14D
100
AcDbEntity
  8
Motor
  6
ByLayer
 62
  256
370
   -1
100
AcDbLine
 10
202
 20
-150
 11
258
 21
-150
  0
LINE
  5
14E
100
AcDbEntity
  8
Motor
  6
ByLayer
 62
  256
370
   -1
100
AcDbLine
 10
258
 20
-150
 11
258
 21
-214
  0
LINE
  5
14F
100
AcDbEntity
  8
Motor
  6
ByLayer
 62
  256
370
   -1
100
AcDbLine
 10
258
 20
-214
 11
202
 21
-214
  0
LINE
  5
150
100
AcDbEntity
  8
Motor
  6
ByLayer
 62
  256
370
   -1
100
AcDbLine
 10
202
 20
-214
 11
202
 21
-150
  0
LINE
  5
151
100
AcDbEntity
  8
Motor
  6
ByLayer
 62
  256
370
   -1
100
AcDbLine
 10
214
 20
-214
 11
214
 21
-216
  0
LINE
  5
152
100
AcDbEntity
  8
Motor
  6
ByLayer
 62
  256
370
   -1
100
AcDbLine
 10
214
 20
-216
 11
246
 21
-216
  0
LINE
  5
153
100
AcDbEntity
  8
Motor
  6
ByLayer
 62
  256
370
   -1
100
AcDbLine
 10
246
 20
-216
 11
246
 21
-214
  0
LINE
  5
154
100
AcDbEntity
  8
Motor
  6
ByLayer
 62
  256
370
   -1
100
AcDbLine
 10
246
 20
-214
 11
214
 21
-214
  0
LINE
  5
155
100
AcDbEntity
  8
Motor
  6
ByLayer
 62
  256
370
   -1
100
AcDbLine
 10
224
 20
-216
 11
236
 21
-216
  0
LINE
  5
156
100
AcDbEntity
  8
Motor
  6
ByLayer
 62
  256
370
   -1
100
AcDbLine
 10
236
 20
-216
 11
236
 21
-242
  0
LINE
  5
157
100
AcDbEntity
  8
Motor
  6
ByLayer
 62
  256
370
   -1
100
AcDbLine
 10
236
 20
-242
 11
224
 21
-242
  0
LINE
  5
158
100
AcDbEntity
  8
Motor
  6
ByLayer
 62
  256
370
   -1
100
AcDbLine
 10
224
 20
-242
 11
224
 21
-216
  0
LINE
  5
159
100
AcDbEntity
  8
Motor
  6
ByLayer
 62
  256
370
   -1
100
AcDbLine
 10
228
 20
-40
 11
228
 21
-28
  0
LINE
  5
15A
100
AcDbEntity
  8
Motor
  6
ByLayer
 62
  256
370
   -1
100
AcDbLine
 10
228
 20
-28
 11
232
 21
-28
  0
LINE
  5
15B
100
AcDbEntity
  8
Motor
  6
ByLayer
 62
  256
370
   -1
100
AcDbLine
 10
232
 20
-28
 11
232
 21
-40
  0
LINE
  5
15C
100
AcDbEntity
  8
Motor
  6
ByLayer
 62
  256
370
   -1
100
AcDbLine
 10
198
 20
-26
 11
195
 21
-26
  0
LINE
  5
15D
100
AcDbEntity
  8
Motor
  6
ByLayer
 62
  256
370
   -1
100
AcDbLine
 10
265
 20
-26
 11
262
 21
-26
  0
LINE
  5
15E
100
AcDbEntity
  8
Motor
  6
ByLayer
 62
  256
370
   -1
100
AcDbLine
 10
911
 20
-60.00000000000004
 11
952
 21
-60.00000000000003
  0
LINE
  5
15F
100
AcDbEntity
  8
Motor
  6
ByLayer
 62
  256
370
   -1
100
AcDbLine
 10
841.0000000000007
 20
-60.00000000000009
 11
800
 21
-60.00000000000003
  0
LINE
  5
160
100
AcDbEntity
  8
Motor
  6
ByLayer
 62
  256
370
   -1
100
AcDbLine
 10
800
 20
-60
 11
800
 21
-75.00000000000003
  0
LINE
  5
161
100
AcDbEntity
  8
Motor
  6
ByLayer
 62
  256
370
   -1
100
AcDbLine
 10
952
 20
-75.00000000000003
 11
952
 21
-60.00000000000003
  0
LINE
  5
162
100
AcDbEntity
  8
Motor
  6
ByLayer
 62
  256
370
   -1
100
AcDbLine
 10
800
 20
-75.00000000000003
 11
828.3030399291538
 21
-75.00000000000006
  0
LINE
  5
163
100
AcDbEntity
  8
Motor
  6
ByLayer
 62
  256
370
   -1
100
AcDbLine
 10
952
 20
-75.00000000000003
 11
923.6969600708459
 21
-75.00000000000026
  0
ARC
  5
164
100
AcDbEntity
  8
Motor
  6
ByLayer
 62
  256
370
   -1
100
AcDbCircle
 10
876
 20
-60.00000000000003
 40
50
100
AcDbArc
 50
197.4576031237223
 51
342.5423968762775
  0
LINE
  5
165
100
AcDbEntity
  8
Motor
  6
ByLayer
 62
  256
370
   -1
100
AcDbLine
 10
815.8999999999999
 20
-75.00000000000003
 11
815.9
 21
-60.00000000000003
  0
LINE
  5
166
100
AcDbEntity
  8
Motor
  6
ByLayer
 62
  256
370
   -1
100
AcDbLine
 10
822.1000000000001
 20
-75.00000000000006
 11
822.1000000000001
 21
-60.00000000000006
  0
LINE
  5
167
100
AcDbEntity
  8
Motor
  6
ByLayer
 62
  256
370
   -1
100
AcDbLine
 10
936.1000000000001
 20
-75.00000000000003
 11
936.1
 21
-60.00000000000003
  0
LINE
  5
168
100
AcDbEntity
  8
Motor
  6
ByLayer
 62
  256
370
   -1
100
AcDbLine
 10
929.8999999999999
 20
-75.00000000000006
 11
929.8999999999999
 21
-60.00000000000006
  0
ARC
  5
169
100
AcDbEntity
  8
Motor
  6
ByLayer
 62
  256
370
   -1
100
AcDbCircle
 10
876
 20
-60.00000000000003
 40
35
100
AcDbArc
 50
180.0000000000001
 51
359.9999999999997
  0
LINE
  5
16A
100
AcDbEntity
  8
Motor
  6
ByLayer
 62
  256
370
   -1
100
AcDbLine
 10
800
 20
-120
 11
800
 21
-155
  0
LINE
  5
16B
100
AcDbEntity
  8
Motor
  6
ByLayer
 62
  256
370
   -1
100
AcDbLine
 10
952
 20
-120
 11
952
 21
-155
  0
LINE
  5
16C
100
AcDbEntity
  8
Motor
  6
ByLayer
 62
  256
370
   -1
100
AcDbLine
 10
952
 20
-155
 11
912
 21
-155
  0
LINE
  5
16D
100
AcDbEntity
  8
Motor
  6
ByLayer
 62
  256
370
   -1
100
AcDbLine
 10
952
 20
-120
 11
800
 21
-120
  0
LINE
  5
16E
100
AcDbEntity
  8
Motor
  6
ByLayer
 62
  256
370
   -1
100
AcDbLine
 10
800
 20
-155
 11
952
 21
-155
  0
LINE
  5
16F
100
AcDbEntity
  8
Motor
  6
ByLayer
 62
  256
370
   -1
100
AcDbLine
 10
828.3030399291526
 20
-155
 11
828.3030399291526
 21
-120
  0
LINE
  5
170
100
AcDbEntity
  8
Motor
  6
ByLayer
 62
  256
370
   -1
100
AcDbLine
 10
923.6969600708459
 20
-155
 11
923.6969600708459
 21
-120
  0
CIRCLE
  5
171
100
AcDbEntity
  8
Motor
  6
ByLayer
 62
  256
370
   -1
100
AcDbCircle
 10
819
 20
-137.5
 40
3.1
  0
CIRCLE
  5
172
100
AcDbEntity
  8
Motor
  6
ByLayer
 62
  256
370
   -1
100
AcDbCircle
 10
933
 20
-137.5
 40
3.1
  0
LINE
  5
173
100
AcDbEntity
  8
Motor
  6
ByLayer
 62
  256
370
   -1
100
AcDbLine
 10
800
 20
-5
 11
800
 21
-40
  0
LINE
  5
174
100
AcDbEntity
  8
Motor
  6
ByLayer
 62
  256
370
   -1
100
AcDbLine
 10
952
 20
-5
 11
952
 21
-40
  0
LINE
  5
175
100
AcDbEntity
  8
Motor
  6
ByLayer
 62
  256
370
   -1
100
AcDbLine
 10
952
 20
-40
 11
912
 21
-40
  0
LINE
  5
176
100
AcDbEntity
  8
Motor
  6
ByLayer
 62
  256
370
   -1
100
AcDbLine
 10
952
 20
-5
 11
800
 21
-5
  0
LINE
  5
177
100
AcDbEntity
  8
Motor
  6
ByLayer
 62
  256
370
   -1
100
AcDbLine
 10
800
 20
-40
 11
952
 21
-40
  0
LINE
  5
178
100
AcDbEntity
  8
Motor
  6
ByLayer
 62
  256
370
   -1
100
AcDbLine
 10
840.9999999999943
 20
-40
 11
840.9999999999932
 21
-5
  0
LINE
  5
179
100
AcDbEntity
  8
Motor
  6
ByLayer
 62
  256
370
   -1
100
AcDbLine
 10
911
 20
-40
 11
911
 21
-5
  0
CIRCLE
  5
17A
100
AcDbEntity
  8
Motor
  6
ByLayer
 62
  256
370
   -1
100
AcDbCircle
 10
819
 20
-22.49999999999999
 40
3.1
  0
CIRCLE
  5
17B
100
AcDbEntity
  8
Motor
  6
ByLayer
 62
  256
370
   -1
100
AcDbCircle
 10
933
 20
-22.49999999999999
 40
3.1
  0
LINE
  5
17C
100
AcDbEntity
  8
Motor
  6
ByLayer
 62
  256
370
   -1
100
AcDbLine
 10
624
 20
-5
 11
624
 21
-40
  0
CIRCLE
  5
17D
100
AcDbEntity
  8
Motor
  6
ByLayer
 62
  256
370
   -1
100
AcDbCircle
 10
658
 20
-12
 40
2.600000000000001
  0
CIRCLE
  5
17E
100
AcDbEntity
  8
Motor
  6
ByLayer
 62
  256
370
   -1
100
AcDbCircle
 10
658
 20
-33
 40
2.601922366251546
  0
CIRCLE
  5
17F
100
AcDbEntity
  8
Motor
  6
ByLayer
 62
  256
370
   -1
100
AcDbCircle
 10
630
 20
-12
 40
2.600000000000001
  0
CIRCLE
  5
180
100
AcDbEntity
  8
Motor
  6
ByLayer
 62
  256
370
   -1
100
AcDbCircle
 10
630
 20
-33
 40
2.600000000000009
  0
LINE
  5
181
100
AcDbEntity
  8
Motor
  6
ByLayer
 62
  256
370
   -1
100
AcDbLine
 10
776
 20
-5
 11
776
 21
-40
  0
LINE
  5
182
100
AcDbEntity
  8
Motor
  6
ByLayer
 62
  256
370
   -1
100
AcDbLine
 10
776
 20
-40
 11
736
 21
-40
  0
CIRCLE
  5
183
100
AcDbEntity
  8
Motor
  6
ByLayer
 62
  256
370
   -1
100
AcDbCircle
 10
742
 20
-12
 40
2.600000000000001
  0
CIRCLE
  5
184
100
AcDbEntity
  8
Motor
  6
ByLayer
 62
  256
370
   -1
100
AcDbCircle
 10
742
 20
-33
 40
2.601922366251546
  0
CIRCLE
  5
185
100
AcDbEntity
  8
Motor
  6
ByLayer
 62
  256
370
   -1
100
AcDbCircle
 10
770
 20
-12
 40
2.600000000000001
  0
CIRCLE
  5
186
100
AcDbEntity
  8
Motor
  6
ByLayer
 62
  256
370
   -1
100
AcDbCircle
 10
770
 20
-33
 40
2.600000000000009
  0
LINE
  5
187
100
AcDbEntity
  8
Motor
  6
ByLayer
 62
  256
370
   -1
100
AcDbLine
 10
776
 20
-5
 11
624
 21
-5
  0
LINE
  5
188
100
AcDbEntity
  8
Motor
  6
ByLayer
 62
  256
370
   -1
100
AcDbLine
 10
624
 20
-40
 11
776
 21
-40
  0
CIRCLE
  5
189
100
AcDbEntity
  8
Motor
  6
ByLayer
 62
  256
370
   -1
100
AcDbCircle
 10
643
 20
-22.49999999999999
 40
3.1
  0
LINE
  5
18A
100
AcDbEntity
  8
Motor
  6
ByLayer
 62
  256
370
   -1
100
AcDbLine
 10
638.5832704406936
 20
-19.94999999999663
 11
643
 21
-17.39999999999999
  0
LINE
  5
18B
100
AcDbEntity
  8
Motor
  6
ByLayer
 62
  256
370
   -1
100
AcDbLine
 10
643
 20
-17.39999999999999
 11
647.4167295593014
 21
-19.94999999999953
  0
LINE
  5
18C
100
AcDbEntity
  8
Motor
  6
ByLayer
 62
  256
370
   -1
100
AcDbLine
 10
647.4167295593065
 20
-25.05000000000337
 11
643
 21
-27.59999999999998
  0
LINE
  5
18D
100
AcDbEntity
  8
Motor
  6
ByLayer
 62
  256
370
   -1
100
AcDbLine
 10
643
 20
-27.59999999999998
 11
638.5832704406986
 21
-25.05000000000044
  0
LINE
  5
18E
100
AcDbEntity
  8
Motor
  6
ByLayer
 62
  256
370
   -1
100
AcDbLine
 10
638.5832704406936
 20
-19.94999999999663
 11
638.5832704406986
 21
-25.05000000000044
  0
LINE
  5
18F
100
AcDbEntity
  8
Motor
  6
ByLayer
 62
  256
370
   -1
100
AcDbLine
 10
647.4167295593014
 20
-19.94999999999953
 11
647.4167295593065
 21
-25.05000000000337
  0
LINE
  5
190
100
AcDbEntity
  8
Motor
  6
ByLayer
 62
  256
370
   -1
100
AcDbLine
 10
624
 20
-120
 11
624
 21
-155
  0
CIRCLE
  5
191
100
AcDbEntity
  8
Motor
  6
ByLayer
 62
  256
370
   -1
100
AcDbCircle
 10
658
 20
-127
 40
2.600000000000001
  0
CIRCLE
  5
192
100
AcDbEntity
  8
Motor
  6
ByLayer
 62
  256
370
   -1
100
AcDbCircle
 10
658
 20
-148
 40
2.601922366251546
  0
CIRCLE
  5
193
100
AcDbEntity
  8
Motor
  6
ByLayer
 62
  256
370
   -1
100
AcDbCircle
 10
630
 20
-127
 40
2.600000000000001
  0
CIRCLE
  5
194
100
AcDbEntity
  8
Motor
  6
ByLayer
 62
  256
370
   -1
100
AcDbCircle
 10
630
 20
-148
 40
2.600000000000009
  0
LINE
  5
195
100
AcDbEntity
  8
Motor
  6
ByLayer
 62
  256
370
   -1
100
AcDbLine
 10
776
 20
-120
 11
776
 21
-155
  0
LINE
  5
196
100
AcDbEntity
  8
Motor
  6
ByLayer
 62
  256
370
   -1
100
AcDbLine
 10
776
 20
-155
 11
736
 21
-155
  0
CIRCLE
  5
197
100
AcDbEntity
  8
Motor
  6
ByLayer
 62
  256
370
   -1
100
AcDbCircle
 10
742
 20
-127
 40
2.600000000000001
  0
CIRCLE
  5
198
100
AcDbEntity
  8
Motor
  6
ByLayer
 62
  256
370
   -1
100
AcDbCircle
 10
742
 20
-148
 40
2.601922366251546
  0
CIRCLE
  5
199
100
AcDbEntity
  8
Motor
  6
ByLayer
 62
  256
370
   -1
100
AcDbCircle
 10
770
 20
-127
 40
2.600000000000001
  0
CIRCLE
  5
19A
100
AcDbEntity
  8
Motor
  6
ByLayer
 62
  256
370
   -1
100
AcDbCircle
 10
770
 20
-148
 40
2.600000000000009
  0
LINE
  5
19B
100
AcDbEntity
  8
Motor
  6
ByLayer
 62
  256
370
   -1
100
AcDbLine
 10
776
 20
-120
 11
624
 21
-120
  0
LINE
  5
19C
100
AcDbEntity
  8
Motor
  6
ByLayer
 62
  256
370
   -1
100
AcDbLine
 10
624
 20
-155
 11
776
 21
-155
  0
CIRCLE
  5
19D
100
AcDbEntity
  8
Motor
  6
ByLayer
 62
  256
370
   -1
100
AcDbCircle
 10
699.9999999999989
 20
-137.5
 40
3
  0
LINE
  5
19E
100
AcDbEntity
  8
Motor
  6
ByLayer
 62
  256
370
   -1
100
AcDbLine
 10
664.9999999999976
 20
-155
 11
664.9999999999966
 21
-120
  0
LINE
  5
19F
100
AcDbEntity
  8
Motor
  6
ByLayer
 62
  256
370
   -1
100
AcDbLine
 10
735
 20
-155
 11
735
 21
-120
  0
CIRCLE
  5
1A0
100
AcDbEntity
  8
Motor
  6
ByLayer
 62
  256
370
   -1
100
AcDbCircle
 10
630
 20
-127
 40
4.3
  0
CIRCLE
  5
1A1
100
AcDbEntity
  8
Motor
  6
ByLayer
 62
  256
370
   -1
100
AcDbCircle
 10
658
 20
-127
 40
4.3
  0
CIRCLE
  5
1A2
100
AcDbEntity
  8
Motor
  6
ByLayer
 62
  256
370
   -1
100
AcDbCircle
 10
658
 20
-148
 40
4.3
  0
CIRCLE
  5
1A3
100
AcDbEntity
  8
Motor
  6
ByLayer
 62
  256
370
   -1
100
AcDbCircle
 10
630
 20
-148
 40
4.3
  0
CIRCLE
  5
1A4
100
AcDbEntity
  8
Motor
  6
ByLayer
 62
  256
370
   -1
100
AcDbCircle
 10
742
 20
-127
 40
4.3
  0
CIRCLE
  5
1A5
100
AcDbEntity
  8
Motor
  6
ByLayer
 62
  256
370
   -1
100
AcDbCircle
 10
770
 20
-127
 40
4.3
  0
CIRCLE
  5
1A6
100
AcDbEntity
  8
Motor
  6
ByLayer
 62
  256
370
   -1
100
AcDbCircle
 10
770
 20
-148
 40
4.3
  0
CIRCLE
  5
1A7
100
AcDbEntity
  8
Motor
  6
ByLayer
 62
  256
370
   -1
100
AcDbCircle
 10
742
 20
-148
 40
4.3
  0
CIRCLE
  5
1A8
100
AcDbEntity
  8
Motor
  6
ByLayer
 62
  256
370
   -1
100
AcDbCircle
 10
643
 20
-137.5
 40
3.1
  0
LINE
  5
1A9
100
AcDbEntity
  8
Motor
  6
ByLayer
 62
  256
370
   -1
100
AcDbLine
 10
624
 20
-120
 11
624
 21
-155
  0
CIRCLE
  5
1AA
100
AcDbEntity
  8
Motor
  6
ByLayer
 62
  256
370
   -1
100
AcDbCircle
 10
690
 20
-129
 40
2.75
  0
CIRCLE
  5
1AB
100
AcDbEntity
  8
Motor
  6
ByLayer
 62
  256
370
   -1
100
AcDbCircle
 10
710
 20
-129
 40
2.75
  0
CIRCLE
  5
1AC
100
AcDbEntity
  8
Motor
  6
ByLayer
 62
  256
370
   -1
100
AcDbCircle
 10
690
 20
-129
 40
4.35
  0
CIRCLE
  5
1AD
100
AcDbEntity
  8
Motor
  6
ByLayer
 62
  256
370
   -1
100
AcDbCircle
 10
710
 20
-129
 40
4.35
  0
LINE
  5
1AE
100
AcDbEntity
  8
Motor
  6
ByLayer
 62
  256
370
   -1
100
AcDbLine
 10
735
 20
-105
 11
776
 21
-105
  0
LINE
  5
1AF
100
AcDbEntity
  8
Motor
  6
ByLayer
 62
  256
370
   -1
100
AcDbLine
 10
665.0000000000007
 20
-105.0000000000001
 11
624
 21
-105
  0
LINE
  5
1B0
100
AcDbEntity
  8
Motor
  6
ByLayer
 62
  256
370
   -1
100
AcDbLine
 10
703
 20
-73
 11
697
 21
-73
  0
LINE
  5
1B1
100
AcDbEntity
  8
Motor
  6
ByLayer
 62
  256
370
   -1
100
AcDbLine
 10
697
 20
-73
 11
697
 21
-70.12880845167379
  0
LINE
  5
1B2
100
AcDbEntity
  8
Motor
  6
ByLayer
 62
  256
370
   -1
100
AcDbLine
 10
703
 20
-70.12880845167317
 11
703
 21
-73
  0
ARC
  5
1B3
100
AcDbEntity
  8
Motor
  6
ByLayer
 62
  256
370
   -1
100
AcDbCircle
 10
700
 20
-105
 40
35
100
AcDbArc
 50
1.017777498068325e-13
 51
180.0000000000001
  0
LINE
  5
1B4
100
AcDbEntity
  8
Motor
  6
ByLayer
 62
  256
370
   -1
100
AcDbLine
 10
624
 20
-60
 11
776
 21
-60
  0
LINE
  5
1B5
100
AcDbEntity
  8
Motor
  6
ByLayer
 62
  256
370
   -1
100
AcDbLine
 10
638.5832704408162
 20
-65
 11
638.5832704408112
 21
-60
  0
LINE
  5
1B6
100
AcDbEntity
  8
Motor
  6
ByLayer
 62
  256
370
   -1
100
AcDbLine
 10
647.4167295594218
 20
-60
 11
647.4167295594268
 21
-65
  0
LINE
  5
1B7
100
AcDbEntity
  8
Motor
  6
ByLayer
 62
  256
370
   -1
100
AcDbLine
 10
638.5832704408162
 20
-65
 11
647.4167295594268
 21
-65
  0
LINE
  5
1B8
100
AcDbEntity
  8
Motor
  6
ByLayer
 62
  256
370
   -1
100
AcDbLine
 10
761.4167295591838
 20
-65
 11
761.4167295591888
 21
-60
  0
LINE
  5
1B9
100
AcDbEntity
  8
Motor
  6
ByLayer
 62
  256
370
   -1
100
AcDbLine
 10
752.5832704405782
 20
-60
 11
752.5832704405732
 21
-65
  0
LINE
  5
1BA
100
AcDbEntity
  8
Motor
  6
ByLayer
 62
  256
370
   -1
100
AcDbLine
 10
761.4167295591838
 20
-65
 11
752.5832704405732
 21
-65
  0
LINE
  5
1BB
100
AcDbEntity
  8
Motor
  6
ByLayer
 62
  256
370
   -1
100
AcDbLine
 10
624
 20
-60
 11
624
 21
-105
  0
LINE
  5
1BC
100
AcDbEntity
  8
Motor
  6
ByLayer
 62
  256
370
   -1
100
AcDbLine
 10
776
 20
-105
 11
776
 21
-60
  0
LINE
  5
1BD
100
AcDbEntity
  8
Motor
  6
ByLayer
 62
  256
370
   -1
100
AcDbLine
 10
639.9
 20
-105
 11
639.9
 21
-65
  0
LINE
  5
1BE
100
AcDbEntity
  8
Motor
  6
ByLayer
 62
  256
370
   -1
100
AcDbLine
 10
646.1000000000001
 20
-105
 11
646.1000000000001
 21
-65
  0
LINE
  5
1BF
100
AcDbEntity
  8
Motor
  6
ByLayer
 62
  256
370
   -1
100
AcDbLine
 10
753.8999999999999
 20
-105
 11
753.8999999999999
 21
-65
  0
LINE
  5
1C0
100
AcDbEntity
  8
Motor
  6
ByLayer
 62
  256
370
   -1
100
AcDbLine
 10
760.1
 20
-105
 11
760.1
 21
-65
  0
LINE
  5
1C1
100
AcDbEntity
  8
Motor
  6
ByLayer
 62
  256
370
   -1
100
AcDbLine
 10
685.6500000000001
 20
-73.07700671929427
 11
685.65
 21
-65
  0
LINE
  5
1C2
100
AcDbEntity
  8
Motor
  6
ByLayer
 62
  256
370
   -1
100
AcDbLine
 10
694.3500000000001
 20
-70.45904604675906
 11
694.35
 21
-65
  0
LINE
  5
1C3
100
AcDbEntity
  8
Motor
  6
ByLayer
 62
  256
370
   -1
100
AcDbLine
 10
705.6500000000001
 20
-70.45904604675559
 11
705.65
 21
-65
  0
LINE
  5
1C4
100
AcDbEntity
  8
Motor
  6
ByLayer
 62
  256
370
   -1
100
AcDbLine
 10
714.3500000000001
 20
-73.07700671929553
 11
714.3500000000001
 21
-65
  0
LINE
  5
1C5
100
AcDbEntity
  8
Motor
  6
ByLayer
 62
  256
370
   -1
100
AcDbLine
 10
705.65
 20
-65
 11
714.3500000000001
 21
-65
  0
LINE
  5
1C6
100
AcDbEntity
  8
Motor
  6
ByLayer
 62
  256
370
   -1
100
AcDbLine
 10
685.65
 20
-65
 11
694.35
 21
-65
  0
LINE
  5
1C7
100
AcDbEntity
  8
Motor
  6
ByLayer
 62
  256
370
   -1
100
AcDbLine
 10
687.25
 20
-65
 11
687.25
 21
-60
  0
LINE
  5
1C8
100
AcDbEntity
  8
Motor
  6
ByLayer
 62
  256
370
   -1
100
AcDbLine
 10
692.75
 20
-65
 11
692.75
 21
-60
  0
LINE
  5
1C9
100
AcDbEntity
  8
Motor
  6
ByLayer
 62
  256
370
   -1
100
AcDbLine
 10
712.75
 20
-65
 11
712.75
 21
-60
  0
LINE
  5
1CA
100
AcDbEntity
  8
Motor
  6
ByLayer
 62
  256
370
   -1
100
AcDbLine
 10
707.25
 20
-65
 11
707.25
 21
-60
  0
CIRCLE
  5
1CB
100
AcDbEntity
  8
Motor
  6
ByLayer
 62
  256
370
   -1
100
AcDbCircle
 10
690
 20
-31
 40
2.75
  0
CIRCLE
  5
1CC
100
AcDbEntity
  8
Motor
  6
ByLayer
 62
  256
370
   -1
100
AcDbCircle
 10
710
 20
-31
 40
2.75
  0
LINE
  5
1CD
100
AcDbEntity
  8
Motor
  6
ByLayer
 62
  256
370
   -1
100
AcDbLine
 10
535
 20
-105
 11
576
 21
-105
  0
LINE
  5
1CE
100
AcDbEntity
  8
Motor
  6
ByLayer
 62
  256
370
   -1
100
AcDbLine
 10
465.0000000000007
 20
-105.0000000000001
 11
424
 21
-105
  0
LINE
  5
1CF
100
AcDbEntity
  8
Motor
  6
ByLayer
 62
  256
370
   -1
100
AcDbLine
 10
503
 20
-73
 11
497
 21
-73
  0
LINE
  5
1D0
100
AcDbEntity
  8
Motor
  6
ByLayer
 62
  256
370
   -1
100
AcDbLine
 10
497
 20
-73
 11
496.9999999999999
 21
-70.12880845167379
  0
LINE
  5
1D1
100
AcDbEntity
  8
Motor
  6
ByLayer
 62
  256
370
   -1
100
AcDbLine
 10
502.9999999999999
 20
-70.12880845167317
 11
503
 21
-73
  0
ARC
  5
1D2
100
AcDbEntity
  8
Motor
  6
ByLayer
 62
  256
370
   -1
100
AcDbCircle
 10
500
 20
-105
 40
35
100
AcDbArc
 50
94.9171003355289
 51
94.9171003355289
  0
LINE
  5
1D3
100
AcDbEntity
  8
Motor
  6
ByLayer
 62
  256
370
   -1
100
AcDbLine
 10
424
 20
-105
 11
424.0000000000001
 21
-120
  0
LINE
  5
1D4
100
AcDbEntity
  8
Motor
  6
ByLayer
 62
  256
370
   -1
100
AcDbLine
 10
576
 20
-120
 11
576
 21
-105
  0
LINE
  5
1D5
100
AcDbEntity
  8
Motor
  6
ByLayer
 62
  256
370
   -1
100
AcDbLine
 10
424
 20
-120
 11
452.3030399291537
 21
-120
  0
LINE
  5
1D6
100
AcDbEntity
  8
Motor
  6
ByLayer
 62
  256
370
   -1
100
AcDbLine
 10
576
 20
-120
 11
547.6969600708459
 21
-120.0000000000002
  0
ARC
  5
1D7
100
AcDbEntity
  8
Motor
  6
ByLayer
 62
  256
370
   -1
100
AcDbCircle
 10
500
 20
-105
 40
50
100
AcDbArc
 50
197.4576031237223
 51
342.5423968762775
  0
LINE
  5
1D8
100
AcDbEntity
  8
Motor
  6
ByLayer
 62
  256
370
   -1
100
AcDbLine
 10
439.8999999999999
 20
-120
 11
439.9
 21
-105
  0
LINE
  5
1D9
100
AcDbEntity
  8
Motor
  6
ByLayer
 62
  256
370
   -1
100
AcDbLine
 10
446.1000000000001
 20
-120
 11
446.1000000000001
 21
-105
  0
LINE
  5
1DA
100
AcDbEntity
  8
Motor
  6
ByLayer
 62
  256
370
   -1
100
AcDbLine
 10
560.1000000000001
 20
-120
 11
560.1
 21
-105
  0
LINE
  5
1DB
100
AcDbEntity
  8
Motor
  6
ByLayer
 62
  256
370
   -1
100
AcDbLine
 10
553.8999999999999
 20
-120
 11
553.8999999999999
 21
-105
  0
LINE
  5
1DC
100
AcDbEntity
  8
Motor
  6
ByLayer
 62
  256
370
   -1
100
AcDbLine
 10
424
 20
-60
 11
576
 21
-60
  0
LINE
  5
1DD
100
AcDbEntity
  8
Motor
  6
ByLayer
 62
  256
370
   -1
100
AcDbLine
 10
438.5832704408162
 20
-65
 11
438.5832704408113
 21
-60
  0
LINE
  5
1DE
100
AcDbEntity
  8
Motor
  6
ByLayer
 62
  256
370
   -1
100
AcDbLine
 10
447.4167295594219
 20
-60
 11
447.4167295594268
 21
-65
  0
LINE
  5
1DF
100
AcDbEntity
  8
Motor
  6
ByLayer
 62
  256
370
   -1
100
AcDbLine
 10
438.5832704408162
 20
-65
 11
447.4167295594269
 21
-65
  0
LINE
  5
1E0
100
AcDbEntity
  8
Motor
  6
ByLayer
 62
  256
370
   -1
100
AcDbLine
 10
561.4167295591838
 20
-65
 11
561.4167295591888
 21
-60
  0
LINE
  5
1E1
100
AcDbEntity
  8
Motor
  6
ByLayer
 62
  256
370
   -1
100
AcDbLine
 10
552.5832704405782
 20
-60
 11
552.5832704405732
 21
-65
  0
LINE
  5
1E2
100
AcDbEntity
  8
Motor
  6
ByLayer
 62
  256
370
   -1
100
AcDbLine
 10
561.4167295591838
 20
-65
 11
552.5832704405732
 21
-65
  0
LINE
  5
1E3
100
AcDbEntity
  8
Motor
  6
ByLayer
 62
  256
370
   -1
100
AcDbLine
 10
424.0000000000001
 20
-60
 11
424
 21
-105
  0
LINE
  5
1E4
100
AcDbEntity
  8
Motor
  6
ByLayer
 62
  256
370
   -1
100
AcDbLine
 10
576
 20
-105
 11
576
 21
-60
  0
LINE
  5
1E5
100
AcDbEntity
  8
Motor
  6
ByLayer
 62
  256
370
   -1
100
AcDbLine
 10
553.8999999999999
 20
-105
 11
553.8999999999999
 21
-65
  0
LINE
  5
1E6
100
AcDbEntity
  8
Motor
  6
ByLayer
 62
  256
370
   -1
100
AcDbLine
 10
560.1
 20
-105
 11
560.1
 21
-65
  0
LINE
  5
1E7
100
AcDbEntity
  8
Motor
  6
ByLayer
 62
  256
370
   -1
100
AcDbLine
 10
446.1000000000001
 20
-105
 11
446.1000000000001
 21
-65
  0
LINE
  5
1E8
100
AcDbEntity
  8
Motor
  6
ByLayer
 62
  256
370
   -1
100
AcDbLine
 10
439.9
 20
-105
 11
439.9
 21
-65
  0
CIRCLE
  5
1E9
100
AcDbEntity
  8
Motor
  6
ByLayer
 62
  256
370
   -1
100
AcDbCircle
 10
757
 20
-22.49999999999999
 40
3.1
  0
LINE
  5
1EA
100
AcDbEntity
  8
Motor
  6
ByLayer
 62
  256
370
   -1
100
AcDbLine
 10
761.4167295593064
 20
-19.94999999999663
 11
757
 21
-17.39999999999999
  0
LINE
  5
1EB
100
AcDbEntity
  8
Motor
  6
ByLayer
 62
  256
370
   -1
100
AcDbLine
 10
757
 20
-17.39999999999999
 11
752.5832704406986
 21
-19.94999999999953
  0
LINE
  5
1EC
100
AcDbEntity
  8
Motor
  6
ByLayer
 62
  256
370
   -1
100
AcDbLine
 10
752.5832704406935
 20
-25.05000000000337
 11
757
 21
-27.59999999999997
  0
LINE
  5
1ED
100
AcDbEntity
  8
Motor
  6
ByLayer
 62
  256
370
   -1
100
AcDbLine
 10
757
 20
-27.59999999999997
 11
761.4167295593014
 21
-25.05000000000044
  0
LINE
  5
1EE
100
AcDbEntity
  8
Motor
  6
ByLayer
 62
  256
370
   -1
100
AcDbLine
 10
761.4167295593064
 20
-19.94999999999663
 11
761.4167295593014
 21
-25.05000000000044
  0
LINE
  5
1EF
100
AcDbEntity
  8
Motor
  6
ByLayer
 62
  256
370
   -1
100
AcDbLine
 10
752.5832704406986
 20
-19.94999999999953
 11
752.5832704406935
 21
-25.05000000000337
  0
CIRCLE
  5
1F0
100
AcDbEntity
  8
Motor
  6
ByLayer
 62
  256
370
   -1
100
AcDbCircle
 10
757
 20
-137.5
 40
3.1
  0
LINE
  5
1F1
100
AcDbEntity
  8
Motor
  6
ByLayer
 62
  256
370
   -1
100
AcDbLine
 10
503
 20
-73
 11
497
 21
-73
  0
LINE
  5
1F2
100
AcDbEntity
  8
Motor
  6
ByLayer
 62
  256
370
   -1
100
AcDbLine
 10
497
 20
-73
 11
497
 21
-70.12880845167379
  0
LINE
  5
1F3
100
AcDbEntity
  8
Motor
  6
ByLayer
 62
  256
370
   -1
100
AcDbLine
 10
503
 20
-70.12880845167317
 11
503
 21
-73
  0
LINE
  5
1F4
100
AcDbEntity
  8
Motor
  6
ByLayer
 62
  256
370
   -1
100
AcDbLine
 10
485.6500000000001
 20
-73.07700671929427
 11
485.65
 21
-65
  0
LINE
  5
1F5
100
AcDbEntity
  8
Motor
  6
ByLayer
 62
  256
370
   -1
100
AcDbLine
 10
494.3500000000001
 20
-70.45904604675906
 11
494.35
 21
-65
  0
LINE
  5
1F6
100
AcDbEntity
  8
Motor
  6
ByLayer
 62
  256
370
   -1
100
AcDbLine
 10
505.6500000000001
 20
-70.45904604675559
 11
505.65
 21
-65
  0
LINE
  5
1F7
100
AcDbEntity
  8
Motor
  6
ByLayer
 62
  256
370
   -1
100
AcDbLine
 10
514.3500000000001
 20
-73.07700671929553
 11
514.3500000000001
 21
-65
  0
LINE
  5
1F8
100
AcDbEntity
  8
Motor
  6
ByLayer
 62
  256
370
   -1
100
AcDbLine
 10
505.65
 20
-65
 11
514.3500000000001
 21
-65
  0
LINE
  5
1F9
100
AcDbEntity
  8
Motor
  6
ByLayer
 62
  256
370
   -1
100
AcDbLine
 10
485.65
 20
-65
 11
494.35
 21
-65
  0
CIRCLE
  5
1FA
100
AcDbEntity
  8
Motor
  6
ByLayer
 62
  256
370
   -1
100
AcDbCircle
 10
444
 20
-47
 40
5
  0
LINE
  5
1FB
100
AcDbEntity
  8
Motor
  6
ByLayer
 62
  256
370
   -1
100
AcDbLine
 10
451
 20
-34
 11
437
 21
-34
  0
LINE
  5
1FC
100
AcDbEntity
  8
Motor
  6
ByLayer
 62
  256
370
   -1
100
AcDbLine
 10
424
 20
-60
 11
464
 21
-60
  0
LINE
  5
1FD
100
AcDbEntity
  8
Motor
  6
ByLayer
 62
  256
370
   -1
100
AcDbLine
 10
424
 20
-39
 11
433
 21
-39
  0
LINE
  5
1FE
100
AcDbEntity
  8
Motor
  6
ByLayer
 62
  256
370
   -1
100
AcDbLine
 10
433
 20
-39
 11
437
 21
-34
  0
LINE
  5
1FF
100
AcDbEntity
  8
Motor
  6
ByLayer
 62
  256
370
   -1
100
AcDbLine
 10
464
 20
-39
 11
455
 21
-39
  0
LINE
  5
200
100
AcDbEntity
  8
Motor
  6
ByLayer
 62
  256
370
   -1
100
AcDbLine
 10
455
 20
-39
 11
451
 21
-34
  0
LINE
  5
201
100
AcDbEntity
  8
Motor
  6
ByLayer
 62
  256
370
   -1
100
AcDbLine
 10
424
 20
-39
 11
424
 21
-60
  0
LINE
  5
202
100
AcDbEntity
  8
Motor
  6
ByLayer
 62
  256
370
   -1
100
AcDbLine
 10
464
 20
-60
 11
464
 21
-39
  0
CIRCLE
  5
203
100
AcDbEntity
  8
Motor
  6
ByLayer
 62
  256
370
   -1
100
AcDbCircle
 10
556
 20
-47
 40
5
  0
LINE
  5
204
100
AcDbEntity
  8
Motor
  6
ByLayer
 62
  256
370
   -1
100
AcDbLine
 10
563
 20
-34
 11
549
 21
-34
  0
LINE
  5
205
100
AcDbEntity
  8
Motor
  6
ByLayer
 62
  256
370
   -1
100
AcDbLine
 10
536
 20
-60
 11
576
 21
-60
  0
LINE
  5
206
100
AcDbEntity
  8
Motor
  6
ByLayer
 62
  256
370
   -1
100
AcDbLine
 10
536
 20
-39
 11
545
 21
-39
  0
LINE
  5
207
100
AcDbEntity
  8
Motor
  6
ByLayer
 62
  256
370
   -1
100
AcDbLine
 10
545
 20
-39
 11
549
 21
-34
  0
LINE
  5
208
100
AcDbEntity
  8
Motor
  6
ByLayer
 62
  256
370
   -1
100
AcDbLine
 10
576
 20
-39
 11
567
 21
-39
  0
LINE
  5
209
100
AcDbEntity
  8
Motor
  6
ByLayer
 62
  256
370
   -1
100
AcDbLine
 10
567
 20
-39
 11
563
 21
-34
  0
LINE
  5
20A
100
AcDbEntity
  8
Motor
  6
ByLayer
 62
  256
370
   -1
100
AcDbLine
 10
536
 20
-39
 11
536
 21
-60
  0
LINE
  5
20B
100
AcDbEntity
  8
Motor
  6
ByLayer
 62
  256
370
   -1
100
AcDbLine
 10
576
 20
-60
 11
576
 21
-39
  0
CIRCLE
  5
20C
100
AcDbEntity
  8
Motor
  6
ByLayer
 62
  256
370
   -1
100
AcDbCircle
 10
500
 20
-38.5
 40
5
  0
LINE
  5
20D
100
AcDbEntity
  8
Motor
  6
ByLayer
 62
  256
370
   -1
100
AcDbLine
 10
482
 20
-32
 11
518
 21
-32
  0
LINE
  5
20E
100
AcDbEntity
  8
Motor
  6
ByLayer
 62
  256
370
   -1
100
AcDbLine
 10
518
 20
-32
 11
518
 21
-45
  0
LINE
  5
20F
100
AcDbEntity
  8
Motor
  6
ByLayer
 62
  256
370
   -1
100
AcDbLine
 10
482
 20
-45
 11
482
 21
-32
  0
LINE
  5
210
100
AcDbEntity
  8
Motor
  6
ByLayer
 62
  256
370
   -1
100
AcDbLine
 10
518
 20
-45
 11
482
 21
-45
  0
LINE
  5
211
100
AcDbEntity
  8
Motor
  6
ByLayer
 62
  256
370
   -1
100
AcDbLine
 10
487.25
 20
-65
 11
487.25
 21
-60
  0
LINE
  5
212
100
AcDbEntity
  8
Motor
  6
ByLayer
 62
  256
370
   -1
100
AcDbLine
 10
492.75
 20
-65
 11
492.75
 21
-60
  0
LINE
  5
213
100
AcDbEntity
  8
Motor
  6
ByLayer
 62
  256
370
   -1
100
AcDbLine
 10
507.25
 20
-65
 11
507.25
 21
-60
  0
LINE
  5
214
100
AcDbEntity
  8
Motor
  6
ByLayer
 62
  256
370
   -1
100
AcDbLine
 10
512.75
 20
-65
 11
512.75
 21
-60
  0
LINE
  5
215
100
AcDbEntity
  8
Motor
  6
ByLayer
 62
  256
370
   -1
100
AcDbLine
 10
487.25
 20
-60
 11
487.25
 21
-45
  0
LINE
  5
216
100
AcDbEntity
  8
Motor
  6
ByLayer
 62
  256
370
   -1
100
AcDbLine
 10
487.25
 20
-45
 11
487.25
 21
-32
  0
LINE
  5
217
100
AcDbEntity
  8
Motor
  6
ByLayer
 62
  256
370
   -1
100
AcDbLine
 10
492.75
 20
-60
 11
492.75
 21
-45
  0
LINE
  5
218
100
AcDbEntity
  8
Motor
  6
ByLayer
 62
  256
370
   -1
100
AcDbLine
 10
492.75
 20
-45
 11
492.75
 21
-32
  0
LINE
  5
219
100
AcDbEntity
  8
Motor
  6
ByLayer
 62
  256
370
   -1
100
AcDbLine
 10
507.25
 20
-60
 11
507.25
 21
-45
  0
LINE
  5
21A
100
AcDbEntity
  8
Motor
  6
ByLayer
 62
  256
370
   -1
100
AcDbLine
 10
507.25
 20
-45
 11
507.25
 21
-32
  0
LINE
  5
21B
100
AcDbEntity
  8
Motor
  6
ByLayer
 62
  256
370
   -1
100
AcDbLine
 10
512.75
 20
-60
 11
512.75
 21
-45
  0
LINE
  5
21C
100
AcDbEntity
  8
Motor
  6
ByLayer
 62
  256
370
   -1
100
AcDbLine
 10
512.75
 20
-45
 11
512.75
 21
-32
  0
LINE
  5
21D
100
AcDbEntity
  8
Motor
  6
ByLayer
 62
  256
370
   -1
100
AcDbLine
 10
494.75
 20
-60
 11
494.75
 21
-45
  0
LINE
  5
21E
100
AcDbEntity
  8
Motor
  6
ByLayer
 62
  256
370
   -1
100
AcDbLine
 10
514.75
 20
-60
 11
514.75
 21
-45
  0
LINE
  5
21F
100
AcDbEntity
  8
Motor
  6
ByLayer
 62
  256
370
   -1
100
AcDbLine
 10
485.25
 20
-60
 11
485.25
 21
-45
  0
LINE
  5
220
100
AcDbEntity
  8
Motor
  6
ByLayer
 62
  256
370
   -1
100
AcDbLine
 10
505.25
 20
-60
 11
505.25
 21
-45
  0
LINE
  5
221
100
AcDbEntity
  8
Motor
  6
ByLayer
 62
  256
370
   -1
100
AcDbLine
 10
486
 20
-32
 11
486
 21
-27
  0
LINE
  5
222
100
AcDbEntity
  8
Motor
  6
ByLayer
 62
  256
370
   -1
100
AcDbLine
 10
494
 20
-32
 11
494
 21
-27
  0
LINE
  5
223
100
AcDbEntity
  8
Motor
  6
ByLayer
 62
  256
370
   -1
100
AcDbLine
 10
486
 20
-27
 11
494
 21
-27
  0
LINE
  5
224
100
AcDbEntity
  8
Motor
  6
ByLayer
 62
  256
370
   -1
100
AcDbLine
 10
506
 20
-32
 11
506
 21
-27
  0
LINE
  5
225
100
AcDbEntity
  8
Motor
  6
ByLayer
 62
  256
370
   -1
100
AcDbLine
 10
514
 20
-32
 11
514
 21
-27
  0
LINE
  5
226
100
AcDbEntity
  8
Motor
  6
ByLayer
 62
  256
370
   -1
100
AcDbLine
 10
506
 20
-27
 11
514
 21
-27
  0
LINE
  5
227
100
AcDbEntity
  8
Motor
  6
ByLayer
 62
  256
370
   -1
100
AcDbLine
 10
195
 20
-305
 11
198
 21
-305
  0
LINE
  5
228
100
AcDbEntity
  8
Motor
  6
ByLayer
 62
  256
370
   -1
100
AcDbLine
 10
262
 20
-305
 11
265
 21
-305
  0
LINE
  5
229
100
AcDbEntity
  8
Motor
  6
ByLayer
 62
  256
370
   -1
100
AcDbLine
 10
198
 20
-294
 11
198
 21
-305
  0
LINE
  5
22A
100
AcDbEntity
  8
Motor
  6
ByLayer
 62
  256
370
   -1
100
AcDbLine
 10
195
 20
-294
 11
192
 21
-294
  0
LINE
  5
22B
100
AcDbEntity
  8
Motor
  6
ByLayer
 62
  256
370
   -1
100
AcDbLine
 10
192
 20
-294
 11
192
 21
-308
  0
LINE
  5
22C
100
AcDbEntity
  8
Motor
  6
ByLayer
 62
  256
370
   -1
100
AcDbLine
 10
195
 20
-294
 11
195
 21
-305
  0
LINE
  5
22D
100
AcDbEntity
  8
Motor
  6
ByLayer
 62
  256
370
   -1
100
AcDbLine
 10
195
 20
-305
 11
198
 21
-305
  0
LINE
  5
22E
100
AcDbEntity
  8
Motor
  6
ByLayer
 62
  256
370
   -1
100
AcDbLine
 10
265
 20
-305
 11
262
 21
-305
  0
LINE
  5
22F
100
AcDbEntity
  8
Motor
  6
ByLayer
 62
  256
370
   -1
100
AcDbLine
 10
262
 20
-294
 11
262
 21
-305
  0
LINE
  5
230
100
AcDbEntity
  8
Motor
  6
ByLayer
 62
  256
370
   -1
100
AcDbLine
 10
265
 20
-294
 11
268
 21
-294
  0
LINE
  5
231
100
AcDbEntity
  8
Motor
  6
ByLayer
 62
  256
370
   -1
100
AcDbLine
 10
268
 20
-294
 11
268
 21
-308
  0
LINE
  5
232
100
AcDbEntity
  8
Motor
  6
ByLayer
 62
  256
370
   -1
100
AcDbLine
 10
265
 20
-294
 11
265
 21
-305
  0
LINE
  5
233
100
AcDbEntity
  8
Motor
  6
ByLayer
 62
  256
370
   -1
100
AcDbLine
 10
195
 20
-26
 11
195
 21
-305
  0
LINE
  5
234
100
AcDbEntity
  8
Motor
  6
ByLayer
 62
  256
370
   -1
100
AcDbLine
 10
198
 20
-305
 11
198
 21
-26
  0
LINE
  5
235
100
AcDbEntity
  8
Motor
  6
ByLayer
 62
  256
370
   -1
100
AcDbLine
 10
262
 20
-26
 11
262
 21
-305
  0
LINE
  5
236
100
AcDbEntity
  8
Motor
  6
ByLayer
 62
  256
370
   -1
100
AcDbLine
 10
265
 20
-305
 11
265
 21
-26
  0
LINE
  5
237
100
AcDbEntity
  8
Motor
  6
ByLayer
 62
  256
370
   -1
100
AcDbLine
 10
195
 20
-305
 11
198
 21
-305
  0
LINE
  5
238
100
AcDbEntity
  8
Motor
  6
ByLayer
 62
  256
370
   -1
100
AcDbLine
 10
262
 20
-305
 11
265
 21
-305
  0
CIRCLE
  5
239
100
AcDbEntity
  8
X
  6
ByLayer
 62
  256
370
   -1
100
AcDbCircle
 10
-130
 20
45
 40
17
  0
LINE
  5
23A
100
AcDbEntity
  8
X
  6
ByLayer
 62
  256
370
   -1
100
AcDbLine
 10
-160
 20
48
 11
-160
 21
42
  0
LINE
  5
23B
100
AcDbEntity
  8
X
  6
ByLayer
 62
  256
370
   -1
100
AcDbLine
 10
-100
 20
48
 11
-100
 21
42
  0
LINE
  5
23C
100
AcDbEntity
  8
X
  6
ByLayer
 62
  256
370
   -1
100
AcDbLine
 10
-139.2562312923824
 20
60.43768707617564
 11
-160
 21
48
  0
LINE
  5
23D
100
AcDbEntity
  8
X
  6
ByLayer
 62
  256
370
   -1
100
AcDbLine
 10
-120.7437687076176
 20
60.43768707617564
 11
-100
 21
48
  0
LINE
  5
23E
100
AcDbEntity
  8
X
  6
ByLayer
 62
  256
370
   -1
100
AcDbLine
 10
-139.2562312923824
 20
29.56231292382436
 11
-160
 21
42
  0
LINE
  5
23F
100
AcDbEntity
  8
X
  6
ByLayer
 62
  256
370
   -1
100
AcDbLine
 10
-120.7437687076176
 20
29.56231292382436
 11
-100
 21
42
  0
ARC
  5
240
100
AcDbEntity
  8
X
  6
ByLayer
 62
  256
370
   -1
100
AcDbCircle
 10
-130
 20
45
 40
18
100
AcDbArc
 50
59.05366018301763
 51
120.9463398169824
  0
ARC
  5
241
100
AcDbEntity
  8
X
  6
ByLayer
 62
  256
370
   -1
100
AcDbCircle
 10
-130
 20
45
 40
18
100
AcDbArc
 50
239.0536601830176
 51
300.9463398169824
  0
CIRCLE
  5
242
100
AcDbEntity
  8
X
  6
ByLayer
 62
  256
370
   -1
100
AcDbCircle
 10
-130
 20
45
 40
5
  0
CIRCLE
  5
243
100
AcDbEntity
  8
X
  6
ByLayer
 62
  256
370
   -1
100
AcDbCircle
 10
-152.5
 20
45
 40
3.5
  0
CIRCLE
  5
244
100
AcDbEntity
  8
X
  6
ByLayer
 62
  256
370
   -1
100
AcDbCircle
 10
-107.5
 20
45
 40
3.5
  0
CIRCLE
  5
245
100
AcDbEntity
  8
X
  6
ByLayer
 62
  256
370
   -1
100
AcDbCircle
 10
-152.5
 20
45
 40
3.5
  0
CIRCLE
  5
246
100
AcDbEntity
  8
X
  6
ByLayer
 62
  256
370
   -1
100
AcDbCircle
 10
-107.5
 20
45
 40
3.5
  0
CIRCLE
  5
247
100
AcDbEntity
  8
X
  6
ByLayer
 62
  256
370
   -1
100
AcDbCircle
 10
-130
 20
45
 40
5
  0
LINE
  5
248
100
AcDbEntity
  8
X
  6
ByLayer
 62
  256
370
   -1
100
AcDbLine
 10
-148
 20
51.5
 11
-112
 21
51.5
  0
LINE
  5
249
100
AcDbEntity
  8
X
  6
ByLayer
 62
  256
370
   -1
100
AcDbLine
 10
-112
 20
51.5
 11
-112
 21
38.5
  0
LINE
  5
24A
100
AcDbEntity
  8
X
  6
ByLayer
 62
  256
370
   -1
100
AcDbLine
 10
-148
 20
38.5
 11
-148
 21
51.5
  0
LINE
  5
24B
100
AcDbEntity
  8
X
  6
ByLayer
 62
  256
370
   -1
100
AcDbLine
 10
-112
 20
38.5
 11
-148
 21
38.5
  0
LINE
  5
24C
100
AcDbEntity
  8
X
  6
ByLayer
 62
  256
370
   -1
100
AcDbLine
 10
-209
 20
25
 11
-51
 21
25
  0
CIRCLE
  5
24D
100
AcDbEntity
  8
X
  6
ByLayer
 62
  256
370
   -1
100
AcDbCircle
 10
-186
 20
36.5
 40
5
  0
LINE
  5
24E
100
AcDbEntity
  8
X
  6
ByLayer
 62
  256
370
   -1
100
AcDbLine
 10
-179
 20
49.5
 11
-193
 21
49.5
  0
LINE
  5
24F
100
AcDbEntity
  8
X
  6
ByLayer
 62
  256
370
   -1
100
AcDbLine
 10
-206
 20
23.5
 11
-166
 21
23.5
  0
LINE
  5
250
100
AcDbEntity
  8
X
  6
ByLayer
 62
  256
370
   -1
100
AcDbLine
 10
-206
 20
44.5
 11
-197
 21
44.5
  0
LINE
  5
251
100
AcDbEntity
  8
X
  6
ByLayer
 62
  256
370
   -1
100
AcDbLine
 10
-197
 20
44.5
 11
-193
 21
49.5
  0
LINE
  5
252
100
AcDbEntity
  8
X
  6
ByLayer
 62
  256
370
   -1
100
AcDbLine
 10
-166
 20
44.5
 11
-175
 21
44.5
  0
LINE
  5
253
100
AcDbEntity
  8
X
  6
ByLayer
 62
  256
370
   -1
100
AcDbLine
 10
-175
 20
44.5
 11
-179
 21
49.5
  0
LINE
  5
254
100
AcDbEntity
  8
X
  6
ByLayer
 62
  256
370
   -1
100
AcDbLine
 10
-206
 20
44.5
 11
-206
 21
23.5
  0
LINE
  5
255
100
AcDbEntity
  8
X
  6
ByLayer
 62
  256
370
   -1
100
AcDbLine
 10
-166
 20
23.5
 11
-166
 21
44.5
  0
CIRCLE
  5
256
100
AcDbEntity
  8
X
  6
ByLayer
 62
  256
370
   -1
100
AcDbCircle
 10
-74
 20
36.5
 40
5
  0
LINE
  5
257
100
AcDbEntity
  8
X
  6
ByLayer
 62
  256
370
   -1
100
AcDbLine
 10
-67
 20
49.5
 11
-81
 21
49.5
  0
LINE
  5
258
100
AcDbEntity
  8
X
  6
ByLayer
 62
  256
370
   -1
100
AcDbLine
 10
-94
 20
23.5
 11
-54
 21
23.5
  0
LINE
  5
259
100
AcDbEntity
  8
X
  6
ByLayer
 62
  256
370
   -1
100
AcDbLine
 10
-94
 20
44.5
 11
-85
 21
44.5
  0
LINE
  5
25A
100
AcDbEntity
  8
X
  6
ByLayer
 62
  256
370
   -1
100
AcDbLine
 10
-85
 20
44.5
 11
-81
 21
49.5
  0
LINE
  5
25B
100
AcDbEntity
  8
X
  6
ByLayer
 62
  256
370
   -1
100
AcDbLine
 10
-54
 20
44.5
 11
-63
 21
44.5
  0
LINE
  5
25C
100
AcDbEntity
  8
X
  6
ByLayer
 62
  256
370
   -1
100
AcDbLine
 10
-63
 20
44.5
 11
-67
 21
49.5
  0
LINE
  5
25D
100
AcDbEntity
  8
X
  6
ByLayer
 62
  256
370
   -1
100
AcDbLine
 10
-94
 20
44.5
 11
-94
 21
23.5
  0
LINE
  5
25E
100
AcDbEntity
  8
X
  6
ByLayer
 62
  256
370
   -1
100
AcDbLine
 10
-54
 20
23.5
 11
-54
 21
44.5
  0
CIRCLE
  5
25F
100
AcDbEntity
  8
X
  6
ByLayer
 62
  256
370
   -1
100
AcDbCircle
 10
-202
 20
36.5
 40
2.25
  0
CIRCLE
  5
260
100
AcDbEntity
  8
X
  6
ByLayer
 62
  256
370
   -1
100
AcDbCircle
 10
-170
 20
36.5
 40
2.25
  0
CIRCLE
  5
261
100
AcDbEntity
  8
X
  6
ByLayer
 62
  256
370
   -1
100
AcDbCircle
 10
-90
 20
36.5
 40
2.25
  0
CIRCLE
  5
262
100
AcDbEntity
  8
X
  6
ByLayer
 62
  256
370
   -1
100
AcDbCircle
 10
-58
 20
36.5
 40
2.25
  0
LINE
  5
263
100
AcDbEntity
  8
X
  6
ByLayer
 62
  256
370
   -1
100
AcDbLine
 10
-209
 20
55
 11
-209
 21
25
  0
LINE
  5
264
100
AcDbEntity
  8
X
  6
ByLayer
 62
  256
370
   -1
100
AcDbLine
 10
-51
 20
25
 11
-51
 21
55
  0
LINE
  5
265
100
AcDbEntity
  8
X
  6
ByLayer
 62
  256
370
   -1
100
AcDbLine
 10
-150
 20
85
 11
-110
 21
85
  0
LINE
  5
266
100
AcDbEntity
  8
X
  6
ByLayer
 62
  256
370
   -1
100
AcDbLine
 10
-110
 20
65
 11
-150
 21
65
  0
LINE
  5
267
100
AcDbEntity
  8
X
  6
ByLayer
 62
  256
370
   -1
100
AcDbLine
 10
-150.2
 20
85
 11
-209
 21
55
  0
LINE
  5
268
100
AcDbEntity
  8
X
  6
ByLayer
 62
  256
370
   -1
100
AcDbLine
 10
-109.8
 20
85
 11
-51
 21
55
  0
CIRCLE
  5
269
100
AcDbEntity
  8
X
  6
ByLayer
 62
  256
370
   -1
100
AcDbCircle
 10
-140
 20
75
 40
2.599999999999994
  0
CIRCLE
  5
26A
100
AcDbEntity
  8
X
  6
ByLayer
 62
  256
370
   -1
100
AcDbCircle
 10
-120
 20
75
 40
2.600000000000001
  0
LINE
  5
26B
100
AcDbEntity
  8
X
  6
ByLayer
 62
  256
370
   -1
100
AcDbLine
 10
-109.8
 20
85
 11
-150.2
 21
85
  0
CIRCLE
  5
26C
100
AcDbEntity
  8
X
  6
ByLayer
 62
  256
370
   -1
100
AcDbCircle
 10
-152.5
 20
-260
 40
3.5
  0
CIRCLE
  5
26D
100
AcDbEntity
  8
X
  6
ByLayer
 62
  256
370
   -1
100
AcDbCircle
 10
-107.5
 20
-260
 40
3.5
  0
CIRCLE
  5
26E
100
AcDbEntity
  8
X
  6
ByLayer
 62
  256
370
   -1
100
AcDbCircle
 10
-130
 20
-260
 40
17.2
  0
CIRCLE
  5
26F
100
AcDbEntity
  8
X
  6
ByLayer
 62
  256
370
   -1
100
AcDbCircle
 10
-202
 20
-251.5
 40
2.25
  0
CIRCLE
  5
270
100
AcDbEntity
  8
X
  6
ByLayer
 62
  256
370
   -1
100
AcDbCircle
 10
-170
 20
-251.5
 40
2.25
  0
CIRCLE
  5
271
100
AcDbEntity
  8
X
  6
ByLayer
 62
  256
370
   -1
100
AcDbCircle
 10
-90
 20
-251.5
 40
2.25
  0
CIRCLE
  5
272
100
AcDbEntity
  8
X
  6
ByLayer
 62
  256
370
   -1
100
AcDbCircle
 10
-58
 20
-251.5
 40
2.25
  0
LINE
  5
273
100
AcDbEntity
  8
X
  6
ByLayer
 62
  256
370
   -1
100
AcDbLine
 10
-209
 20
-270
 11
-209
 21
-240
  0
LINE
  5
274
100
AcDbEntity
  8
X
  6
ByLayer
 62
  256
370
   -1
100
AcDbLine
 10
-51
 20
-240
 11
-51
 21
-270
  0
LINE
  5
275
100
AcDbEntity
  8
X
  6
ByLayer
 62
  256
370
   -1
100
AcDbLine
 10
-101.5
 20
-295.765306122449
 11
-51
 21
-270
  0
LINE
  5
276
100
AcDbEntity
  8
X
  6
ByLayer
 62
  256
370
   -1
100
AcDbLine
 10
-158.5
 20
-295.765306122449
 11
-209
 21
-270
  0
CIRCLE
  5
277
100
AcDbEntity
  8
X
  6
ByLayer
 62
  256
370
   -1
100
AcDbCircle
 10
-140
 20
-290
 40
2.599999999999994
  0
CIRCLE
  5
278
100
AcDbEntity
  8
X
  6
ByLayer
 62
  256
370
   -1
100
AcDbCircle
 10
-120
 20
-290
 40
2.600000000000001
  0
ARC
  5
279
100
AcDbEntity
  8
X
  6
ByLayer
 62
  256
370
   -1
100
AcDbCircle
 10
-130
 20
-328.5
 40
19.2
100
AcDbArc
 50
0
 51
180
  0
ARC
  5
27A
100
AcDbEntity
  8
X
  6
ByLayer
 62
  256
370
   -1
100
AcDbCircle
 10
-130
 20
-340.5
 40
19.2
100
AcDbArc
 50
179.9999847484208
 51
1.216513345417657e-05
  0
LINE
  5
27B
100
AcDbEntity
  8
X
  6
ByLayer
 62
  256
370
   -1
100
AcDbLine
 10
-149.2
 20
-340.4999948891468
 11
-149.2
 21
-328.5
  0
LINE
  5
27C
100
AcDbEntity
  8
X
  6
ByLayer
 62
  256
370
   -1
100
AcDbLine
 10
-110.8
 20
-328.5
 11
-110.8
 21
-340.4999959234246
  0
LINE
  5
27D
100
AcDbEntity
  8
X
  6
ByLayer
 62
  256
370
   -1
100
AcDbLine
 10
-156.1699999999999
 20
-304.9299999999999
 11
-156.1699999999999
 21
-316.9299999999999
  0
LINE
  5
27E
100
AcDbEntity
  8
X
  6
ByLayer
 62
  256
370
   -1
100
AcDbLine
 10
-150.9699999999999
 20
-316.9299999999999
 11
-150.9699999999999
 21
-304.9299999999999
  0
ARC
  5
27F
100
AcDbEntity
  8
X
  6
ByLayer
 62
  256
370
   -1
100
AcDbCircle
 10
-153.5699999999999
 20
-304.9299999999999
 40
2.6
100
AcDbArc
 50
0
 51
179.9999426026704
  0
ARC
  5
280
100
AcDbEntity
  8
X
  6
ByLayer
 62
  256
370
   -1
100
AcDbCircle
 10
-153.5699999999999
 20
-316.9299999999999
 40
2.6
100
AcDbArc
 50
180
 51
359.9999999999987
  0
LINE
  5
281
100
AcDbEntity
  8
X
  6
ByLayer
 62
  256
370
   -1
100
AcDbLine
 10
-101.5
 20
-369
 11
-158.5
 21
-369
  0
LINE
  5
282
100
AcDbEntity
  8
X
  6
ByLayer
 62
  256
370
   -1
100
AcDbLine
 10
-109.0999999999999
 20
-305
 11
-109.0999999999999
 21
-317
  0
LINE
  5
283
100
AcDbEntity
  8
X
  6
ByLayer
 62
  256
370
   -1
100
AcDbLine
 10
-103.8999999999999
 20
-317
 11
-103.8999999999999
 21
-305
  0
ARC
  5
284
100
AcDbEntity
  8
X
  6
ByLayer
 62
  256
370
   -1
100
AcDbCircle
 10
-106.4999999999999
 20
-305
 40
2.6
100
AcDbArc
 50
0
 51
179.9999426026704
  0
ARC
  5
285
100
AcDbEntity
  8
X
  6
ByLayer
 62
  256
370
   -1
100
AcDbCircle
 10
-106.4999999999999
 20
-317
 40
2.6
100
AcDbArc
 50
180
 51
359.9999999999987
  0
LINE
  5
286
100
AcDbEntity
  8
X
  6
ByLayer
 62
  256
370
   -1
100
AcDbLine
 10
-156.1
 20
-352
 11
-156.1
 21
-364
  0
LINE
  5
287
100
AcDbEntity
  8
X
  6
ByLayer
 62
  256
370
   -1
100
AcDbLine
 10
-150.9
 20
-364
 11
-150.9
 21
-352
  0
ARC
  5
288
100
AcDbEntity
  8
X
  6
ByLayer
 62
  256
370
   -1
100
AcDbCircle
 10
-153.5
 20
-352
 40
2.6
100
AcDbArc
 50
0
 51
179.9999426026704
  0
ARC
  5
289
100
AcDbEntity
  8
X
  6
ByLayer
 62
  256
370
   -1
100
AcDbCircle
 10
-153.5
 20
-364
 40
2.6
100
AcDbArc
 50
180
 51
359.9999999999987
  0
LINE
  5
28A
100
AcDbEntity
  8
X
  6
ByLayer
 62
  256
370
   -1
100
AcDbLine
 10
-109.0299999999999
 20
-352.0700000000001
 11
-109.0299999999999
 21
-364.0700000000001
  0
LINE
  5
28B
100
AcDbEntity
  8
X
  6
ByLayer
 62
  256
370
   -1
100
AcDbLine
 10
-103.83
 20
-364.0700000000001
 11
-103.83
 21
-352.0700000000001
  0
ARC
  5
28C
100
AcDbEntity
  8
X
  6
ByLayer
 62
  256
370
   -1
100
AcDbCircle
 10
-106.4299999999999
 20
-352.0700000000001
 40
2.6
100
AcDbArc
 50
0
 51
179.9999426026704
  0
ARC
  5
28D
100
AcDbEntity
  8
X
  6
ByLayer
 62
  256
370
   -1
100
AcDbCircle
 10
-106.4299999999999
 20
-364.0700000000001
 40
2.6
100
AcDbArc
 50
180
 51
359.9999999999987
  0
LINE
  5
28E
100
AcDbEntity
  8
X
  6
ByLayer
 62
  256
370
   -1
100
AcDbLine
 10
-158.5
 20
-295.765306122449
 11
-158.5
 21
-369
  0
LINE
  5
28F
100
AcDbEntity
  8
X
  6
ByLayer
 62
  256
370
   -1
100
AcDbLine
 10
-101.5
 20
-369
 11
-101.5
 21
-295.7653061224489
  0
LINE
  5
290
100
AcDbEntity
  8
X
  6
ByLayer
 62
  256
370
   -1
100
AcDbLine
 10
-150
 20
-300
 11
-150
 21
-280
  0
LINE
  5
291
100
AcDbEntity
  8
X
  6
ByLayer
 62
  256
370
   -1
100
AcDbLine
 10
-150
 20
-280
 11
-110
 21
-280
  0
LINE
  5
292
100
AcDbEntity
  8
X
  6
ByLayer
 62
  256
370
   -1
100
AcDbLine
 10
-110
 20
-280
 11
-110
 21
-300
  0
LINE
  5
293
100
AcDbEntity
  8
X
  6
ByLayer
 62
  256
370
   -1
100
AcDbLine
 10
-110
 20
-300
 11
-150
 21
-300
  0
LINE
  5
294
100
AcDbEntity
  8
X
  6
ByLayer
 62
  256
370
   -1
100
AcDbLine
 10
-142.483939531797
 20
-260.6334459459459
 11
-138.7387576722579
 21
-334.4434121621622
  0
LINE
  5
295
100
AcDbEntity
  8
X
  6
ByLayer
 62
  256
370
   -1
100
AcDbLine
 10
-117.516060468203
 20
-260.6334459459459
 11
-121.2612423277421
 21
-334.4434121621622
  0
ARC
  5
296
100
AcDbEntity
  8
X
  6
ByLayer
 62
  256
370
   -1
100
AcDbCircle
 10
-130
 20
-334
 40
8.75
100
AcDbArc
 50
180
 51
0
  0
ARC
  5
297
100
AcDbEntity
  8
X
  6
ByLayer
 62
  256
370
   -1
100
AcDbCircle
 10
-130
 20
-260
 40
12.5
100
AcDbArc
 50
357.0952535108543
 51
182.9047464891458
  0
LINE
  5
298
100
AcDbEntity
  8
X
  6
ByLayer
 62
  256
370
   -1
100
AcDbLine
 10
-209
 20
-240
 11
-51
 21
-240
  0
LINE
  5
299
100
AcDbEntity
  8
X
  6
ByLayer
 62
  256
370
   -1
100
AcDbLine
 10
-150
 20
65
 11
-150.2
 21
85
  0
LINE
  5
29A
100
AcDbEntity
  8
X
  6
ByLayer
 62
  256
370
   -1
100
AcDbLine
 10
-110
 20
65
 11
-110
 21
85
  0
LINE
  5
29B
100
AcDbEntity
  8
Motor
  6
ByLayer
 62
  256
370
   -1
100
AcDbLine
 10
216
 20
-221.5
 11
216
 21
-231
  0
LINE
  5
29C
100
AcDbEntity
  8
Motor
  6
ByLayer
 62
  256
370
   -1
100
AcDbLine
 10
244
 20
-221.5
 11
216
 21
-221.5
  0
LINE
  5
29D
100
AcDbEntity
  8
Motor
  6
ByLayer
 62
  256
370
   -1
100
AcDbLine
 10
244
 20
-231
 11
244
 21
-221.5
  0
LINE
  5
29E
100
AcDbEntity
  8
Motor
  6
ByLayer
 62
  256
370
   -1
100
AcDbLine
 10
215
 20
-232
 11
218
 21
-232
  0
LINE
  5
29F
100
AcDbEntity
  8
Motor
  6
ByLayer
 62
  256
370
   -1
100
AcDbLine
 10
215
 20
-232
 11
215
 21
-320
  0
LINE
  5
2A0
100
AcDbEntity
  8
Motor
  6
ByLayer
 62
  256
370
   -1
100
AcDbLine
 10
218
 20
-231
 11
218
 21
-320
  0
LINE
  5
2A1
100
AcDbEntity
  8
Motor
  6
ByLayer
 62
  256
370
   -1
100
AcDbLine
 10
216
 20
-231
 11
218
 21
-231
  0
LINE
  5
2A2
100
AcDbEntity
  8
Motor
  6
ByLayer
 62
  256
370
   -1
100
AcDbLine
 10
242
 20
-320
 11
242
 21
-231
  0
LINE
  5
2A3
100
AcDbEntity
  8
Motor
  6
ByLayer
 62
  256
370
   -1
100
AcDbLine
 10
242
 20
-232
 11
245
 21
-232
  0
LINE
  5
2A4
100
AcDbEntity
  8
Motor
  6
ByLayer
 62
  256
370
   -1
100
AcDbLine
 10
242
 20
-231
 11
244
 21
-231
  0
LINE
  5
2A5
100
AcDbEntity
  8
Motor
  6
ByLayer
 62
  256
370
   -1
100
AcDbLine
 10
245
 20
-232
 11
245
 21
-320
  0
LINE
  5
2A6
100
AcDbEntity
  8
Motor
  6
ByLayer
 62
  256
370
   -1
100
AcDbLine
 10
218
 20
-244
 11
242
 21
-244
  0
LINE
  5
2A7
100
AcDbEntity
  8
Motor
  6
ByLayer
 62
  256
370
   -1
100
AcDbLine
 10
212
 20
-308
 11
215
 21
-305
  0
LINE
  5
2A8
100
AcDbEntity
  8
Motor
  6
ByLayer
 62
  256
370
   -1
100
AcDbLine
 10
204
 20
-294
 11
215
 21
-305
  0
LINE
  5
2A9
100
AcDbEntity
  8
Motor
  6
ByLayer
 62
  256
370
   -1
100
AcDbLine
 10
248
 20
-308
 11
245
 21
-305
  0
LINE
  5
2AA
100
AcDbEntity
  8
Motor
  6
ByLayer
 62
  256
370
   -1
100
AcDbLine
 10
256
 20
-294
 11
245
 21
-305
  0
LINE
  5
2AB
100
AcDbEntity
  8
Motor
  6
ByLayer
 62
  256
370
   -1
100
AcDbLine
 10
198
 20
-294
 11
204
 21
-294
  0
LINE
  5
2AC
100
AcDbEntity
  8
Motor
  6
ByLayer
 62
  256
370
   -1
100
AcDbLine
 10
192
 20
-308
 11
212
 21
-308
  0
LINE
  5
2AD
100
AcDbEntity
  8
Motor
  6
ByLayer
 62
  256
370
   -1
100
AcDbLine
 10
262
 20
-294
 11
256
 21
-294
  0
LINE
  5
2AE
100
AcDbEntity
  8
Motor
  6
ByLayer
 62
  256
370
   -1
100
AcDbLine
 10
268
 20
-308
 11
248
 21
-308
  0
CIRCLE
  5
2AF
100
AcDbEntity
  8
X
  6
ByLayer
 62
  256
370
   -1
100
AcDbCircle
 10
-442
 20
-57.5
 40
2.600000000000001
  0
CIRCLE
  5
2B0
100
AcDbEntity
  8
X
  6
ByLayer
 62
  256
370
   -1
100
AcDbCircle
 10
-442
 20
-78.5
 40
2.601922366251546
  0
CIRCLE
  5
2B1
100
AcDbEntity
  8
X
  6
ByLayer
 62
  256
370
   -1
100
AcDbCircle
 10
-470
 20
-57.5
 40
2.600000000000001
  0
CIRCLE
  5
2B2
100
AcDbEntity
  8
X
  6
ByLayer
 62
  256
370
   -1
100
AcDbCircle
 10
-470
 20
-78.5
 40
2.600000000000009
  0
CIRCLE
  5
2B3
100
AcDbEntity
  8
X
  6
ByLayer
 62
  256
370
   -1
100
AcDbCircle
 10
-442
 20
-162.5
 40
2.600000000000001
  0
CIRCLE
  5
2B4
100
AcDbEntity
  8
X
  6
ByLayer
 62
  256
370
   -1
100
AcDbCircle
 10
-442
 20
-141.5
 40
2.601922366251546
  0
CIRCLE
  5
2B5
100
AcDbEntity
  8
X
  6
ByLayer
 62
  256
370
   -1
100
AcDbCircle
 10
-470
 20
-162.5
 40
2.600000000000001
  0
CIRCLE
  5
2B6
100
AcDbEntity
  8
X
  6
ByLayer
 62
  256
370
   -1
100
AcDbCircle
 10
-470
 20
-141.5
 40
2.600000000000009
  0
CIRCLE
  5
2B7
100
AcDbEntity
  8
X
  6
ByLayer
 62
  256
370
   -1
100
AcDbCircle
 10
-358
 20
-57.5
 40
2.600000000000001
  0
CIRCLE
  5
2B8
100
AcDbEntity
  8
X
  6
ByLayer
 62
  256
370
   -1
100
AcDbCircle
 10
-358
 20
-78.5
 40
2.601922366251546
  0
CIRCLE
  5
2B9
100
AcDbEntity
  8
X
  6
ByLayer
 62
  256
370
   -1
100
AcDbCircle
 10
-330
 20
-57.5
 40
2.600000000000001
  0
CIRCLE
  5
2BA
100
AcDbEntity
  8
X
  6
ByLayer
 62
  256
370
   -1
100
AcDbCircle
 10
-330
 20
-78.5
 40
2.600000000000009
  0
CIRCLE
  5
2BB
100
AcDbEntity
  8
X
  6
ByLayer
 62
  256
370
   -1
100
AcDbCircle
 10
-358
 20
-162.5
 40
2.600000000000001
  0
CIRCLE
  5
2BC
100
AcDbEntity
  8
X
  6
ByLayer
 62
  256
370
   -1
100
AcDbCircle
 10
-358
 20
-141.5
 40
2.601922366251546
  0
CIRCLE
  5
2BD
100
AcDbEntity
  8
X
  6
ByLayer
 62
  256
370
   -1
100
AcDbCircle
 10
-330
 20
-162.5
 40
2.600000000000001
  0
CIRCLE
  5
2BE
100
AcDbEntity
  8
X
  6
ByLayer
 62
  256
370
   -1
100
AcDbCircle
 10
-330
 20
-141.5
 40
2.600000000000009
  0
CIRCLE
  5
2BF
100
AcDbEntity
  8
X
  6
ByLayer
 62
  256
370
   -1
100
AcDbCircle
 10
-410
 20
-88.75
 40
2.75
  0
CIRCLE
  5
2C0
100
AcDbEntity
  8
X
  6
ByLayer
 62
  256
370
   -1
100
AcDbCircle
 10
-390
 20
-88.75
 40
2.75
  0
LINE
  5
2C1
100
AcDbEntity
  8
X
  6
ByLayer
 62
  256
370
   -1
100
AcDbLine
 10
-476
 20
-50.5
 11
-476
 21
-85.5
  0
LINE
  5
2C2
100
AcDbEntity
  8
X
  6
ByLayer
 62
  256
370
   -1
100
AcDbLine
 10
-476
 20
-85.5
 11
-436
 21
-85.5
  0
LINE
  5
2C3
100
AcDbEntity
  8
X
  6
ByLayer
 62
  256
370
   -1
100
AcDbLine
 10
-436
 20
-85.5
 11
-436
 21
-50.5
  0
LINE
  5
2C4
100
AcDbEntity
  8
X
  6
ByLayer
 62
  256
370
   -1
100
AcDbLine
 10
-436
 20
-50.5
 11
-476
 21
-50.5
  0
CIRCLE
  5
2C5
100
AcDbEntity
  8
X
  6
ByLayer
 62
  256
370
   -1
100
AcDbCircle
 10
-442
 20
-57.5
 40
2.600000000000001
  0
CIRCLE
  5
2C6
100
AcDbEntity
  8
X
  6
ByLayer
 62
  256
370
   -1
100
AcDbCircle
 10
-442
 20
-78.5
 40
2.601922366251546
  0
CIRCLE
  5
2C7
100
AcDbEntity
  8
X
  6
ByLayer
 62
  256
370
   -1
100
AcDbCircle
 10
-470
 20
-57.5
 40
2.600000000000001
  0
CIRCLE
  5
2C8
100
AcDbEntity
  8
X
  6
ByLayer
 62
  256
370
   -1
100
AcDbCircle
 10
-470
 20
-78.5
 40
2.600000000000009
  0
LINE
  5
2C9
100
AcDbEntity
  8
X
  6
ByLayer
 62
  256
370
   -1
100
AcDbLine
 10
-324
 20
-50.5
 11
-324
 21
-85.5
  0
LINE
  5
2CA
100
AcDbEntity
  8
X
  6
ByLayer
 62
  256
370
   -1
100
AcDbLine
 10
-324
 20
-85.5
 11
-364
 21
-85.5
  0
LINE
  5
2CB
100
AcDbEntity
  8
X
  6
ByLayer
 62
  256
370
   -1
100
AcDbLine
 10
-364
 20
-85.5
 11
-364
 21
-50.5
  0
LINE
  5
2CC
100
AcDbEntity
  8
X
  6
ByLayer
 62
  256
370
   -1
100
AcDbLine
 10
-364
 20
-50.5
 11
-324
 21
-50.5
  0
CIRCLE
  5
2CD
100
AcDbEntity
  8
X
  6
ByLayer
 62
  256
370
   -1
100
AcDbCircle
 10
-358
 20
-57.5
 40
2.600000000000001
  0
CIRCLE
  5
2CE
100
AcDbEntity
  8
X
  6
ByLayer
 62
  256
370
   -1
100
AcDbCircle
 10
-358
 20
-78.5
 40
2.601922366251546
  0
CIRCLE
  5
2CF
100
AcDbEntity
  8
X
  6
ByLayer
 62
  256
370
   -1
100
AcDbCircle
 10
-330
 20
-57.5
 40
2.600000000000001
  0
CIRCLE
  5
2D0
100
AcDbEntity
  8
X
  6
ByLayer
 62
  256
370
   -1
100
AcDbCircle
 10
-330
 20
-78.5
 40
2.600000000000009
  0
LINE
  5
2D1
100
AcDbEntity
  8
X
  6
ByLayer
 62
  256
370
   -1
100
AcDbLine
 10
-476
 20
-169.5
 11
-476
 21
-134.5
  0
LINE
  5
2D2
100
AcDbEntity
  8
X
  6
ByLayer
 62
  256
370
   -1
100
AcDbLine
 10
-476
 20
-134.5
 11
-436
 21
-134.5
  0
LINE
  5
2D3
100
AcDbEntity
  8
X
  6
ByLayer
 62
  256
370
   -1
100
AcDbLine
 10
-436
 20
-134.5
 11
-436
 21
-169.5
  0
LINE
  5
2D4
100
AcDbEntity
  8
X
  6
ByLayer
 62
  256
370
   -1
100
AcDbLine
 10
-436
 20
-169.5
 11
-476
 21
-169.5
  0
CIRCLE
  5
2D5
100
AcDbEntity
  8
X
  6
ByLayer
 62
  256
370
   -1
100
AcDbCircle
 10
-442
 20
-162.5
 40
2.600000000000001
  0
CIRCLE
  5
2D6
100
AcDbEntity
  8
X
  6
ByLayer
 62
  256
370
   -1
100
AcDbCircle
 10
-442
 20
-141.5
 40
2.601922366251546
  0
CIRCLE
  5
2D7
100
AcDbEntity
  8
X
  6
ByLayer
 62
  256
370
   -1
100
AcDbCircle
 10
-470
 20
-162.5
 40
2.600000000000001
  0
CIRCLE
  5
2D8
100
AcDbEntity
  8
X
  6
ByLayer
 62
  256
370
   -1
100
AcDbCircle
 10
-470
 20
-141.5
 40
2.600000000000009
  0
LINE
  5
2D9
100
AcDbEntity
  8
X
  6
ByLayer
 62
  256
370
   -1
100
AcDbLine
 10
-324
 20
-169.5
 11
-324
 21
-134.5
  0
LINE
  5
2DA
100
AcDbEntity
  8
X
  6
ByLayer
 62
  256
370
   -1
100
AcDbLine
 10
-324
 20
-134.5
 11
-364
 21
-134.5
  0
LINE
  5
2DB
100
AcDbEntity
  8
X
  6
ByLayer
 62
  256
370
   -1
100
AcDbLine
 10
-364
 20
-134.5
 11
-364
 21
-169.5
  0
LINE
  5
2DC
100
AcDbEntity
  8
X
  6
ByLayer
 62
  256
370
   -1
100
AcDbLine
 10
-364
 20
-169.5
 11
-324
 21
-169.5
  0
CIRCLE
  5
2DD
100
AcDbEntity
  8
X
  6
ByLayer
 62
  256
370
   -1
100
AcDbCircle
 10
-358
 20
-162.5
 40
2.600000000000001
  0
CIRCLE
  5
2DE
100
AcDbEntity
  8
X
  6
ByLayer
 62
  256
370
   -1
100
AcDbCircle
 10
-358
 20
-141.5
 40
2.601922366251546
  0
CIRCLE
  5
2DF
100
AcDbEntity
  8
X
  6
ByLayer
 62
  256
370
   -1
100
AcDbCircle
 10
-330
 20
-162.5
 40
2.600000000000001
  0
CIRCLE
  5
2E0
100
AcDbEntity
  8
X
  6
ByLayer
 62
  256
370
   -1
100
AcDbCircle
 10
-330
 20
-141.5
 40
2.600000000000009
  0
ARC
  5
2E1
100
AcDbEntity
  8
X
  6
ByLayer
 62
  256
370
   -1
100
AcDbCircle
 10
-414
 20
-85.5
 40
4
100
AcDbArc
 50
90.00000000000006
 51
180
  0
ARC
  5
2E2
100
AcDbEntity
  8
X
  6
ByLayer
 62
  256
370
   -1
100
AcDbCircle
 10
-386
 20
-85.5
 40
4
100
AcDbArc
 50
360
 51
89.99999999999994
  0
ARC
  5
2E3
100
AcDbEntity
  8
X
  6
ByLayer
 62
  256
370
   -1
100
AcDbCircle
 10
-414
 20
-108.5
 40
4
100
AcDbArc
 50
180
 51
269.9999999999999
  0
ARC
  5
2E4
100
AcDbEntity
  8
X
  6
ByLayer
 62
  256
370
   -1
100
AcDbCircle
 10
-386
 20
-108.5
 40
4
100
AcDbArc
 50
270.0000000000001
 51
0
  0
LINE
  5
2E5
100
AcDbEntity
  8
X
  6
ByLayer
 62
  256
370
   -1
100
AcDbLine
 10
-418
 20
-108.5
 11
-418
 21
-85.5
  0
LINE
  5
2E6
100
AcDbEntity
  8
X
  6
ByLayer
 62
  256
370
   -1
100
AcDbLine
 10
-386
 20
-112.5
 11
-414
 21
-112.5
  0
LINE
  5
2E7
100
AcDbEntity
  8
X
  6
ByLayer
 62
  256
370
   -1
100
AcDbLine
 10
-414
 20
-81.5
 11
-386
 21
-81.5
  0
LINE
  5
2E8
100
AcDbEntity
  8
X
  6
ByLayer
 62
  256
370
   -1
100
AcDbLine
 10
-382
 20
-85.5
 11
-382
 21
-108.5
  0
CIRCLE
  5
2E9
100
AcDbEntity
  8
X
  6
ByLayer
 62
  256
370
   -1
100
AcDbCircle
 10
-410
 20
-88.75
 40
2.75
  0
CIRCLE
  5
2EA
100
AcDbEntity
  8
X
  6
ByLayer
 62
  256
370
   -1
100
AcDbCircle
 10
-390
 20
-88.75
 40
2.75
  0
LINE
  5
2EB
100
AcDbEntity
  8
X
  6
ByLayer
 62
  256
370
   -1
100
AcDbLine
 10
-479
 20
0
 11
-321
 21
0
  0
LINE
  5
2EC
100
AcDbEntity
  8
X
  6
ByLayer
 62
  256
370
   -1
100
AcDbLine
 10
-479
 20
4
 11
-321
 21
4
  0
LINE
  5
2ED
100
AcDbEntity
  8
X
  6
ByLayer
 62
  256
370
   -1
100
AcDbLine
 10
-479
 20
4
 11
-479
 21
0
  0
LINE
  5
2EE
100
AcDbEntity
  8
X
  6
ByLayer
 62
  256
370
   -1
100
AcDbLine
 10
-321
 20
4
 11
-321
 21
0
  0
LINE
  5
2EF
100
AcDbEntity
  8
X
  6
ByLayer
 62
  256
370
   -1
100
AcDbLine
 10
-461
 20
-134.5
 11
-461
 21
-85.5
  0
LINE
  5
2F0
100
AcDbEntity
  8
X
  6
ByLayer
 62
  256
370
   -1
100
AcDbLine
 10
-451
 20
-134.5
 11
-451
 21
-85.5
  0
LINE
  5
2F1
100
AcDbEntity
  8
X
  6
ByLayer
 62
  256
370
   -1
100
AcDbLine
 10
-349
 20
-134.5
 11
-349
 21
-85.5
  0
LINE
  5
2F2
100
AcDbEntity
  8
X
  6
ByLayer
 62
  256
370
   -1
100
AcDbLine
 10
-339
 20
-134.5
 11
-339
 21
-85.5
  0
LINE
  5
2F3
100
AcDbEntity
  8
X
  6
ByLayer
 62
  256
370
   -1
100
AcDbLine
 10
-479
 20
-604
 11
-321
 21
-604
  0
LINE
  5
2F4
100
AcDbEntity
  8
X
  6
ByLayer
 62
  256
370
   -1
100
AcDbLine
 10
-479
 20
-600
 11
-321
 21
-600
  0
LINE
  5
2F5
100
AcDbEntity
  8
X
  6
ByLayer
 62
  256
370
   -1
100
AcDbLine
 10
-479
 20
-600
 11
-479
 21
-604
  0
LINE
  5
2F6
100
AcDbEntity
  8
X
  6
ByLayer
 62
  256
370
   -1
100
AcDbLine
 10
-321
 20
-600
 11
-321
 21
-604
  0
LINE
  5
2F7
100
AcDbEntity
  8
X
  6
ByLayer
 62
  256
370
   -1
100
AcDbLine
 10
634.3000000000001
 20
-92.00000000000001
 11
625.7
 21
-92
  0
LINE
  5
2F8
100
AcDbEntity
  8
X
  6
ByLayer
 62
  256
370
   -1
100
AcDbLine
 10
653.6999999999999
 20
-92.00000000000004
 11
662.3000000000001
 21
-92.00000000000006
  0
LINE
  5
2F9
100
AcDbEntity
  8
X
  6
ByLayer
 62
  256
370
   -1
100
AcDbLine
 10
765.6999999999999
 20
-92.00000000000001
 11
774.3
 21
-92
  0
LINE
  5
2FA
100
AcDbEntity
  8
X
  6
ByLayer
 62
  256
370
   -1
100
AcDbLine
 10
746.3000000000001
 20
-92.00000000000004
 11
737.6999999999999
 21
-92.00000000000006
  0
LINE
  5
2FB
100
AcDbEntity
  8
X
  6
ByLayer
 62
  256
370
   -1
100
AcDbLine
 10
434.3000000000001
 20
-92.00000000000001
 11
425.7
 21
-92
  0
LINE
  5
2FC
100
AcDbEntity
  8
X
  6
ByLayer
 62
  256
370
   -1
100
AcDbLine
 10
453.6999999999999
 20
-92.00000000000004
 11
462.3000000000001
 21
-92.00000000000006
  0
LINE
  5
2FD
100
AcDbEntity
  8
X
  6
ByLayer
 62
  256
370
   -1
100
AcDbLine
 10
565.6999999999999
 20
-92.00000000000001
 11
574.3
 21
-92
  0
LINE
  5
2FE
100
AcDbEntity
  8
X
  6
ByLayer
 62
  256
370
   -1
100
AcDbLine
 10
546.3000000000001
 20
-92.00000000000004
 11
537.6999999999999
 21
-92.00000000000006
  0
LINE
  5
2FF
100
AcDbEntity
  8
Motor
  6
ByLayer
 62
  256
370
   -1
100
AcDbLine
 10
427.4
 20
-60
 11
427.4
 21
-92
  0
LINE
  5
300
100
AcDbEntity
  8
Motor
  6
ByLayer
 62
  256
370
   -1
100
AcDbLine
 10
432.6
 20
-60
 11
432.6000000000001
 21
-92.00000000000001
  0
LINE
  5
301
100
AcDbEntity
  8
Motor
  6
ByLayer
 62
  256
370
   -1
100
AcDbLine
 10
425.7
 20
-92
 11
425.6999999999999
 21
-105
  0
LINE
  5
302
100
AcDbEntity
  8
Motor
  6
ByLayer
 62
  256
370
   -1
100
AcDbLine
 10
434.3000000000001
 20
-92.00000000000001
 11
434.3000000000001
 21
-105
  0
LINE
  5
303
100
AcDbEntity
  8
Motor
  6
ByLayer
 62
  256
370
   -1
100
AcDbLine
 10
455.3978945512483
 20
-60
 11
455.3949652312461
 21
-92.00000000000004
  0
LINE
  5
304
100
AcDbEntity
  8
Motor
  6
ByLayer
 62
  256
370
   -1
100
AcDbLine
 10
460.6021054487517
 20
-60
 11
460.605034768754
 21
-92.00000000000006
  0
LINE
  5
305
100
AcDbEntity
  8
Motor
  6
ByLayer
 62
  256
370
   -1
100
AcDbLine
 10
453.6999999999999
 20
-92.00000000000004
 11
453.6999999999999
 21
-105
  0
LINE
  5
306
100
AcDbEntity
  8
Motor
  6
ByLayer
 62
  256
370
   -1
100
AcDbLine
 10
462.3000000000001
 20
-92.00000000000006
 11
462.3000000000001
 21
-105
  0
LINE
  5
307
100
AcDbEntity
  8
Motor
  6
ByLayer
 62
  256
370
   -1
100
AcDbLine
 10
539.3978945512482
 20
-60
 11
539.3949652312459
 21
-92.00000000000017
  0
LINE
  5
308
100
AcDbEntity
  8
Motor
  6
ByLayer
 62
  256
370
   -1
100
AcDbLine
 10
544.6021054487517
 20
-60
 11
544.605034768754
 21
-92.00000000000018
  0
LINE
  5
309
100
AcDbEntity
  8
Motor
  6
ByLayer
 62
  256
370
   -1
100
AcDbLine
 10
537.6999999999999
 20
-92.00000000000017
 11
537.6999999999999
 21
-105
  0
LINE
  5
30A
100
AcDbEntity
  8
Motor
  6
ByLayer
 62
  256
370
   -1
100
AcDbLine
 10
546.3000000000001
 20
-92.00000000000018
 11
546.3000000000001
 21
-105
  0
LINE
  5
30B
100
AcDbEntity
  8
Motor
  6
ByLayer
 62
  256
370
   -1
100
AcDbLine
 10
567.4
 20
-60
 11
567.4
 21
-92.00000000000023
  0
LINE
  5
30C
100
AcDbEntity
  8
Motor
  6
ByLayer
 62
  256
370
   -1
100
AcDbLine
 10
572.6
 20
-60
 11
572.6
 21
-92.00000000000024
  0
LINE
  5
30D
100
AcDbEntity
  8
Motor
  6
ByLayer
 62
  256
370
   -1
100
AcDbLine
 10
565.6999999999999
 20
-92.00000000000023
 11
565.6999999999999
 21
-105
  0
LINE
  5
30E
100
AcDbEntity
  8
Motor
  6
ByLayer
 62
  256
370
   -1
100
AcDbLine
 10
574.3000000000001
 20
-92.00000000000024
 11
574.3000000000001
 21
-105
  0
LINE
  5
30F
100
AcDbEntity
  8
Motor
  6
ByLayer
 62
  256
370
   -1
100
AcDbLine
 10
627.4
 20
-60
 11
627.4
 21
-92.00000000000031
  0
LINE
  5
310
100
AcDbEntity
  8
Motor
  6
ByLayer
 62
  256
370
   -1
100
AcDbLine
 10
632.6
 20
-60
 11
632.6
 21
-92.00000000000033
  0
LINE
  5
311
100
AcDbEntity
  8
Motor
  6
ByLayer
 62
  256
370
   -1
100
AcDbLine
 10
655.3978945512483
 20
-60
 11
655.394965231246
 21
-92.00000000000037
  0
LINE
  5
312
100
AcDbEntity
  8
Motor
  6
ByLayer
 62
  256
370
   -1
100
AcDbLine
 10
660.6021054487517
 20
-60
 11
660.605034768754
 21
-92.00000000000038
  0
LINE
  5
313
100
AcDbEntity
  8
Motor
  6
ByLayer
 62
  256
370
   -1
100
AcDbLine
 10
739.3978945512483
 20
-60
 11
739.394965231246
 21
-92.0000000000005
  0
LINE
  5
314
100
AcDbEntity
  8
Motor
  6
ByLayer
 62
  256
370
   -1
100
AcDbLine
 10
744.6021054487517
 20
-60
 11
744.605034768754
 21
-92.00000000000051
  0
LINE
  5
315
100
AcDbEntity
  8
Motor
  6
ByLayer
 62
  256
370
   -1
100
AcDbLine
 10
767.4
 20
-60
 11
767.4
 21
-92.00000000000055
  0
LINE
  5
316
100
AcDbEntity
  8
Motor
  6
ByLayer
 62
  256
370
   -1
100
AcDbLine
 10
772.6
 20
-60
 11
772.6
 21
-92.00000000000057
  0
LINE
  5
317
100
AcDbEntity
  8
Motor
  6
ByLayer
 62
  256
370
   -1
100
AcDbLine
 10
774.3000000000001
 20
-92.00000000000057
 11
774.3000000000001
 21
-105
  0
LINE
  5
318
100
AcDbEntity
  8
Motor
  6
ByLayer
 62
  256
370
   -1
100
AcDbLine
 10
765.6999999999999
 20
-92.00000000000055
 11
765.6999999999999
 21
-105
  0
LINE
  5
319
100
AcDbEntity
  8
Motor
  6
ByLayer
 62
  256
370
   -1
100
AcDbLine
 10
746.3000000000002
 20
-92.00000000000051
 11
746.3000000000001
 21
-105
  0
LINE
  5
31A
100
AcDbEntity
  8
Motor
  6
ByLayer
 62
  256
370
   -1
100
AcDbLine
 10
737.6999999999999
 20
-92.0000000000005
 11
737.6999999999999
 21
-105
  0
LINE
  5
31B
100
AcDbEntity
  8
Motor
  6
ByLayer
 62
  256
370
   -1
100
AcDbLine
 10
662.3000000000001
 20
-92.00000000000038
 11
662.3000000000001
 21
-105
  0
LINE
  5
31C
100
AcDbEntity
  8
Motor
  6
ByLayer
 62
  256
370
   -1
100
AcDbLine
 10
653.6999999999999
 20
-92.00000000000037
 11
653.6999999999999
 21
-105
  0
LINE
  5
31D
100
AcDbEntity
  8
Motor
  6
ByLayer
 62
  256
370
   -1
100
AcDbLine
 10
634.3000000000001
 20
-92.00000000000033
 11
634.3000000000001
 21
-105
  0
LINE
  5
31E
100
AcDbEntity
  8
Motor
  6
ByLayer
 62
  256
370
   -1
100
AcDbLine
 10
625.6999999999999
 20
-92.00000000000031
 11
625.6999999999999
 21
-105
  0
LINE
  5
31F
100
AcDbEntity
  8
X
  6
ByLayer
 62
  256
370
   -1
100
AcDbLine
 10
-477
 20
0
 11
-435
 21
0
  0
LINE
  5
320
100
AcDbEntity
  8
X
  6
ByLayer
 62
  256
370
   -1
100
AcDbLine
 10
-435
 20
0
 11
-435
 21
-10
  0
LINE
  5
321
100
AcDbEntity
  8
X
  6
ByLayer
 62
  256
370
   -1
100
AcDbLine
 10
-435
 20
-10
 11
-477
 21
-10
  0
LINE
  5
322
100
AcDbEntity
  8
X
  6
ByLayer
 62
  256
370
   -1
100
AcDbLine
 10
-477
 20
-10
 11
-477
 21
0
  0
LINE
  5
323
100
AcDbEntity
  8
X
  6
ByLayer
 62
  256
370
   -1
100
AcDbLine
 10
-365
 20
0
 11
-323
 21
0
  0
LINE
  5
324
100
AcDbEntity
  8
X
  6
ByLayer
 62
  256
370
   -1
100
AcDbLine
 10
-323
 20
0
 11
-323
 21
-10
  0
LINE
  5
325
100
AcDbEntity
  8
X
  6
ByLayer
 62
  256
370
   -1
100
AcDbLine
 10
-323
 20
-10
 11
-365
 21
-10
  0
LINE
  5
326
100
AcDbEntity
  8
X
  6
ByLayer
 62
  256
370
   -1
100
AcDbLine
 10
-365
 20
-10
 11
-365
 21
0
  0
LINE
  5
327
100
AcDbEntity
  8
X
  6
ByLayer
 62
  256
370
   -1
100
AcDbLine
 10
-477
 20
-590
 11
-435
 21
-590
  0
LINE
  5
328
100
AcDbEntity
  8
X
  6
ByLayer
 62
  256
370
   -1
100
AcDbLine
 10
-435
 20
-590
 11
-435
 21
-600
  0
LINE
  5
329
100
AcDbEntity
  8
X
  6
ByLayer
 62
  256
370
   -1
100
AcDbLine
 10
-435
 20
-600
 11
-477
 21
-600
  0
LINE
  5
32A
100
AcDbEntity
  8
X
  6
ByLayer
 62
  256
370
   -1
100
AcDbLine
 10
-477
 20
-600
 11
-477
 21
-590
  0
LINE
  5
32B
100
AcDbEntity
  8
X
  6
ByLayer
 62
  256
370
   -1
100
AcDbLine
 10
-365
 20
-590
 11
-323
 21
-590
  0
LINE
  5
32C
100
AcDbEntity
  8
X
  6
ByLayer
 62
  256
370
   -1
100
AcDbLine
 10
-323
 20
-590
 11
-323
 21
-600
  0
LINE
  5
32D
100
AcDbEntity
  8
X
  6
ByLayer
 62
  256
370
   -1
100
AcDbLine
 10
-323
 20
-600
 11
-365
 21
-600
  0
LINE
  5
32E
100
AcDbEntity
  8
X
  6
ByLayer
 62
  256
370
   -1
100
AcDbLine
 10
-365
 20
-600
 11
-365
 21
-590
  0
LINE
  5
32F
100
AcDbEntity
  8
X
  6
ByLayer
 62
  256
370
   -1
100
AcDbLine
 10
-461
 20
-169.5
 11
-461
 21
-590
  0
LINE
  5
330
100
AcDbEntity
  8
X
  6
ByLayer
 62
  256
370
   -1
100
AcDbLine
 10
-451
 20
-590
 11
-451
 21
-169.5
  0
LINE
  5
331
100
AcDbEntity
  8
X
  6
ByLayer
 62
  256
370
   -1
100
AcDbLine
 10
-349
 20
-590
 11
-349
 21
-169.5
  0
LINE
  5
332
100
AcDbEntity
  8
X
  6
ByLayer
 62
  256
370
   -1
100
AcDbLine
 10
-339
 20
-590
 11
-339
 21
-169.5
  0
LINE
  5
333
100
AcDbEntity
  8
X
  6
ByLayer
 62
  256
370
   -1
100
AcDbLine
 10
-461
 20
-50.5
 11
-461
 21
-10
  0
LINE
  5
334
100
AcDbEntity
  8
X
  6
ByLayer
 62
  256
370
   -1
100
AcDbLine
 10
-451
 20
-50.5
 11
-451
 21
-10
  0
LINE
  5
335
100
AcDbEntity
  8
X
  6
ByLayer
 62
  256
370
   -1
100
AcDbLine
 10
-349
 20
-50.5
 11
-349
 21
-10
  0
LINE
  5
336
100
AcDbEntity
  8
X
  6
ByLayer
 62
  256
370
   -1
100
AcDbLine
 10
-339
 20
-50.5
 11
-339
 21
-10
  0
LINE
  5
337
100
AcDbEntity
  8
X
  6
ByLayer
 62
  256
370
   -1
100
AcDbLine
 10
-430
 20
-600
 11
-370
 21
-600
  0
LINE
  5
338
100
AcDbEntity
  8
X
  6
ByLayer
 62
  256
370
   -1
100
AcDbLine
 10
-370
 20
-600
 11
-370
 21
-594.5
  0
LINE
  5
339
100
AcDbEntity
  8
X
  6
ByLayer
 62
  256
370
   -1
100
AcDbLine
 10
-370
 20
-594.5
 11
-430
 21
-594.5
  0
LINE
  5
33A
100
AcDbEntity
  8
X
  6
ByLayer
 62
  256
370
   -1
100
AcDbLine
 10
-430
 20
-594.5
 11
-430
 21
-600
  0
LINE
  5
33B
100
AcDbEntity
  8
X
  6
ByLayer
 62
  256
370
   -1
100
AcDbLine
 10
-417
 20
-594.5
 11
-417.0000000000001
 21
-588.5
  0
LINE
  5
33C
100
AcDbEntity
  8
X
  6
ByLayer
 62
  256
370
   -1
100
AcDbLine
 10
-417.0000000000001
 20
-588.5
 11
-383.0000000000001
 21
-588.5
  0
LINE
  5
33D
100
AcDbEntity
  8
X
  6
ByLayer
 62
  256
370
   -1
100
AcDbLine
 10
-383.0000000000001
 20
-588.5
 11
-383.0000000000001
 21
-594.5
  0
LINE
  5
33E
100
AcDbEntity
  8
X
  6
ByLayer
 62
  256
370
   -1
100
AcDbLine
 10
-383.0000000000001
 20
-594.5
 11
-417
 21
-594.5
  0
LINE
  5
33F
100
AcDbEntity
  8
X
  6
ByLayer
 62
  256
370
   -1
100
AcDbLine
 10
-407.0000000000001
 20
-588.5
 11
-407.0000000000001
 21
-584.5
  0
LINE
  5
340
100
AcDbEntity
  8
X
  6
ByLayer
 62
  256
370
   -1
100
AcDbLine
 10
-407.0000000000001
 20
-584.5
 11
-393.0000000000001
 21
-584.5
  0
LINE
  5
341
100
AcDbEntity
  8
X
  6
ByLayer
 62
  256
370
   -1
100
AcDbLine
 10
-393.0000000000001
 20
-584.5
 11
-393
 21
-588.5
  0
LINE
  5
342
100
AcDbEntity
  8
X
  6
ByLayer
 62
  256
370
   -1
100
AcDbLine
 10
-393
 20
-588.5
 11
-407.0000000000001
 21
-588.5000000000001
  0
LINE
  5
343
100
AcDbEntity
  8
X
  6
ByLayer
 62
  256
370
   -1
100
AcDbLine
 10
-429.9999999999999
 20
9.5
 11
-369.9999999999999
 21
9.5
  0
LINE
  5
344
100
AcDbEntity
  8
X
  6
ByLayer
 62
  256
370
   -1
100
AcDbLine
 10
-369.9999999999999
 20
9.5
 11
-369.9999999999999
 21
4
  0
LINE
  5
345
100
AcDbEntity
  8
X
  6
ByLayer
 62
  256
370
   -1
100
AcDbLine
 10
-369.9999999999999
 20
4
 11
-429.9999999999999
 21
4
  0
LINE
  5
346
100
AcDbEntity
  8
X
  6
ByLayer
 62
  256
370
   -1
100
AcDbLine
 10
-429.9999999999999
 20
4
 11
-429.9999999999999
 21
9.5
  0
LINE
  5
347
100
AcDbEntity
  8
X
  6
ByLayer
 62
  256
370
   -1
100
AcDbLine
 10
-417.0000000000001
 20
-2
 11
-383.0000000000001
 21
-2
  0
LINE
  5
348
100
AcDbEntity
  8
X
  6
ByLayer
 62
  256
370
   -1
100
AcDbLine
 10
-383.0000000000001
 20
4
 11
-416.9999999999999
 21
4
  0
LINE
  5
349
100
AcDbEntity
  8
X
  6
ByLayer
 62
  256
370
   -1
100
AcDbLine
 10
-407.0000000000001
 20
-2
 11
-407.0000000000001
 21
-6
  0
LINE
  5
34A
100
AcDbEntity
  8
X
  6
ByLayer
 62
  256
370
   -1
100
AcDbLine
 10
-407.0000000000001
 20
-6
 11
-393.0000000000001
 21
-6
  0
LINE
  5
34B
100
AcDbEntity
  8
X
  6
ByLayer
 62
  256
370
   -1
100
AcDbLine
 10
-393.0000000000001
 20
-6
 11
-392.9999999999999
 21
-2
  0
LINE
  5
34C
100
AcDbEntity
  8
X
  6
ByLayer
 62
  256
370
   -1
100
AcDbLine
 10
-392.9999999999999
 20
-2
 11
-407.0000000000001
 21
-1.999999999999886
  0
LINE
  5
34D
100
AcDbEntity
  8
X
  6
ByLayer
 62
  256
370
   -1
100
AcDbLine
 10
-417
 20
0
 11
-417.0000000000001
 21
-2
  0
LINE
  5
34E
100
AcDbEntity
  8
X
  6
ByLayer
 62
  256
370
   -1
100
AcDbLine
 10
-383.0000000000001
 20
-2
 11
-383.0000000000001
 21
0
  0
LINE
  5
34F
100
AcDbEntity
  8
X
  6
ByLayer
 62
  256
370
   -1
100
AcDbLine
 10
-405
 20
-584.5
 11
-405
 21
-112.5
  0
LINE
  5
350
100
AcDbEntity
  8
X
  6
ByLayer
 62
  256
370
   -1
100
AcDbLine
 10
-395
 20
-584.5
 11
-395
 21
-112.5
  0
LINE
  5
351
100
AcDbEntity
  8
X
  6
ByLayer
 62
  256
370
   -1
100
AcDbLine
 10
-420
 20
-594.5
 11
-420
 21
0
  0
LINE
  5
352
100
AcDbEntity
  8
X
  6
ByLayer
 62
  256
370
   -1
100
AcDbLine
 10
-380
 20
0
 11
-380
 21
-594.5
  0
LINE
  5
353
100
AcDbEntity
  8
X
  6
ByLayer
 62
  256
370
   -1
100
AcDbLine
 10
-405
 20
-81.5
 11
-405
 21
-6
  0
LINE
  5
354
100
AcDbEntity
  8
X
  6
ByLayer
 62
  256
370
   -1
100
AcDbLine
 10
-395
 20
-81.5
 11
-395
 21
-6
  0
LINE
  5
355
100
AcDbEntity
  8
X
  6
ByLayer
 62
  256
370
   -1
100
AcDbLine
 10
-395
 20
9.5
 11
-395
 21
34
  0
LINE
  5
356
100
AcDbEntity
  8
X
  6
ByLayer
 62
  256
370
   -1
100
AcDbLine
 10
-405
 20
9.5
 11
-405
 21
34
  0
LINE
  5
357
100
AcDbEntity
  8
X
  6
ByLayer
 62
  256
370
   -1
100
AcDbLine
 10
310
 20
-40
 11
370
 21
-40
  0
LINE
  5
358
100
AcDbEntity
  8
X
  6
ByLayer
 62
  256
370
   -1
100
AcDbLine
 10
370
 20
-40
 11
370
 21
-150
  0
LINE
  5
359
100
AcDbEntity
  8
X
  6
ByLayer
 62
  256
370
   -1
100
AcDbLine
 10
370
 20
-150
 11
310
 21
-150
  0
LINE
  5
35A
100
AcDbEntity
  8
X
  6
ByLayer
 62
  256
370
   -1
100
AcDbLine
 10
310
 20
-150
 11
310
 21
-40
  0
LINE
  5
35B
100
AcDbEntity
  8
X
  6
ByLayer
 62
  256
370
   -1
100
AcDbLine
 10
312
 20
-150
 11
368
 21
-150
  0
LINE
  5
35C
100
AcDbEntity
  8
X
  6
ByLayer
 62
  256
370
   -1
100
AcDbLine
 10
368
 20
-150
 11
368
 21
-214
  0
LINE
  5
35D
100
AcDbEntity
  8
X
  6
ByLayer
 62
  256
370
   -1
100
AcDbLine
 10
368
 20
-214
 11
312
 21
-214
  0
LINE
  5
35E
100
AcDbEntity
  8
X
  6
ByLayer
 62
  256
370
   -1
100
AcDbLine
 10
312
 20
-214
 11
312
 21
-150
  0
LINE
  5
35F
100
AcDbEntity
  8
X
  6
ByLayer
 62
  256
370
   -1
100
AcDbLine
 10
324
 20
-214
 11
324
 21
-216
  0
LINE
  5
360
100
AcDbEntity
  8
X
  6
ByLayer
 62
  256
370
   -1
100
AcDbLine
 10
324
 20
-216
 11
356
 21
-216
  0
LINE
  5
361
100
AcDbEntity
  8
X
  6
ByLayer
 62
  256
370
   -1
100
AcDbLine
 10
356
 20
-216
 11
356
 21
-214
  0
LINE
  5
362
100
AcDbEntity
  8
X
  6
ByLayer
 62
  256
370
   -1
100
AcDbLine
 10
356
 20
-214
 11
324
 21
-214
  0
LINE
  5
363
100
AcDbEntity
  8
X
  6
ByLayer
 62
  256
370
   -1
100
AcDbLine
 10
334
 20
-216
 11
346
 21
-216
  0
LINE
  5
364
100
AcDbEntity
  8
X
  6
ByLayer
 62
  256
370
   -1
100
AcDbLine
 10
346
 20
-216
 11
346
 21
-242
  0
LINE
  5
365
100
AcDbEntity
  8
X
  6
ByLayer
 62
  256
370
   -1
100
AcDbLine
 10
346
 20
-242
 11
334
 21
-242
  0
LINE
  5
366
100
AcDbEntity
  8
X
  6
ByLayer
 62
  256
370
   -1
100
AcDbLine
 10
334
 20
-242
 11
334
 21
-216
  0
LINE
  5
367
100
AcDbEntity
  8
X
  6
ByLayer
 62
  256
370
   -1
100
AcDbLine
 10
338
 20
-40
 11
338
 21
-28
  0
LINE
  5
368
100
AcDbEntity
  8
X
  6
ByLayer
 62
  256
370
   -1
100
AcDbLine
 10
338
 20
-28
 11
342
 21
-28
  0
LINE
  5
369
100
AcDbEntity
  8
X
  6
ByLayer
 62
  256
370
   -1
100
AcDbLine
 10
342
 20
-28
 11
342
 21
-40
  0
LINE
  5
36A
100
AcDbEntity
  8
X
  6
ByLayer
 62
  256
370
   -1
100
AcDbLine
 10
308
 20
-26
 11
305
 21
-26
  0
LINE
  5
36B
100
AcDbEntity
  8
X
  6
ByLayer
 62
  256
370
   -1
100
AcDbLine
 10
375
 20
-26
 11
372
 21
-26
  0
LINE
  5
36C
100
AcDbEntity
  8
X
  6
ByLayer
 62
  256
370
   -1
100
AcDbLine
 10
305
 20
-305
 11
308
 21
-305
  0
LINE
  5
36D
100
AcDbEntity
  8
X
  6
ByLayer
 62
  256
370
   -1
100
AcDbLine
 10
372
 20
-305
 11
375
 21
-305
  0
LINE
  5
36E
100
AcDbEntity
  8
X
  6
ByLayer
 62
  256
370
   -1
100
AcDbLine
 10
308
 20
-294
 11
308
 21
-305
  0
LINE
  5
36F
100
AcDbEntity
  8
X
  6
ByLayer
 62
  256
370
   -1
100
AcDbLine
 10
305
 20
-294
 11
302
 21
-294
  0
LINE
  5
370
100
AcDbEntity
  8
X
  6
ByLayer
 62
  256
370
   -1
100
AcDbLine
 10
302
 20
-294
 11
302
 21
-308
  0
LINE
  5
371
100
AcDbEntity
  8
X
  6
ByLayer
 62
  256
370
   -1
100
AcDbLine
 10
305
 20
-294
 11
305
 21
-305
  0
LINE
  5
372
100
AcDbEntity
  8
X
  6
ByLayer
 62
  256
370
   -1
100
AcDbLine
 10
305
 20
-305
 11
308
 21
-305
  0
LINE
  5
373
100
AcDbEntity
  8
X
  6
ByLayer
 62
  256
370
   -1
100
AcDbLine
 10
375
 20
-305
 11
372
 21
-305
  0
LINE
  5
374
100
AcDbEntity
  8
X
  6
ByLayer
 62
  256
370
   -1
100
AcDbLine
 10
372
 20
-294
 11
372
 21
-305
  0
LINE
  5
375
100
AcDbEntity
  8
X
  6
ByLayer
 62
  256
370
   -1
100
AcDbLine
 10
375
 20
-294
 11
378
 21
-294
  0
LINE
  5
376
100
AcDbEntity
  8
X
  6
ByLayer
 62
  256
370
   -1
100
AcDbLine
 10
378
 20
-294
 11
378
 21
-308
  0
LINE
  5
377
100
AcDbEntity
  8
X
  6
ByLayer
 62
  256
370
   -1
100
AcDbLine
 10
375
 20
-294
 11
375
 21
-305
  0
LINE
  5
378
100
AcDbEntity
  8
X
  6
ByLayer
 62
  256
370
   -1
100
AcDbLine
 10
305
 20
-26
 11
305
 21
-305
  0
LINE
  5
379
100
AcDbEntity
  8
X
  6
ByLayer
 62
  256
370
   -1
100
AcDbLine
 10
308
 20
-305
 11
308
 21
-26
  0
LINE
  5
37A
100
AcDbEntity
  8
X
  6
ByLayer
 62
  256
370
   -1
100
AcDbLine
 10
372
 20
-26
 11
372
 21
-305
  0
LINE
  5
37B
100
AcDbEntity
  8
X
  6
ByLayer
 62
  256
370
   -1
100
AcDbLine
 10
375
 20
-305
 11
375
 21
-26
  0
LINE
  5
37C
100
AcDbEntity
  8
X
  6
ByLayer
 62
  256
370
   -1
100
AcDbLine
 10
305
 20
-305
 11
308
 21
-305
  0
LINE
  5
37D
100
AcDbEntity
  8
X
  6
ByLayer
 62
  256
370
   -1
100
AcDbLine
 10
372
 20
-305
 11
375
 21
-305
  0
LINE
  5
37E
100
AcDbEntity
  8
X
  6
ByLayer
 62
  256
370
   -1
100
AcDbLine
 10
326
 20
-221.5
 11
326
 21
-231
  0
LINE
  5
37F
100
AcDbEntity
  8
X
  6
ByLayer
 62
  256
370
   -1
100
AcDbLine
 10
354
 20
-221.5
 11
326
 21
-221.5
  0
LINE
  5
380
100
AcDbEntity
  8
X
  6
ByLayer
 62
  256
370
   -1
100
AcDbLine
 10
354
 20
-231
 11
354
 21
-221.5
  0
LINE
  5
381
100
AcDbEntity
  8
X
  6
ByLayer
 62
  256
370
   -1
100
AcDbLine
 10
325
 20
-232
 11
328
 21
-232
  0
LINE
  5
382
100
AcDbEntity
  8
X
  6
ByLayer
 62
  256
370
   -1
100
AcDbLine
 10
325
 20
-232
 11
325
 21
-320
  0
LINE
  5
383
100
AcDbEntity
  8
X
  6
ByLayer
 62
  256
370
   -1
100
AcDbLine
 10
328
 20
-231
 11
328
 21
-320
  0
LINE
  5
384
100
AcDbEntity
  8
X
  6
ByLayer
 62
  256
370
   -1
100
AcDbLine
 10
326
 20
-231
 11
328
 21
-231
  0
LINE
  5
385
100
AcDbEntity
  8
X
  6
ByLayer
 62
  256
370
   -1
100
AcDbLine
 10
352
 20
-320
 11
352
 21
-231
  0
LINE
  5
386
100
AcDbEntity
  8
X
  6
ByLayer
 62
  256
370
   -1
100
AcDbLine
 10
352
 20
-232
 11
355
 21
-232
  0
LINE
  5
387
100
AcDbEntity
  8
X
  6
ByLayer
 62
  256
370
   -1
100
AcDbLine
 10
352
 20
-231
 11
354
 21
-231
  0
LINE
  5
388
100
AcDbEntity
  8
X
  6
ByLayer
 62
  256
370
   -1
100
AcDbLine
 10
355
 20
-232
 11
355
 21
-320
  0
LINE
  5
389
100
AcDbEntity
  8
X
  6
ByLayer
 62
  256
370
   -1
100
AcDbLine
 10
328
 20
-244
 11
352
 21
-244
  0
LINE
  5
38A
100
AcDbEntity
  8
X
  6
ByLayer
 62
  256
370
   -1
100
AcDbLine
 10
308
 20
-294
 11
314
 21
-294
  0
LINE
  5
38B
100
AcDbEntity
  8
X
  6
ByLayer
 62
  256
370
   -1
100
AcDbLine
 10
372
 20
-294
 11
366
 21
-294
  0
LINE
  5
38C
100
AcDbEntity
  8
X
  6
ByLayer
 62
  256
370
   -1
100
AcDbLine
 10
324
 20
-297
 11
324
 21
-310
  0
LINE
  5
38D
100
AcDbEntity
  8
X
  6
ByLayer
 62
  256
370
   -1
100
AcDbLine
 10
324
 20
-310
 11
317
 21
-310
  0
LINE
  5
38E
100
AcDbEntity
  8
X
  6
ByLayer
 62
  256
370
   -1
100
AcDbLine
 10
317
 20
-310
 11
317
 21
-297
  0
LINE
  5
38F
100
AcDbEntity
  8
X
  6
ByLayer
 62
  256
370
   -1
100
AcDbLine
 10
317
 20
-297
 11
324
 21
-297
  0
LINE
  5
390
100
AcDbEntity
  8
X
  6
ByLayer
 62
  256
370
   -1
100
AcDbLine
 10
363
 20
-297
 11
363
 21
-310
  0
LINE
  5
391
100
AcDbEntity
  8
X
  6
ByLayer
 62
  256
370
   -1
100
AcDbLine
 10
363
 20
-310
 11
356
 21
-310
  0
LINE
  5
392
100
AcDbEntity
  8
X
  6
ByLayer
 62
  256
370
   -1
100
AcDbLine
 10
356
 20
-310
 11
356
 21
-297
  0
LINE
  5
393
100
AcDbEntity
  8
X
  6
ByLayer
 62
  256
370
   -1
100
AcDbLine
 10
356
 20
-297
 11
363
 21
-297
  0
LINE
  5
394
100
AcDbEntity
  8
X
  6
ByLayer
 62
  256
370
   -1
100
AcDbLine
 10
302
 20
-308
 11
317
 21
-308
  0
LINE
  5
395
100
AcDbEntity
  8
X
  6
ByLayer
 62
  256
370
   -1
100
AcDbLine
 10
314
 20
-294
 11
317
 21
-297
  0
LINE
  5
396
100
AcDbEntity
  8
X
  6
ByLayer
 62
  256
370
   -1
100
AcDbLine
 10
366
 20
-294
 11
363
 21
-297
  0
LINE
  5
397
100
AcDbEntity
  8
X
  6
ByLayer
 62
  256
370
   -1
100
AcDbLine
 10
378
 20
-308
 11
363
 21
-308
  0
LINE
  5
398
100
AcDbEntity
  8
X
  6
ByLayer
 62
  256
370
   -1
100
AcDbLine
 10
308
 20
-201
 11
312
 21
-201
  0
LINE
  5
399
100
AcDbEntity
  8
X
  6
ByLayer
 62
  256
370
   -1
100
AcDbLine
 10
312
 20
-201
 11
312
 21
-214
  0
LINE
  5
39A
100
AcDbEntity
  8
X
  6
ByLayer
 62
  256
370
   -1
100
AcDbLine
 10
312
 20
-214
 11
308
 21
-214
  0
LINE
  5
39B
100
AcDbEntity
  8
X
  6
ByLayer
 62
  256
370
   -1
100
AcDbLine
 10
308
 20
-214
 11
308
 21
-201
  0
LINE
  5
39C
100
AcDbEntity
  8
X
  6
ByLayer
 62
  256
370
   -1
100
AcDbLine
 10
368
 20
-201
 11
372
 21
-201
  0
LINE
  5
39D
100
AcDbEntity
  8
X
  6
ByLayer
 62
  256
370
   -1
100
AcDbLine
 10
372
 20
-201
 11
372
 21
-214
  0
LINE
  5
39E
100
AcDbEntity
  8
X
  6
ByLayer
 62
  256
370
   -1
100
AcDbLine
 10
372
 20
-214
 11
368
 21
-214
  0
LINE
  5
39F
100
AcDbEntity
  8
X
  6
ByLayer
 62
  256
370
   -1
100
AcDbLine
 10
368
 20
-214
 11
368
 21
-201
  0
MTEXT
  5
3A0
100
AcDbEntity
  8
X
  6
ByLayer
 62
  256
370
   -1
100
AcDbMText
 10
410
 20
-240
 30
0
 40
7
 41
49.00267400419371
 71
    2
 72
    1
  1
Rubber\Psuspension
  7
standard
210
0
220
0
230
1
 50
0
 73
    2
 44
1
  0
LEADER
  5
3A1
100
AcDbEntity
  8
X
  6
ByLayer
 62
  256
370
   -1
100
AcDbLeader
  3
Standard
 71
    1
 72
    0
 73
    3
 74
    0
 75
    0
 40
1
 41
10
 76
3
 76
3
 10
370
 20
-210
 30
0
 10
390
 20
-220
 30
0
 10
394
 20
-239
 30
0
  0
LEADER
  5
3A2
100
AcDbEntity
  8
X
  6
ByLayer
 62
  256
370
   -1
100
AcDbLeader
  3
Standard
 71
    1
 72
    0
 73
    3
 74
    0
 75
    0
 40
1
 41
10
 76
3
 76
3
 10
360
 20
-300
 30
0
 10
390
 20
-270
 30
0
 10
394
 20
-260
 30
0
  0
ENDSEC
  0
SECTION
  2
OBJECTS
  0
DICTIONARY
  5
C
330
0
100
AcDbDictionary
281
    1
  3
ACAD_GROUP
350
D
  0
DICTIONARY
  5
D
330
C
100
AcDbDictionary
281
    1
  0
ENDSEC
  0
EOF
